<mxfile host="app.diagrams.net" modified="2022-03-23T10:12:57.993Z" agent="5.0 (Macintosh; Intel Mac OS X 10_15_7) AppleWebKit/605.1.15 (KHTML, like Gecko) Version/15.2 Safari/605.1.15" etag="_j3W0jElvL3gGcn5Cmyu" version="17.1.5" type="github">
  <diagram id="C5RBs43oDa-KdzZeNtuy" name="Page-1">
    <mxGraphModel dx="1690" dy="1697" grid="1" gridSize="10" guides="1" tooltips="1" connect="1" arrows="1" fold="1" page="1" pageScale="1" pageWidth="827" pageHeight="1169" math="0" shadow="0">
      <root>
        <mxCell id="WIyWlLk6GJQsqaUBKTNV-0" />
        <mxCell id="WIyWlLk6GJQsqaUBKTNV-1" parent="WIyWlLk6GJQsqaUBKTNV-0" />
        <mxCell id="REJeJX2luTwk9c8U6sS5-15" value="PLAYER" style="html=1;align=left;verticalAlign=top;" parent="WIyWlLk6GJQsqaUBKTNV-1" vertex="1">
          <mxGeometry x="2103.5" y="847.5" width="506.5" height="367.5" as="geometry" />
        </mxCell>
        <mxCell id="1VWSUXiwOZT1shFSJKdf-57" value="Mobile Client" style="html=1;align=left;verticalAlign=top;" parent="WIyWlLk6GJQsqaUBKTNV-1" vertex="1">
          <mxGeometry x="200" y="710" width="300" height="160" as="geometry" />
        </mxCell>
        <mxCell id="1VWSUXiwOZT1shFSJKdf-56" value="GAME SERVER" style="html=1;align=left;verticalAlign=top;" parent="WIyWlLk6GJQsqaUBKTNV-1" vertex="1">
          <mxGeometry x="210" y="430" width="800" height="250" as="geometry" />
        </mxCell>
        <mxCell id="1VWSUXiwOZT1shFSJKdf-39" value="ROOM" style="html=1;align=left;verticalAlign=top;" parent="WIyWlLk6GJQsqaUBKTNV-1" vertex="1">
          <mxGeometry x="590" y="515" width="140" height="125" as="geometry" />
        </mxCell>
        <mxCell id="1VWSUXiwOZT1shFSJKdf-1" value="" style="shape=module;align=left;spacingLeft=20;align=center;verticalAlign=top;" parent="WIyWlLk6GJQsqaUBKTNV-1" vertex="1">
          <mxGeometry x="690" y="520" width="32" height="50" as="geometry" />
        </mxCell>
        <mxCell id="zkfFHV4jXpPFQw0GAbJ--0" value="GAME" style="swimlane;fontStyle=2;align=center;verticalAlign=top;childLayout=stackLayout;horizontal=1;startSize=26;horizontalStack=0;resizeParent=1;resizeLast=0;collapsible=1;marginBottom=0;rounded=0;shadow=0;strokeWidth=1;" parent="WIyWlLk6GJQsqaUBKTNV-1" vertex="1" collapsed="1">
          <mxGeometry x="45" y="70" width="160" height="26" as="geometry">
            <mxRectangle x="140" y="120" width="160" height="138" as="alternateBounds" />
          </mxGeometry>
        </mxCell>
        <mxCell id="zkfFHV4jXpPFQw0GAbJ--1" value="Name" style="text;align=left;verticalAlign=top;spacingLeft=4;spacingRight=4;overflow=hidden;rotatable=0;points=[[0,0.5],[1,0.5]];portConstraint=eastwest;" parent="zkfFHV4jXpPFQw0GAbJ--0" vertex="1">
          <mxGeometry y="26" width="160" height="26" as="geometry" />
        </mxCell>
        <mxCell id="zkfFHV4jXpPFQw0GAbJ--2" value="Phone Number" style="text;align=left;verticalAlign=top;spacingLeft=4;spacingRight=4;overflow=hidden;rotatable=0;points=[[0,0.5],[1,0.5]];portConstraint=eastwest;rounded=0;shadow=0;html=0;" parent="zkfFHV4jXpPFQw0GAbJ--0" vertex="1">
          <mxGeometry y="52" width="160" height="26" as="geometry" />
        </mxCell>
        <mxCell id="zkfFHV4jXpPFQw0GAbJ--3" value="Email Address" style="text;align=left;verticalAlign=top;spacingLeft=4;spacingRight=4;overflow=hidden;rotatable=0;points=[[0,0.5],[1,0.5]];portConstraint=eastwest;rounded=0;shadow=0;html=0;" parent="zkfFHV4jXpPFQw0GAbJ--0" vertex="1">
          <mxGeometry y="78" width="160" height="26" as="geometry" />
        </mxCell>
        <mxCell id="zkfFHV4jXpPFQw0GAbJ--4" value="" style="line;html=1;strokeWidth=1;align=left;verticalAlign=middle;spacingTop=-1;spacingLeft=3;spacingRight=3;rotatable=0;labelPosition=right;points=[];portConstraint=eastwest;" parent="zkfFHV4jXpPFQw0GAbJ--0" vertex="1">
          <mxGeometry y="104" width="160" height="8" as="geometry" />
        </mxCell>
        <mxCell id="zkfFHV4jXpPFQw0GAbJ--5" value="Purchase Parking Pass" style="text;align=left;verticalAlign=top;spacingLeft=4;spacingRight=4;overflow=hidden;rotatable=0;points=[[0,0.5],[1,0.5]];portConstraint=eastwest;" parent="zkfFHV4jXpPFQw0GAbJ--0" vertex="1">
          <mxGeometry y="112" width="160" height="26" as="geometry" />
        </mxCell>
        <mxCell id="sU_c6Er136trvMsLBxcg-8" style="edgeStyle=orthogonalEdgeStyle;rounded=0;orthogonalLoop=1;jettySize=auto;html=1;exitX=0.5;exitY=1;exitDx=0;exitDy=0;entryX=0.5;entryY=0;entryDx=0;entryDy=0;endArrow=none;endFill=0;" parent="WIyWlLk6GJQsqaUBKTNV-1" source="zkfFHV4jXpPFQw0GAbJ--17" target="sU_c6Er136trvMsLBxcg-0" edge="1">
          <mxGeometry relative="1" as="geometry" />
        </mxCell>
        <mxCell id="sU_c6Er136trvMsLBxcg-32" style="edgeStyle=orthogonalEdgeStyle;rounded=0;orthogonalLoop=1;jettySize=auto;html=1;entryX=0.5;entryY=0;entryDx=0;entryDy=0;endArrow=none;endFill=0;startArrow=block;startFill=0;exitX=0.5;exitY=1;exitDx=0;exitDy=0;" parent="WIyWlLk6GJQsqaUBKTNV-1" source="sU_c6Er136trvMsLBxcg-0" target="sU_c6Er136trvMsLBxcg-27" edge="1">
          <mxGeometry relative="1" as="geometry">
            <mxPoint x="435" y="210" as="sourcePoint" />
          </mxGeometry>
        </mxCell>
        <mxCell id="zkfFHV4jXpPFQw0GAbJ--17" value="LEVEL" style="swimlane;fontStyle=0;align=center;verticalAlign=top;childLayout=stackLayout;horizontal=1;startSize=26;horizontalStack=0;resizeParent=1;resizeLast=0;collapsible=1;marginBottom=0;rounded=0;shadow=0;strokeWidth=1;" parent="WIyWlLk6GJQsqaUBKTNV-1" vertex="1" collapsed="1">
          <mxGeometry x="345" y="70" width="160" height="26" as="geometry">
            <mxRectangle x="508" y="110" width="160" height="70" as="alternateBounds" />
          </mxGeometry>
        </mxCell>
        <mxCell id="zkfFHV4jXpPFQw0GAbJ--23" value="" style="line;html=1;strokeWidth=1;align=left;verticalAlign=middle;spacingTop=-1;spacingLeft=3;spacingRight=3;rotatable=0;labelPosition=right;points=[];portConstraint=eastwest;" parent="zkfFHV4jXpPFQw0GAbJ--17" vertex="1">
          <mxGeometry y="26" width="160" height="24" as="geometry" />
        </mxCell>
        <mxCell id="zkfFHV4jXpPFQw0GAbJ--26" value="" style="endArrow=none;shadow=0;strokeWidth=1;rounded=0;endFill=0;edgeStyle=elbowEdgeStyle;elbow=vertical;" parent="WIyWlLk6GJQsqaUBKTNV-1" source="zkfFHV4jXpPFQw0GAbJ--0" target="zkfFHV4jXpPFQw0GAbJ--17" edge="1">
          <mxGeometry x="0.5" y="41" relative="1" as="geometry">
            <mxPoint x="255" y="152" as="sourcePoint" />
            <mxPoint x="415" y="152" as="targetPoint" />
            <mxPoint x="-40" y="32" as="offset" />
          </mxGeometry>
        </mxCell>
        <mxCell id="zkfFHV4jXpPFQw0GAbJ--27" value="1" style="resizable=0;align=left;verticalAlign=bottom;labelBackgroundColor=none;fontSize=12;" parent="zkfFHV4jXpPFQw0GAbJ--26" connectable="0" vertex="1">
          <mxGeometry x="-1" relative="1" as="geometry">
            <mxPoint y="4" as="offset" />
          </mxGeometry>
        </mxCell>
        <mxCell id="zkfFHV4jXpPFQw0GAbJ--28" value="1..*" style="resizable=0;align=right;verticalAlign=bottom;labelBackgroundColor=none;fontSize=12;" parent="zkfFHV4jXpPFQw0GAbJ--26" connectable="0" vertex="1">
          <mxGeometry x="1" relative="1" as="geometry">
            <mxPoint x="-7" y="4" as="offset" />
          </mxGeometry>
        </mxCell>
        <mxCell id="sU_c6Er136trvMsLBxcg-21" style="edgeStyle=orthogonalEdgeStyle;rounded=0;orthogonalLoop=1;jettySize=auto;html=1;exitX=1;exitY=0.5;exitDx=0;exitDy=0;entryX=0.5;entryY=0;entryDx=0;entryDy=0;endArrow=none;endFill=0;" parent="WIyWlLk6GJQsqaUBKTNV-1" source="sU_c6Er136trvMsLBxcg-0" target="sU_c6Er136trvMsLBxcg-3" edge="1">
          <mxGeometry relative="1" as="geometry" />
        </mxCell>
        <mxCell id="sU_c6Er136trvMsLBxcg-22" style="edgeStyle=orthogonalEdgeStyle;rounded=0;orthogonalLoop=1;jettySize=auto;html=1;exitX=0;exitY=0.5;exitDx=0;exitDy=0;entryX=0.5;entryY=0;entryDx=0;entryDy=0;endArrow=none;endFill=0;" parent="WIyWlLk6GJQsqaUBKTNV-1" source="sU_c6Er136trvMsLBxcg-0" target="sU_c6Er136trvMsLBxcg-6" edge="1">
          <mxGeometry relative="1" as="geometry" />
        </mxCell>
        <mxCell id="sU_c6Er136trvMsLBxcg-0" value="ROOM" style="swimlane;fontStyle=0;align=center;verticalAlign=top;childLayout=stackLayout;horizontal=1;startSize=26;horizontalStack=0;resizeParent=1;resizeLast=0;collapsible=1;marginBottom=0;rounded=0;shadow=0;strokeWidth=1;" parent="WIyWlLk6GJQsqaUBKTNV-1" vertex="1" collapsed="1">
          <mxGeometry x="340" y="180" width="170" height="26" as="geometry">
            <mxRectangle x="465" y="220" width="155" height="120" as="alternateBounds" />
          </mxGeometry>
        </mxCell>
        <mxCell id="sU_c6Er136trvMsLBxcg-1" value="bool isSpecial" style="text;align=left;verticalAlign=top;spacingLeft=4;spacingRight=4;overflow=hidden;rotatable=0;points=[[0,0.5],[1,0.5]];portConstraint=eastwest;" parent="sU_c6Er136trvMsLBxcg-0" vertex="1">
          <mxGeometry y="26" width="155" height="26" as="geometry" />
        </mxCell>
        <mxCell id="sU_c6Er136trvMsLBxcg-2" value="" style="line;html=1;strokeWidth=1;align=left;verticalAlign=middle;spacingTop=-1;spacingLeft=3;spacingRight=3;rotatable=0;labelPosition=right;points=[];portConstraint=eastwest;" parent="sU_c6Er136trvMsLBxcg-0" vertex="1">
          <mxGeometry y="52" width="155" height="58" as="geometry" />
        </mxCell>
        <mxCell id="sU_c6Er136trvMsLBxcg-3" value="OBJECT" style="swimlane;fontStyle=0;align=center;verticalAlign=top;childLayout=stackLayout;horizontal=1;startSize=26;horizontalStack=0;resizeParent=1;resizeLast=0;collapsible=1;marginBottom=0;rounded=0;shadow=0;strokeWidth=1;" parent="WIyWlLk6GJQsqaUBKTNV-1" vertex="1" collapsed="1">
          <mxGeometry x="617" y="370" width="170" height="26" as="geometry">
            <mxRectangle x="667" y="370" width="160" height="70" as="alternateBounds" />
          </mxGeometry>
        </mxCell>
        <mxCell id="sU_c6Er136trvMsLBxcg-5" value="" style="line;html=1;strokeWidth=1;align=left;verticalAlign=middle;spacingTop=-1;spacingLeft=3;spacingRight=3;rotatable=0;labelPosition=right;points=[];portConstraint=eastwest;" parent="sU_c6Er136trvMsLBxcg-3" vertex="1">
          <mxGeometry y="26" width="160" height="8" as="geometry" />
        </mxCell>
        <mxCell id="sU_c6Er136trvMsLBxcg-15" style="edgeStyle=orthogonalEdgeStyle;rounded=0;orthogonalLoop=1;jettySize=auto;html=1;exitX=1;exitY=0.5;exitDx=0;exitDy=0;entryX=0;entryY=0.5;entryDx=0;entryDy=0;endArrow=none;endFill=0;" parent="WIyWlLk6GJQsqaUBKTNV-1" source="sU_c6Er136trvMsLBxcg-6" target="sU_c6Er136trvMsLBxcg-12" edge="1">
          <mxGeometry relative="1" as="geometry" />
        </mxCell>
        <mxCell id="sU_c6Er136trvMsLBxcg-6" value="PLAYER" style="swimlane;fontStyle=0;align=center;verticalAlign=top;childLayout=stackLayout;horizontal=1;startSize=26;horizontalStack=0;resizeParent=1;resizeLast=0;collapsible=1;marginBottom=0;rounded=0;shadow=0;strokeWidth=1;" parent="WIyWlLk6GJQsqaUBKTNV-1" vertex="1" collapsed="1">
          <mxGeometry x="40" y="370" width="170" height="26" as="geometry">
            <mxRectangle x="270" y="370" width="160" height="70" as="alternateBounds" />
          </mxGeometry>
        </mxCell>
        <mxCell id="sU_c6Er136trvMsLBxcg-7" value="" style="line;html=1;strokeWidth=1;align=left;verticalAlign=middle;spacingTop=-1;spacingLeft=3;spacingRight=3;rotatable=0;labelPosition=right;points=[];portConstraint=eastwest;" parent="sU_c6Er136trvMsLBxcg-6" vertex="1">
          <mxGeometry y="26" width="160" height="8" as="geometry" />
        </mxCell>
        <mxCell id="sU_c6Er136trvMsLBxcg-9" value="" style="resizable=0;align=right;verticalAlign=bottom;labelBackgroundColor=none;fontSize=12;" parent="WIyWlLk6GJQsqaUBKTNV-1" connectable="0" vertex="1">
          <mxGeometry x="325" y="120.00333333333339" as="geometry">
            <mxPoint x="216" y="62" as="offset" />
          </mxGeometry>
        </mxCell>
        <mxCell id="sU_c6Er136trvMsLBxcg-10" value="1" style="text;html=1;align=center;verticalAlign=middle;resizable=0;points=[];autosize=1;strokeColor=none;fillColor=none;" parent="WIyWlLk6GJQsqaUBKTNV-1" vertex="1">
          <mxGeometry x="425" y="96" width="20" height="20" as="geometry" />
        </mxCell>
        <mxCell id="sU_c6Er136trvMsLBxcg-11" value="1..*" style="text;html=1;align=center;verticalAlign=middle;resizable=0;points=[];autosize=1;strokeColor=none;fillColor=none;" parent="WIyWlLk6GJQsqaUBKTNV-1" vertex="1">
          <mxGeometry x="425" y="150" width="30" height="20" as="geometry" />
        </mxCell>
        <mxCell id="sU_c6Er136trvMsLBxcg-16" style="edgeStyle=orthogonalEdgeStyle;rounded=0;orthogonalLoop=1;jettySize=auto;html=1;exitX=1;exitY=0.5;exitDx=0;exitDy=0;entryX=0;entryY=0.5;entryDx=0;entryDy=0;endArrow=none;endFill=0;" parent="WIyWlLk6GJQsqaUBKTNV-1" source="sU_c6Er136trvMsLBxcg-12" target="sU_c6Er136trvMsLBxcg-3" edge="1">
          <mxGeometry relative="1" as="geometry" />
        </mxCell>
        <mxCell id="sU_c6Er136trvMsLBxcg-12" value="INVENTORY" style="swimlane;fontStyle=0;align=center;verticalAlign=top;childLayout=stackLayout;horizontal=1;startSize=26;horizontalStack=0;resizeParent=1;resizeLast=0;collapsible=1;marginBottom=0;rounded=0;shadow=0;strokeWidth=1;" parent="WIyWlLk6GJQsqaUBKTNV-1" vertex="1" collapsed="1">
          <mxGeometry x="340" y="370" width="170" height="26" as="geometry">
            <mxRectangle x="470" y="370" width="160" height="70" as="alternateBounds" />
          </mxGeometry>
        </mxCell>
        <mxCell id="sU_c6Er136trvMsLBxcg-13" value="" style="line;html=1;strokeWidth=1;align=left;verticalAlign=middle;spacingTop=-1;spacingLeft=3;spacingRight=3;rotatable=0;labelPosition=right;points=[];portConstraint=eastwest;" parent="sU_c6Er136trvMsLBxcg-12" vertex="1">
          <mxGeometry y="26" width="160" height="8" as="geometry" />
        </mxCell>
        <mxCell id="sU_c6Er136trvMsLBxcg-17" value="0..1" style="text;html=1;align=center;verticalAlign=middle;resizable=0;points=[];autosize=1;strokeColor=none;fillColor=none;" parent="WIyWlLk6GJQsqaUBKTNV-1" vertex="1">
          <mxGeometry x="505" y="360" width="40" height="20" as="geometry" />
        </mxCell>
        <mxCell id="sU_c6Er136trvMsLBxcg-18" value="0..5" style="text;html=1;align=center;verticalAlign=middle;resizable=0;points=[];autosize=1;strokeColor=none;fillColor=none;" parent="WIyWlLk6GJQsqaUBKTNV-1" vertex="1">
          <mxGeometry x="565" y="360" width="40" height="20" as="geometry" />
        </mxCell>
        <mxCell id="sU_c6Er136trvMsLBxcg-19" value="1" style="text;html=1;align=center;verticalAlign=middle;resizable=0;points=[];autosize=1;strokeColor=none;fillColor=none;" parent="WIyWlLk6GJQsqaUBKTNV-1" vertex="1">
          <mxGeometry x="240" y="360" width="20" height="20" as="geometry" />
        </mxCell>
        <mxCell id="sU_c6Er136trvMsLBxcg-20" value="1" style="text;html=1;align=center;verticalAlign=middle;resizable=0;points=[];autosize=1;strokeColor=none;fillColor=none;" parent="WIyWlLk6GJQsqaUBKTNV-1" vertex="1">
          <mxGeometry x="310" y="360" width="20" height="20" as="geometry" />
        </mxCell>
        <mxCell id="sU_c6Er136trvMsLBxcg-23" value="1" style="text;html=1;align=center;verticalAlign=middle;resizable=0;points=[];autosize=1;strokeColor=none;fillColor=none;" parent="WIyWlLk6GJQsqaUBKTNV-1" vertex="1">
          <mxGeometry x="315" y="150" width="20" height="20" as="geometry" />
        </mxCell>
        <mxCell id="sU_c6Er136trvMsLBxcg-24" value="*" style="text;html=1;align=center;verticalAlign=middle;resizable=0;points=[];autosize=1;strokeColor=none;fillColor=none;" parent="WIyWlLk6GJQsqaUBKTNV-1" vertex="1">
          <mxGeometry x="160" y="350" width="20" height="20" as="geometry" />
        </mxCell>
        <mxCell id="sU_c6Er136trvMsLBxcg-25" value="1" style="text;html=1;align=center;verticalAlign=middle;resizable=0;points=[];autosize=1;strokeColor=none;fillColor=none;" parent="WIyWlLk6GJQsqaUBKTNV-1" vertex="1">
          <mxGeometry x="510" y="160" width="20" height="20" as="geometry" />
        </mxCell>
        <mxCell id="sU_c6Er136trvMsLBxcg-26" value="*" style="text;html=1;align=center;verticalAlign=middle;resizable=0;points=[];autosize=1;strokeColor=none;fillColor=none;" parent="WIyWlLk6GJQsqaUBKTNV-1" vertex="1">
          <mxGeometry x="697" y="350" width="20" height="20" as="geometry" />
        </mxCell>
        <mxCell id="sU_c6Er136trvMsLBxcg-27" value="SPECIAL ROOM" style="swimlane;fontStyle=0;align=center;verticalAlign=top;childLayout=stackLayout;horizontal=1;startSize=26;horizontalStack=0;resizeParent=1;resizeLast=0;collapsible=1;marginBottom=0;rounded=0;shadow=0;strokeWidth=1;" parent="WIyWlLk6GJQsqaUBKTNV-1" vertex="1" collapsed="1">
          <mxGeometry x="345" y="260" width="160" height="26" as="geometry">
            <mxRectangle x="730" y="73" width="200" height="100" as="alternateBounds" />
          </mxGeometry>
        </mxCell>
        <mxCell id="sU_c6Er136trvMsLBxcg-28" value="" style="line;html=1;strokeWidth=1;align=left;verticalAlign=middle;spacingTop=-1;spacingLeft=3;spacingRight=3;rotatable=0;labelPosition=right;points=[];portConstraint=eastwest;" parent="sU_c6Er136trvMsLBxcg-27" vertex="1">
          <mxGeometry y="26" width="200" height="64" as="geometry" />
        </mxCell>
        <mxCell id="1VWSUXiwOZT1shFSJKdf-8" value="MUD" style="rounded=0;whiteSpace=wrap;html=1;align=left;verticalAlign=top;" parent="WIyWlLk6GJQsqaUBKTNV-1" vertex="1">
          <mxGeometry x="1080" y="160" width="280" height="360" as="geometry" />
        </mxCell>
        <mxCell id="1VWSUXiwOZT1shFSJKdf-9" style="edgeStyle=none;rounded=0;orthogonalLoop=1;jettySize=auto;html=1;entryX=0;entryY=0.5;entryDx=0;entryDy=0;startArrow=none;startFill=0;endArrow=none;endFill=0;" parent="WIyWlLk6GJQsqaUBKTNV-1" target="1VWSUXiwOZT1shFSJKdf-20" edge="1">
          <mxGeometry relative="1" as="geometry">
            <mxPoint x="990" y="325" as="sourcePoint" />
          </mxGeometry>
        </mxCell>
        <mxCell id="1VWSUXiwOZT1shFSJKdf-10" style="edgeStyle=none;rounded=0;orthogonalLoop=1;jettySize=auto;html=1;entryX=0;entryY=0.5;entryDx=0;entryDy=0;startArrow=none;startFill=0;endArrow=none;endFill=0;" parent="WIyWlLk6GJQsqaUBKTNV-1" target="1VWSUXiwOZT1shFSJKdf-17" edge="1">
          <mxGeometry relative="1" as="geometry">
            <mxPoint x="990" y="325" as="sourcePoint" />
          </mxGeometry>
        </mxCell>
        <mxCell id="1VWSUXiwOZT1shFSJKdf-11" style="edgeStyle=none;rounded=0;orthogonalLoop=1;jettySize=auto;html=1;entryX=0;entryY=0.5;entryDx=0;entryDy=0;startArrow=none;startFill=0;endArrow=none;endFill=0;" parent="WIyWlLk6GJQsqaUBKTNV-1" source="1VWSUXiwOZT1shFSJKdf-15" target="1VWSUXiwOZT1shFSJKdf-18" edge="1">
          <mxGeometry relative="1" as="geometry" />
        </mxCell>
        <mxCell id="1VWSUXiwOZT1shFSJKdf-12" style="edgeStyle=none;rounded=0;orthogonalLoop=1;jettySize=auto;html=1;entryX=0;entryY=0.5;entryDx=0;entryDy=0;startArrow=none;startFill=0;endArrow=none;endFill=0;" parent="WIyWlLk6GJQsqaUBKTNV-1" target="1VWSUXiwOZT1shFSJKdf-21" edge="1">
          <mxGeometry relative="1" as="geometry">
            <mxPoint x="990" y="325" as="sourcePoint" />
          </mxGeometry>
        </mxCell>
        <mxCell id="1VWSUXiwOZT1shFSJKdf-13" style="edgeStyle=none;rounded=0;orthogonalLoop=1;jettySize=auto;html=1;entryX=0;entryY=0.5;entryDx=0;entryDy=0;startArrow=none;startFill=0;endArrow=none;endFill=0;" parent="WIyWlLk6GJQsqaUBKTNV-1" target="1VWSUXiwOZT1shFSJKdf-22" edge="1">
          <mxGeometry relative="1" as="geometry">
            <mxPoint x="990" y="325" as="sourcePoint" />
          </mxGeometry>
        </mxCell>
        <mxCell id="1VWSUXiwOZT1shFSJKdf-14" style="edgeStyle=none;rounded=0;orthogonalLoop=1;jettySize=auto;html=1;entryX=0;entryY=0.5;entryDx=0;entryDy=0;startArrow=none;startFill=0;endArrow=none;endFill=0;" parent="WIyWlLk6GJQsqaUBKTNV-1" target="1VWSUXiwOZT1shFSJKdf-23" edge="1">
          <mxGeometry relative="1" as="geometry">
            <mxPoint x="990" y="325" as="sourcePoint" />
          </mxGeometry>
        </mxCell>
        <mxCell id="1VWSUXiwOZT1shFSJKdf-15" value="Actor" style="shape=umlActor;verticalLabelPosition=bottom;verticalAlign=top;html=1;outlineConnect=0;" parent="WIyWlLk6GJQsqaUBKTNV-1" vertex="1">
          <mxGeometry x="960" y="295" width="30" height="60" as="geometry" />
        </mxCell>
        <mxCell id="1VWSUXiwOZT1shFSJKdf-16" value="Join Game" style="ellipse;whiteSpace=wrap;html=1;" parent="WIyWlLk6GJQsqaUBKTNV-1" vertex="1">
          <mxGeometry x="1150" y="190" width="130" height="30" as="geometry" />
        </mxCell>
        <mxCell id="1VWSUXiwOZT1shFSJKdf-17" value="Take Object" style="ellipse;whiteSpace=wrap;html=1;" parent="WIyWlLk6GJQsqaUBKTNV-1" vertex="1">
          <mxGeometry x="1150" y="270" width="130" height="30" as="geometry" />
        </mxCell>
        <mxCell id="1VWSUXiwOZT1shFSJKdf-18" value="Lay Down Object" style="ellipse;whiteSpace=wrap;html=1;" parent="WIyWlLk6GJQsqaUBKTNV-1" vertex="1">
          <mxGeometry x="1150" y="310" width="130" height="30" as="geometry" />
        </mxCell>
        <mxCell id="1VWSUXiwOZT1shFSJKdf-19" value="" style="rounded=0;orthogonalLoop=1;jettySize=auto;html=1;startArrow=none;startFill=0;endArrow=none;endFill=0;entryX=0;entryY=0.5;entryDx=0;entryDy=0;" parent="WIyWlLk6GJQsqaUBKTNV-1" target="1VWSUXiwOZT1shFSJKdf-16" edge="1">
          <mxGeometry relative="1" as="geometry">
            <mxPoint x="990" y="325" as="sourcePoint" />
          </mxGeometry>
        </mxCell>
        <mxCell id="1VWSUXiwOZT1shFSJKdf-20" value="Travel Room" style="ellipse;whiteSpace=wrap;html=1;" parent="WIyWlLk6GJQsqaUBKTNV-1" vertex="1">
          <mxGeometry x="1150" y="230" width="130" height="30" as="geometry" />
        </mxCell>
        <mxCell id="1VWSUXiwOZT1shFSJKdf-21" value="Trade with player" style="ellipse;whiteSpace=wrap;html=1;" parent="WIyWlLk6GJQsqaUBKTNV-1" vertex="1">
          <mxGeometry x="1150" y="350" width="130" height="30" as="geometry" />
        </mxCell>
        <mxCell id="1VWSUXiwOZT1shFSJKdf-22" value="Check Inventory" style="ellipse;whiteSpace=wrap;html=1;" parent="WIyWlLk6GJQsqaUBKTNV-1" vertex="1">
          <mxGeometry x="1150" y="390" width="130" height="30" as="geometry" />
        </mxCell>
        <mxCell id="1VWSUXiwOZT1shFSJKdf-23" value="Talk with players" style="ellipse;whiteSpace=wrap;html=1;" parent="WIyWlLk6GJQsqaUBKTNV-1" vertex="1">
          <mxGeometry x="1150" y="430" width="130" height="30" as="geometry" />
        </mxCell>
        <mxCell id="1VWSUXiwOZT1shFSJKdf-24" value="Exit Game" style="ellipse;whiteSpace=wrap;html=1;opacity=30;" parent="WIyWlLk6GJQsqaUBKTNV-1" vertex="1">
          <mxGeometry x="1150" y="470" width="130" height="30" as="geometry" />
        </mxCell>
        <mxCell id="1VWSUXiwOZT1shFSJKdf-35" value="LEVEL" style="html=1;align=left;verticalAlign=top;" parent="WIyWlLk6GJQsqaUBKTNV-1" vertex="1">
          <mxGeometry x="325" y="515" width="145" height="125" as="geometry" />
        </mxCell>
        <mxCell id="1VWSUXiwOZT1shFSJKdf-42" value="" style="shape=module;align=left;spacingLeft=20;align=center;verticalAlign=top;" parent="WIyWlLk6GJQsqaUBKTNV-1" vertex="1">
          <mxGeometry x="430" y="520" width="32" height="50" as="geometry" />
        </mxCell>
        <mxCell id="1VWSUXiwOZT1shFSJKdf-51" value="PLAYER" style="html=1;align=left;verticalAlign=top;" parent="WIyWlLk6GJQsqaUBKTNV-1" vertex="1">
          <mxGeometry x="820" y="512.5" width="140" height="127.5" as="geometry" />
        </mxCell>
        <mxCell id="1VWSUXiwOZT1shFSJKdf-52" value="" style="shape=module;align=left;spacingLeft=20;align=center;verticalAlign=top;" parent="WIyWlLk6GJQsqaUBKTNV-1" vertex="1">
          <mxGeometry x="920" y="517.5" width="32" height="50" as="geometry" />
        </mxCell>
        <mxCell id="1VWSUXiwOZT1shFSJKdf-61" value="LR" style="html=1;" parent="WIyWlLk6GJQsqaUBKTNV-1" vertex="1">
          <mxGeometry x="455" y="585" width="30" height="30" as="geometry" />
        </mxCell>
        <mxCell id="1VWSUXiwOZT1shFSJKdf-62" value="RL" style="html=1;" parent="WIyWlLk6GJQsqaUBKTNV-1" vertex="1">
          <mxGeometry x="575" y="585" width="30" height="30" as="geometry" />
        </mxCell>
        <mxCell id="1VWSUXiwOZT1shFSJKdf-66" value="RP" style="html=1;" parent="WIyWlLk6GJQsqaUBKTNV-1" vertex="1">
          <mxGeometry x="717" y="585" width="30" height="30" as="geometry" />
        </mxCell>
        <mxCell id="1VWSUXiwOZT1shFSJKdf-67" value="LR" style="html=1;" parent="WIyWlLk6GJQsqaUBKTNV-1" vertex="1">
          <mxGeometry x="462" y="590" width="30" height="30" as="geometry" />
        </mxCell>
        <mxCell id="1VWSUXiwOZT1shFSJKdf-68" value="RP" style="html=1;" parent="WIyWlLk6GJQsqaUBKTNV-1" vertex="1">
          <mxGeometry x="722" y="590" width="30" height="30" as="geometry" />
        </mxCell>
        <mxCell id="1VWSUXiwOZT1shFSJKdf-69" value="PR" style="html=1;" parent="WIyWlLk6GJQsqaUBKTNV-1" vertex="1">
          <mxGeometry x="810" y="590" width="30" height="30" as="geometry" />
        </mxCell>
        <mxCell id="1VWSUXiwOZT1shFSJKdf-70" value="" style="endArrow=none;html=1;rounded=0;" parent="WIyWlLk6GJQsqaUBKTNV-1" source="1VWSUXiwOZT1shFSJKdf-67" target="1VWSUXiwOZT1shFSJKdf-62" edge="1">
          <mxGeometry width="50" height="50" relative="1" as="geometry">
            <mxPoint x="550" y="670" as="sourcePoint" />
            <mxPoint x="600" y="620" as="targetPoint" />
          </mxGeometry>
        </mxCell>
        <mxCell id="1VWSUXiwOZT1shFSJKdf-71" value="" style="endArrow=none;html=1;rounded=0;" parent="WIyWlLk6GJQsqaUBKTNV-1" source="1VWSUXiwOZT1shFSJKdf-68" target="1VWSUXiwOZT1shFSJKdf-69" edge="1">
          <mxGeometry width="50" height="50" relative="1" as="geometry">
            <mxPoint x="550" y="670" as="sourcePoint" />
            <mxPoint x="600" y="620" as="targetPoint" />
          </mxGeometry>
        </mxCell>
        <mxCell id="1VWSUXiwOZT1shFSJKdf-72" value="" style="shape=module;align=left;spacingLeft=20;align=center;verticalAlign=top;" parent="WIyWlLk6GJQsqaUBKTNV-1" vertex="1">
          <mxGeometry x="958" y="450" width="32" height="50" as="geometry" />
        </mxCell>
        <mxCell id="1VWSUXiwOZT1shFSJKdf-73" value="" style="shape=module;align=left;spacingLeft=20;align=center;verticalAlign=top;" parent="WIyWlLk6GJQsqaUBKTNV-1" vertex="1">
          <mxGeometry x="460" y="720" width="32" height="50" as="geometry" />
        </mxCell>
        <mxCell id="1VWSUXiwOZT1shFSJKdf-76" style="edgeStyle=orthogonalEdgeStyle;rounded=0;orthogonalLoop=1;jettySize=auto;html=1;endArrow=none;endFill=0;" parent="WIyWlLk6GJQsqaUBKTNV-1" source="1VWSUXiwOZT1shFSJKdf-74" target="1VWSUXiwOZT1shFSJKdf-75" edge="1">
          <mxGeometry relative="1" as="geometry" />
        </mxCell>
        <mxCell id="1VWSUXiwOZT1shFSJKdf-74" value="MG" style="html=1;" parent="WIyWlLk6GJQsqaUBKTNV-1" vertex="1">
          <mxGeometry x="485" y="782.5" width="30" height="30" as="geometry" />
        </mxCell>
        <mxCell id="1VWSUXiwOZT1shFSJKdf-75" value="GM" style="html=1;" parent="WIyWlLk6GJQsqaUBKTNV-1" vertex="1">
          <mxGeometry x="565" y="670" width="30" height="30" as="geometry" />
        </mxCell>
        <mxCell id="1VWSUXiwOZT1shFSJKdf-77" value="GM" style="html=1;" parent="WIyWlLk6GJQsqaUBKTNV-1" vertex="1">
          <mxGeometry x="560" y="665" width="30" height="30" as="geometry" />
        </mxCell>
        <mxCell id="1VWSUXiwOZT1shFSJKdf-85" value="PLAYER" style="html=1;align=left;verticalAlign=top;" parent="WIyWlLk6GJQsqaUBKTNV-1" vertex="1">
          <mxGeometry x="292.5" y="960" width="380" height="250" as="geometry" />
        </mxCell>
        <mxCell id="1VWSUXiwOZT1shFSJKdf-86" value="" style="shape=module;align=left;spacingLeft=20;align=center;verticalAlign=top;" parent="WIyWlLk6GJQsqaUBKTNV-1" vertex="1">
          <mxGeometry x="632.5" y="965" width="32" height="50" as="geometry" />
        </mxCell>
        <mxCell id="1VWSUXiwOZT1shFSJKdf-87" value="" style="html=1;" parent="WIyWlLk6GJQsqaUBKTNV-1" vertex="1">
          <mxGeometry x="279.5" y="1070" width="30" height="30" as="geometry" />
        </mxCell>
        <mxCell id="1VWSUXiwOZT1shFSJKdf-99" style="edgeStyle=orthogonalEdgeStyle;rounded=0;orthogonalLoop=1;jettySize=auto;html=1;exitX=1;exitY=0.5;exitDx=0;exitDy=0;endArrow=open;endFill=0;" parent="WIyWlLk6GJQsqaUBKTNV-1" source="1VWSUXiwOZT1shFSJKdf-88" target="1VWSUXiwOZT1shFSJKdf-92" edge="1">
          <mxGeometry relative="1" as="geometry" />
        </mxCell>
        <mxCell id="1VWSUXiwOZT1shFSJKdf-88" value="PLayer" style="swimlane;fontStyle=0;childLayout=stackLayout;horizontal=1;startSize=30;horizontalStack=0;resizeParent=1;resizeParentMax=0;resizeLast=0;collapsible=1;marginBottom=0;" parent="WIyWlLk6GJQsqaUBKTNV-1" vertex="1" collapsed="1">
          <mxGeometry x="409.5" y="1015" width="50" height="30" as="geometry">
            <mxRectangle x="710" y="930" width="140" height="90" as="alternateBounds" />
          </mxGeometry>
        </mxCell>
        <mxCell id="1VWSUXiwOZT1shFSJKdf-90" value="Item 2" style="text;strokeColor=none;fillColor=none;align=left;verticalAlign=middle;spacingLeft=4;spacingRight=4;overflow=hidden;points=[[0,0.5],[1,0.5]];portConstraint=eastwest;rotatable=0;" parent="1VWSUXiwOZT1shFSJKdf-88" vertex="1">
          <mxGeometry y="30" width="140" height="30" as="geometry" />
        </mxCell>
        <mxCell id="1VWSUXiwOZT1shFSJKdf-91" value="Item 3" style="text;strokeColor=none;fillColor=none;align=left;verticalAlign=middle;spacingLeft=4;spacingRight=4;overflow=hidden;points=[[0,0.5],[1,0.5]];portConstraint=eastwest;rotatable=0;" parent="1VWSUXiwOZT1shFSJKdf-88" vertex="1">
          <mxGeometry y="60" width="140" height="30" as="geometry" />
        </mxCell>
        <mxCell id="1VWSUXiwOZT1shFSJKdf-100" style="edgeStyle=orthogonalEdgeStyle;rounded=0;orthogonalLoop=1;jettySize=auto;html=1;exitX=0.5;exitY=1;exitDx=0;exitDy=0;endArrow=open;endFill=0;entryX=0.5;entryY=0;entryDx=0;entryDy=0;" parent="WIyWlLk6GJQsqaUBKTNV-1" source="1VWSUXiwOZT1shFSJKdf-92" target="1VWSUXiwOZT1shFSJKdf-95" edge="1">
          <mxGeometry relative="1" as="geometry">
            <mxPoint x="582.5" y="1110" as="targetPoint" />
          </mxGeometry>
        </mxCell>
        <mxCell id="1VWSUXiwOZT1shFSJKdf-92" value="Inventory" style="swimlane;fontStyle=0;childLayout=stackLayout;horizontal=1;startSize=30;horizontalStack=0;resizeParent=1;resizeParentMax=0;resizeLast=0;collapsible=1;marginBottom=0;" parent="WIyWlLk6GJQsqaUBKTNV-1" vertex="1" collapsed="1">
          <mxGeometry x="519.5" y="1060" width="80" height="30" as="geometry">
            <mxRectangle x="710" y="930" width="140" height="90" as="alternateBounds" />
          </mxGeometry>
        </mxCell>
        <mxCell id="1VWSUXiwOZT1shFSJKdf-93" value="Item 2" style="text;strokeColor=none;fillColor=none;align=left;verticalAlign=middle;spacingLeft=4;spacingRight=4;overflow=hidden;points=[[0,0.5],[1,0.5]];portConstraint=eastwest;rotatable=0;" parent="1VWSUXiwOZT1shFSJKdf-92" vertex="1">
          <mxGeometry y="30" width="140" height="30" as="geometry" />
        </mxCell>
        <mxCell id="1VWSUXiwOZT1shFSJKdf-94" value="Item 3" style="text;strokeColor=none;fillColor=none;align=left;verticalAlign=middle;spacingLeft=4;spacingRight=4;overflow=hidden;points=[[0,0.5],[1,0.5]];portConstraint=eastwest;rotatable=0;" parent="1VWSUXiwOZT1shFSJKdf-92" vertex="1">
          <mxGeometry y="60" width="140" height="30" as="geometry" />
        </mxCell>
        <mxCell id="1VWSUXiwOZT1shFSJKdf-95" value="Objects" style="swimlane;fontStyle=0;childLayout=stackLayout;horizontal=1;startSize=30;horizontalStack=0;resizeParent=1;resizeParentMax=0;resizeLast=0;collapsible=1;marginBottom=0;" parent="WIyWlLk6GJQsqaUBKTNV-1" vertex="1" collapsed="1">
          <mxGeometry x="519.5" y="1160" width="80" height="30" as="geometry">
            <mxRectangle x="710" y="930" width="140" height="90" as="alternateBounds" />
          </mxGeometry>
        </mxCell>
        <mxCell id="1VWSUXiwOZT1shFSJKdf-96" value="Item 2" style="text;strokeColor=none;fillColor=none;align=left;verticalAlign=middle;spacingLeft=4;spacingRight=4;overflow=hidden;points=[[0,0.5],[1,0.5]];portConstraint=eastwest;rotatable=0;" parent="1VWSUXiwOZT1shFSJKdf-95" vertex="1">
          <mxGeometry y="30" width="140" height="30" as="geometry" />
        </mxCell>
        <mxCell id="1VWSUXiwOZT1shFSJKdf-97" value="Item 3" style="text;strokeColor=none;fillColor=none;align=left;verticalAlign=middle;spacingLeft=4;spacingRight=4;overflow=hidden;points=[[0,0.5],[1,0.5]];portConstraint=eastwest;rotatable=0;" parent="1VWSUXiwOZT1shFSJKdf-95" vertex="1">
          <mxGeometry y="60" width="140" height="30" as="geometry" />
        </mxCell>
        <mxCell id="1VWSUXiwOZT1shFSJKdf-105" value="" style="rounded=0;orthogonalLoop=1;jettySize=auto;html=1;endArrow=none;endFill=0;sketch=0;sourcePerimeterSpacing=0;targetPerimeterSpacing=0;exitX=1;exitY=0.5;exitDx=0;exitDy=0;dashed=1;startArrow=open;startFill=0;" parent="WIyWlLk6GJQsqaUBKTNV-1" source="1VWSUXiwOZT1shFSJKdf-87" edge="1">
          <mxGeometry relative="1" as="geometry">
            <mxPoint x="222.5" y="1045" as="sourcePoint" />
            <mxPoint x="352.5" y="1050" as="targetPoint" />
            <Array as="points">
              <mxPoint x="352.5" y="1050" />
            </Array>
          </mxGeometry>
        </mxCell>
        <mxCell id="1VWSUXiwOZT1shFSJKdf-106" value="" style="rounded=0;orthogonalLoop=1;jettySize=auto;html=1;endArrow=halfCircle;endFill=0;endSize=6;strokeWidth=1;sketch=0;exitX=0;exitY=0.5;exitDx=0;exitDy=0;" parent="WIyWlLk6GJQsqaUBKTNV-1" source="1VWSUXiwOZT1shFSJKdf-88" edge="1">
          <mxGeometry relative="1" as="geometry">
            <mxPoint x="262.5" y="1045" as="sourcePoint" />
            <mxPoint x="352.5" y="1050" as="targetPoint" />
          </mxGeometry>
        </mxCell>
        <mxCell id="1VWSUXiwOZT1shFSJKdf-109" value="" style="rounded=0;orthogonalLoop=1;jettySize=auto;html=1;endArrow=halfCircle;endFill=0;endSize=6;strokeWidth=1;sketch=0;exitX=0;exitY=0.5;exitDx=0;exitDy=0;" parent="WIyWlLk6GJQsqaUBKTNV-1" source="1VWSUXiwOZT1shFSJKdf-87" edge="1">
          <mxGeometry relative="1" as="geometry">
            <mxPoint x="404.5" y="1085" as="sourcePoint" />
            <mxPoint x="122.5" y="1050" as="targetPoint" />
            <Array as="points">
              <mxPoint x="252.5" y="1050" />
            </Array>
          </mxGeometry>
        </mxCell>
        <mxCell id="1VWSUXiwOZT1shFSJKdf-111" value="Take Object" style="edgeLabel;html=1;align=center;verticalAlign=middle;resizable=0;points=[];" parent="1VWSUXiwOZT1shFSJKdf-109" vertex="1" connectable="0">
          <mxGeometry x="0.3936" y="2" relative="1" as="geometry">
            <mxPoint x="26" as="offset" />
          </mxGeometry>
        </mxCell>
        <mxCell id="1VWSUXiwOZT1shFSJKdf-112" value="" style="rounded=0;orthogonalLoop=1;jettySize=auto;html=1;endArrow=halfCircle;endFill=0;endSize=6;strokeWidth=1;sketch=0;exitX=0;exitY=0.5;exitDx=0;exitDy=0;" parent="WIyWlLk6GJQsqaUBKTNV-1" source="1VWSUXiwOZT1shFSJKdf-87" edge="1">
          <mxGeometry relative="1" as="geometry">
            <mxPoint x="289.5" y="1080" as="sourcePoint" />
            <mxPoint x="122.5" y="1100" as="targetPoint" />
            <Array as="points">
              <mxPoint x="252.5" y="1100" />
            </Array>
          </mxGeometry>
        </mxCell>
        <mxCell id="1VWSUXiwOZT1shFSJKdf-113" value="Lay Down Object" style="edgeLabel;html=1;align=center;verticalAlign=middle;resizable=0;points=[];" parent="1VWSUXiwOZT1shFSJKdf-112" vertex="1" connectable="0">
          <mxGeometry x="0.3936" y="2" relative="1" as="geometry">
            <mxPoint x="26" as="offset" />
          </mxGeometry>
        </mxCell>
        <mxCell id="1VWSUXiwOZT1shFSJKdf-114" value="ROOM" style="html=1;align=left;verticalAlign=top;" parent="WIyWlLk6GJQsqaUBKTNV-1" vertex="1">
          <mxGeometry x="297.5" y="1260" width="375" height="180" as="geometry" />
        </mxCell>
        <mxCell id="1VWSUXiwOZT1shFSJKdf-115" value="" style="shape=module;align=left;spacingLeft=20;align=center;verticalAlign=top;" parent="WIyWlLk6GJQsqaUBKTNV-1" vertex="1">
          <mxGeometry x="630.5" y="1270" width="32" height="50" as="geometry" />
        </mxCell>
        <mxCell id="1VWSUXiwOZT1shFSJKdf-116" value="" style="html=1;" parent="WIyWlLk6GJQsqaUBKTNV-1" vertex="1">
          <mxGeometry x="284.5" y="1310" width="30" height="30" as="geometry" />
        </mxCell>
        <mxCell id="1VWSUXiwOZT1shFSJKdf-117" style="edgeStyle=orthogonalEdgeStyle;rounded=0;orthogonalLoop=1;jettySize=auto;html=1;exitX=0;exitY=0.5;exitDx=0;exitDy=0;endArrow=open;endFill=0;" parent="WIyWlLk6GJQsqaUBKTNV-1" source="1VWSUXiwOZT1shFSJKdf-118" target="1VWSUXiwOZT1shFSJKdf-122" edge="1">
          <mxGeometry relative="1" as="geometry" />
        </mxCell>
        <mxCell id="1VWSUXiwOZT1shFSJKdf-153" value="" style="edgeStyle=orthogonalEdgeStyle;rounded=0;orthogonalLoop=1;jettySize=auto;html=1;startArrow=block;startFill=0;endArrow=none;endFill=0;" parent="WIyWlLk6GJQsqaUBKTNV-1" source="1VWSUXiwOZT1shFSJKdf-118" target="1VWSUXiwOZT1shFSJKdf-150" edge="1">
          <mxGeometry relative="1" as="geometry" />
        </mxCell>
        <mxCell id="1VWSUXiwOZT1shFSJKdf-118" value="Room" style="swimlane;fontStyle=0;childLayout=stackLayout;horizontal=1;startSize=30;horizontalStack=0;resizeParent=1;resizeParentMax=0;resizeLast=0;collapsible=1;marginBottom=0;" parent="WIyWlLk6GJQsqaUBKTNV-1" vertex="1" collapsed="1">
          <mxGeometry x="532.5" y="1280" width="50" height="30" as="geometry">
            <mxRectangle x="710" y="930" width="140" height="90" as="alternateBounds" />
          </mxGeometry>
        </mxCell>
        <mxCell id="1VWSUXiwOZT1shFSJKdf-119" value="Item 2" style="text;strokeColor=none;fillColor=none;align=left;verticalAlign=middle;spacingLeft=4;spacingRight=4;overflow=hidden;points=[[0,0.5],[1,0.5]];portConstraint=eastwest;rotatable=0;" parent="1VWSUXiwOZT1shFSJKdf-118" vertex="1">
          <mxGeometry y="30" width="140" height="30" as="geometry" />
        </mxCell>
        <mxCell id="1VWSUXiwOZT1shFSJKdf-120" value="Item 3" style="text;strokeColor=none;fillColor=none;align=left;verticalAlign=middle;spacingLeft=4;spacingRight=4;overflow=hidden;points=[[0,0.5],[1,0.5]];portConstraint=eastwest;rotatable=0;" parent="1VWSUXiwOZT1shFSJKdf-118" vertex="1">
          <mxGeometry y="60" width="140" height="30" as="geometry" />
        </mxCell>
        <mxCell id="1VWSUXiwOZT1shFSJKdf-121" style="edgeStyle=orthogonalEdgeStyle;rounded=0;orthogonalLoop=1;jettySize=auto;html=1;exitX=0.5;exitY=1;exitDx=0;exitDy=0;endArrow=open;endFill=0;entryX=0.5;entryY=0;entryDx=0;entryDy=0;" parent="WIyWlLk6GJQsqaUBKTNV-1" source="1VWSUXiwOZT1shFSJKdf-122" target="1VWSUXiwOZT1shFSJKdf-125" edge="1">
          <mxGeometry relative="1" as="geometry">
            <mxPoint x="587.5" y="1350" as="targetPoint" />
          </mxGeometry>
        </mxCell>
        <mxCell id="1VWSUXiwOZT1shFSJKdf-128" value="" style="rounded=0;orthogonalLoop=1;jettySize=auto;html=1;endArrow=none;endFill=0;sketch=0;sourcePerimeterSpacing=0;targetPerimeterSpacing=0;exitX=1;exitY=0.5;exitDx=0;exitDy=0;dashed=1;startArrow=open;startFill=0;" parent="WIyWlLk6GJQsqaUBKTNV-1" source="1VWSUXiwOZT1shFSJKdf-116" target="1VWSUXiwOZT1shFSJKdf-169" edge="1">
          <mxGeometry relative="1" as="geometry">
            <mxPoint x="227.5" y="1285" as="sourcePoint" />
            <mxPoint x="367.5739412258374" y="1315.8567058737674" as="targetPoint" />
          </mxGeometry>
        </mxCell>
        <mxCell id="1VWSUXiwOZT1shFSJKdf-129" value="" style="rounded=0;orthogonalLoop=1;jettySize=auto;html=1;endArrow=Circle;endFill=0;endSize=6;strokeWidth=1;sketch=0;exitX=0;exitY=0.5;exitDx=0;exitDy=0;startArrow=none;" parent="WIyWlLk6GJQsqaUBKTNV-1" source="1VWSUXiwOZT1shFSJKdf-169" target="1VWSUXiwOZT1shFSJKdf-169" edge="1">
          <mxGeometry relative="1" as="geometry">
            <mxPoint x="267.5" y="1285" as="sourcePoint" />
            <mxPoint x="372.5" y="1315" as="targetPoint" />
          </mxGeometry>
        </mxCell>
        <mxCell id="1VWSUXiwOZT1shFSJKdf-137" value="" style="rounded=0;orthogonalLoop=1;jettySize=auto;html=1;endArrow=none;endFill=0;sketch=0;sourcePerimeterSpacing=0;targetPerimeterSpacing=0;" parent="WIyWlLk6GJQsqaUBKTNV-1" target="1VWSUXiwOZT1shFSJKdf-139" edge="1">
          <mxGeometry relative="1" as="geometry">
            <mxPoint x="282.5" y="1325" as="sourcePoint" />
            <Array as="points">
              <mxPoint x="242.5" y="1295" />
            </Array>
          </mxGeometry>
        </mxCell>
        <mxCell id="1VWSUXiwOZT1shFSJKdf-140" value="Give Object" style="edgeLabel;html=1;align=center;verticalAlign=middle;resizable=0;points=[];" parent="1VWSUXiwOZT1shFSJKdf-137" vertex="1" connectable="0">
          <mxGeometry x="0.3968" relative="1" as="geometry">
            <mxPoint x="1" as="offset" />
          </mxGeometry>
        </mxCell>
        <mxCell id="1VWSUXiwOZT1shFSJKdf-139" value="" style="ellipse;whiteSpace=wrap;html=1;align=center;aspect=fixed;resizable=0;points=[];outlineConnect=0;sketch=0;" parent="WIyWlLk6GJQsqaUBKTNV-1" vertex="1">
          <mxGeometry x="137.5" y="1290" width="10" height="10" as="geometry" />
        </mxCell>
        <mxCell id="1VWSUXiwOZT1shFSJKdf-144" value="" style="rounded=0;orthogonalLoop=1;jettySize=auto;html=1;endArrow=none;endFill=0;sketch=0;startArrow=none;" parent="WIyWlLk6GJQsqaUBKTNV-1" source="1VWSUXiwOZT1shFSJKdf-143" edge="1">
          <mxGeometry relative="1" as="geometry">
            <mxPoint x="282.5" y="1330" as="sourcePoint" />
            <mxPoint x="142.5" y="1370" as="targetPoint" />
            <Array as="points" />
          </mxGeometry>
        </mxCell>
        <mxCell id="1VWSUXiwOZT1shFSJKdf-146" value="Receive Object" style="edgeLabel;html=1;align=center;verticalAlign=middle;resizable=0;points=[];" parent="1VWSUXiwOZT1shFSJKdf-144" vertex="1" connectable="0">
          <mxGeometry x="0.0321" y="2" relative="1" as="geometry">
            <mxPoint x="60" as="offset" />
          </mxGeometry>
        </mxCell>
        <mxCell id="1VWSUXiwOZT1shFSJKdf-150" value="Special Room" style="swimlane;fontStyle=0;childLayout=stackLayout;horizontal=1;startSize=30;horizontalStack=0;resizeParent=1;resizeParentMax=0;resizeLast=0;collapsible=1;marginBottom=0;" parent="WIyWlLk6GJQsqaUBKTNV-1" vertex="1" collapsed="1">
          <mxGeometry x="511" y="1360" width="93" height="30" as="geometry">
            <mxRectangle x="710" y="930" width="140" height="90" as="alternateBounds" />
          </mxGeometry>
        </mxCell>
        <mxCell id="1VWSUXiwOZT1shFSJKdf-151" value="Item 2" style="text;strokeColor=none;fillColor=none;align=left;verticalAlign=middle;spacingLeft=4;spacingRight=4;overflow=hidden;points=[[0,0.5],[1,0.5]];portConstraint=eastwest;rotatable=0;" parent="1VWSUXiwOZT1shFSJKdf-150" vertex="1">
          <mxGeometry y="30" width="140" height="30" as="geometry" />
        </mxCell>
        <mxCell id="1VWSUXiwOZT1shFSJKdf-152" value="Item 3" style="text;strokeColor=none;fillColor=none;align=left;verticalAlign=middle;spacingLeft=4;spacingRight=4;overflow=hidden;points=[[0,0.5],[1,0.5]];portConstraint=eastwest;rotatable=0;" parent="1VWSUXiwOZT1shFSJKdf-150" vertex="1">
          <mxGeometry y="60" width="140" height="30" as="geometry" />
        </mxCell>
        <mxCell id="1VWSUXiwOZT1shFSJKdf-165" value="" style="rounded=0;orthogonalLoop=1;jettySize=auto;html=1;endArrow=none;endFill=0;sketch=0;sourcePerimeterSpacing=0;targetPerimeterSpacing=0;dashed=1;startArrow=open;startFill=0;" parent="WIyWlLk6GJQsqaUBKTNV-1" target="1VWSUXiwOZT1shFSJKdf-171" edge="1">
          <mxGeometry relative="1" as="geometry">
            <mxPoint x="312.5" y="1330" as="sourcePoint" />
            <mxPoint x="362.5" y="1390" as="targetPoint" />
          </mxGeometry>
        </mxCell>
        <mxCell id="1VWSUXiwOZT1shFSJKdf-169" value="" style="ellipse;whiteSpace=wrap;html=1;align=center;aspect=fixed;resizable=0;points=[];outlineConnect=0;sketch=0;" parent="WIyWlLk6GJQsqaUBKTNV-1" vertex="1">
          <mxGeometry x="368" y="1290" width="10" height="10" as="geometry" />
        </mxCell>
        <mxCell id="1VWSUXiwOZT1shFSJKdf-170" value="" style="rounded=0;orthogonalLoop=1;jettySize=auto;html=1;endArrow=none;endFill=0;endSize=6;strokeWidth=1;sketch=0;exitX=0;exitY=0.5;exitDx=0;exitDy=0;startArrow=none;" parent="WIyWlLk6GJQsqaUBKTNV-1" source="1VWSUXiwOZT1shFSJKdf-122" target="1VWSUXiwOZT1shFSJKdf-169" edge="1">
          <mxGeometry relative="1" as="geometry">
            <mxPoint x="399.5" y="1315" as="sourcePoint" />
            <mxPoint x="372.5" y="1315" as="targetPoint" />
          </mxGeometry>
        </mxCell>
        <mxCell id="1VWSUXiwOZT1shFSJKdf-171" value="" style="ellipse;whiteSpace=wrap;html=1;align=center;aspect=fixed;resizable=0;points=[];outlineConnect=0;sketch=0;" parent="WIyWlLk6GJQsqaUBKTNV-1" vertex="1">
          <mxGeometry x="368" y="1300" width="10" height="10" as="geometry" />
        </mxCell>
        <mxCell id="1VWSUXiwOZT1shFSJKdf-172" value="" style="rounded=0;orthogonalLoop=1;jettySize=auto;html=1;endArrow=none;endFill=0;endSize=6;strokeWidth=1;sketch=0;exitX=0;exitY=0.75;exitDx=0;exitDy=0;startArrow=none;" parent="WIyWlLk6GJQsqaUBKTNV-1" source="1VWSUXiwOZT1shFSJKdf-122" target="1VWSUXiwOZT1shFSJKdf-171" edge="1">
          <mxGeometry relative="1" as="geometry">
            <mxPoint x="378.0000000000002" y="1405" as="sourcePoint" />
            <mxPoint x="352.5" y="1380" as="targetPoint" />
          </mxGeometry>
        </mxCell>
        <mxCell id="1VWSUXiwOZT1shFSJKdf-143" value="" style="ellipse;whiteSpace=wrap;html=1;align=center;aspect=fixed;resizable=0;points=[];outlineConnect=0;sketch=0;" parent="WIyWlLk6GJQsqaUBKTNV-1" vertex="1">
          <mxGeometry x="137.5" y="1360" width="10" height="10" as="geometry" />
        </mxCell>
        <mxCell id="1VWSUXiwOZT1shFSJKdf-173" value="" style="rounded=0;orthogonalLoop=1;jettySize=auto;html=1;endArrow=none;endFill=0;sketch=0;sourcePerimeterSpacing=0;" parent="WIyWlLk6GJQsqaUBKTNV-1" target="1VWSUXiwOZT1shFSJKdf-143" edge="1">
          <mxGeometry relative="1" as="geometry">
            <mxPoint x="282.5" y="1330" as="sourcePoint" />
            <mxPoint x="142.5" y="1370" as="targetPoint" />
            <Array as="points">
              <mxPoint x="247.5" y="1365" />
            </Array>
          </mxGeometry>
        </mxCell>
        <mxCell id="1VWSUXiwOZT1shFSJKdf-175" value="" style="rounded=0;orthogonalLoop=1;jettySize=auto;html=1;endArrow=none;endFill=0;sketch=0;targetPerimeterSpacing=0;exitX=0;exitY=0.5;exitDx=0;exitDy=0;startArrow=none;" parent="WIyWlLk6GJQsqaUBKTNV-1" source="1VWSUXiwOZT1shFSJKdf-177" edge="1">
          <mxGeometry relative="1" as="geometry">
            <mxPoint x="292.5" y="1335" as="sourcePoint" />
            <mxPoint x="142.5" y="1325" as="targetPoint" />
            <Array as="points" />
          </mxGeometry>
        </mxCell>
        <mxCell id="1VWSUXiwOZT1shFSJKdf-177" value="" style="ellipse;whiteSpace=wrap;html=1;align=center;aspect=fixed;resizable=0;points=[];outlineConnect=0;sketch=0;" parent="WIyWlLk6GJQsqaUBKTNV-1" vertex="1">
          <mxGeometry x="137.5" y="1320" width="10" height="10" as="geometry" />
        </mxCell>
        <mxCell id="1VWSUXiwOZT1shFSJKdf-178" value="List Objects" style="rounded=0;orthogonalLoop=1;jettySize=auto;html=1;endArrow=none;endFill=0;sketch=0;sourcePerimeterSpacing=0;exitX=0;exitY=0.5;exitDx=0;exitDy=0;" parent="WIyWlLk6GJQsqaUBKTNV-1" source="1VWSUXiwOZT1shFSJKdf-116" target="1VWSUXiwOZT1shFSJKdf-177" edge="1">
          <mxGeometry x="-0.0949" relative="1" as="geometry">
            <mxPoint x="284.5" y="1325" as="sourcePoint" />
            <mxPoint x="142.5" y="1325" as="targetPoint" />
            <Array as="points">
              <mxPoint x="182.5" y="1325" />
            </Array>
            <mxPoint x="1" as="offset" />
          </mxGeometry>
        </mxCell>
        <mxCell id="1VWSUXiwOZT1shFSJKdf-181" value="" style="rounded=0;orthogonalLoop=1;jettySize=auto;html=1;endArrow=halfCircle;endFill=0;endSize=6;strokeWidth=1;sketch=0;exitX=0;exitY=0.5;exitDx=0;exitDy=0;" parent="WIyWlLk6GJQsqaUBKTNV-1" source="1VWSUXiwOZT1shFSJKdf-87" edge="1">
          <mxGeometry relative="1" as="geometry">
            <mxPoint x="289.5" y="1095" as="sourcePoint" />
            <mxPoint x="122.5" y="1130" as="targetPoint" />
            <Array as="points">
              <mxPoint x="262.5" y="1130" />
            </Array>
          </mxGeometry>
        </mxCell>
        <mxCell id="1VWSUXiwOZT1shFSJKdf-182" value="Request room object list" style="edgeLabel;html=1;align=center;verticalAlign=middle;resizable=0;points=[];" parent="1VWSUXiwOZT1shFSJKdf-181" vertex="1" connectable="0">
          <mxGeometry x="0.3936" y="2" relative="1" as="geometry">
            <mxPoint x="26" as="offset" />
          </mxGeometry>
        </mxCell>
        <mxCell id="1VWSUXiwOZT1shFSJKdf-183" value="Level" style="html=1;align=left;verticalAlign=top;" parent="WIyWlLk6GJQsqaUBKTNV-1" vertex="1">
          <mxGeometry x="297.5" y="1490" width="375" height="180" as="geometry" />
        </mxCell>
        <mxCell id="1VWSUXiwOZT1shFSJKdf-184" value="" style="shape=module;align=left;spacingLeft=20;align=center;verticalAlign=top;" parent="WIyWlLk6GJQsqaUBKTNV-1" vertex="1">
          <mxGeometry x="630.5" y="1500" width="32" height="50" as="geometry" />
        </mxCell>
        <mxCell id="1VWSUXiwOZT1shFSJKdf-185" value="" style="html=1;" parent="WIyWlLk6GJQsqaUBKTNV-1" vertex="1">
          <mxGeometry x="284.5" y="1540" width="30" height="30" as="geometry" />
        </mxCell>
        <mxCell id="1VWSUXiwOZT1shFSJKdf-186" style="edgeStyle=orthogonalEdgeStyle;rounded=0;orthogonalLoop=1;jettySize=auto;html=1;exitX=1;exitY=0.5;exitDx=0;exitDy=0;endArrow=open;endFill=0;" parent="WIyWlLk6GJQsqaUBKTNV-1" source="1VWSUXiwOZT1shFSJKdf-188" target="1VWSUXiwOZT1shFSJKdf-192" edge="1">
          <mxGeometry relative="1" as="geometry" />
        </mxCell>
        <mxCell id="1VWSUXiwOZT1shFSJKdf-187" value="" style="edgeStyle=orthogonalEdgeStyle;rounded=0;orthogonalLoop=1;jettySize=auto;html=1;startArrow=block;startFill=0;endArrow=none;endFill=0;" parent="WIyWlLk6GJQsqaUBKTNV-1" source="1VWSUXiwOZT1shFSJKdf-188" target="1VWSUXiwOZT1shFSJKdf-205" edge="1">
          <mxGeometry relative="1" as="geometry" />
        </mxCell>
        <mxCell id="1VWSUXiwOZT1shFSJKdf-188" value="Room" style="swimlane;fontStyle=0;childLayout=stackLayout;horizontal=1;startSize=30;horizontalStack=0;resizeParent=1;resizeParentMax=0;resizeLast=0;collapsible=1;marginBottom=0;" parent="WIyWlLk6GJQsqaUBKTNV-1" vertex="1" collapsed="1">
          <mxGeometry x="399.5" y="1530" width="50" height="30" as="geometry">
            <mxRectangle x="710" y="930" width="140" height="90" as="alternateBounds" />
          </mxGeometry>
        </mxCell>
        <mxCell id="1VWSUXiwOZT1shFSJKdf-189" value="Item 2" style="text;strokeColor=none;fillColor=none;align=left;verticalAlign=middle;spacingLeft=4;spacingRight=4;overflow=hidden;points=[[0,0.5],[1,0.5]];portConstraint=eastwest;rotatable=0;" parent="1VWSUXiwOZT1shFSJKdf-188" vertex="1">
          <mxGeometry y="30" width="140" height="30" as="geometry" />
        </mxCell>
        <mxCell id="1VWSUXiwOZT1shFSJKdf-190" value="Item 3" style="text;strokeColor=none;fillColor=none;align=left;verticalAlign=middle;spacingLeft=4;spacingRight=4;overflow=hidden;points=[[0,0.5],[1,0.5]];portConstraint=eastwest;rotatable=0;" parent="1VWSUXiwOZT1shFSJKdf-188" vertex="1">
          <mxGeometry y="60" width="140" height="30" as="geometry" />
        </mxCell>
        <mxCell id="1VWSUXiwOZT1shFSJKdf-191" style="edgeStyle=orthogonalEdgeStyle;rounded=0;orthogonalLoop=1;jettySize=auto;html=1;exitX=0.5;exitY=1;exitDx=0;exitDy=0;endArrow=open;endFill=0;entryX=0.5;entryY=0;entryDx=0;entryDy=0;" parent="WIyWlLk6GJQsqaUBKTNV-1" source="1VWSUXiwOZT1shFSJKdf-192" target="1VWSUXiwOZT1shFSJKdf-195" edge="1">
          <mxGeometry relative="1" as="geometry">
            <mxPoint x="587.5" y="1580" as="targetPoint" />
          </mxGeometry>
        </mxCell>
        <mxCell id="1VWSUXiwOZT1shFSJKdf-192" value="Inventory" style="swimlane;fontStyle=0;childLayout=stackLayout;horizontal=1;startSize=30;horizontalStack=0;resizeParent=1;resizeParentMax=0;resizeLast=0;collapsible=1;marginBottom=0;" parent="WIyWlLk6GJQsqaUBKTNV-1" vertex="1" collapsed="1">
          <mxGeometry x="524.5" y="1530" width="80" height="30" as="geometry">
            <mxRectangle x="710" y="930" width="140" height="90" as="alternateBounds" />
          </mxGeometry>
        </mxCell>
        <mxCell id="1VWSUXiwOZT1shFSJKdf-193" value="Item 2" style="text;strokeColor=none;fillColor=none;align=left;verticalAlign=middle;spacingLeft=4;spacingRight=4;overflow=hidden;points=[[0,0.5],[1,0.5]];portConstraint=eastwest;rotatable=0;" parent="1VWSUXiwOZT1shFSJKdf-192" vertex="1">
          <mxGeometry y="30" width="140" height="30" as="geometry" />
        </mxCell>
        <mxCell id="1VWSUXiwOZT1shFSJKdf-194" value="Item 3" style="text;strokeColor=none;fillColor=none;align=left;verticalAlign=middle;spacingLeft=4;spacingRight=4;overflow=hidden;points=[[0,0.5],[1,0.5]];portConstraint=eastwest;rotatable=0;" parent="1VWSUXiwOZT1shFSJKdf-192" vertex="1">
          <mxGeometry y="60" width="140" height="30" as="geometry" />
        </mxCell>
        <mxCell id="1VWSUXiwOZT1shFSJKdf-195" value="Objects" style="swimlane;fontStyle=0;childLayout=stackLayout;horizontal=1;startSize=30;horizontalStack=0;resizeParent=1;resizeParentMax=0;resizeLast=0;collapsible=1;marginBottom=0;" parent="WIyWlLk6GJQsqaUBKTNV-1" vertex="1" collapsed="1">
          <mxGeometry x="524.5" y="1620" width="80" height="30" as="geometry">
            <mxRectangle x="710" y="930" width="140" height="90" as="alternateBounds" />
          </mxGeometry>
        </mxCell>
        <mxCell id="1VWSUXiwOZT1shFSJKdf-196" value="Item 2" style="text;strokeColor=none;fillColor=none;align=left;verticalAlign=middle;spacingLeft=4;spacingRight=4;overflow=hidden;points=[[0,0.5],[1,0.5]];portConstraint=eastwest;rotatable=0;" parent="1VWSUXiwOZT1shFSJKdf-195" vertex="1">
          <mxGeometry y="30" width="140" height="30" as="geometry" />
        </mxCell>
        <mxCell id="1VWSUXiwOZT1shFSJKdf-197" value="Item 3" style="text;strokeColor=none;fillColor=none;align=left;verticalAlign=middle;spacingLeft=4;spacingRight=4;overflow=hidden;points=[[0,0.5],[1,0.5]];portConstraint=eastwest;rotatable=0;" parent="1VWSUXiwOZT1shFSJKdf-195" vertex="1">
          <mxGeometry y="60" width="140" height="30" as="geometry" />
        </mxCell>
        <mxCell id="1VWSUXiwOZT1shFSJKdf-198" value="" style="rounded=0;orthogonalLoop=1;jettySize=auto;html=1;endArrow=none;endFill=0;sketch=0;sourcePerimeterSpacing=0;targetPerimeterSpacing=0;exitX=1;exitY=0.5;exitDx=0;exitDy=0;dashed=1;startArrow=open;startFill=0;" parent="WIyWlLk6GJQsqaUBKTNV-1" source="1VWSUXiwOZT1shFSJKdf-185" edge="1">
          <mxGeometry relative="1" as="geometry">
            <mxPoint x="227.5" y="1515" as="sourcePoint" />
            <mxPoint x="367.5739412258374" y="1545.8567058737674" as="targetPoint" />
          </mxGeometry>
        </mxCell>
        <mxCell id="1VWSUXiwOZT1shFSJKdf-199" value="" style="rounded=0;orthogonalLoop=1;jettySize=auto;html=1;endArrow=Circle;endFill=0;entryX=0.5;entryY=0.5;endSize=6;strokeWidth=1;sketch=0;exitX=0;exitY=0.5;exitDx=0;exitDy=0;startArrow=none;" parent="WIyWlLk6GJQsqaUBKTNV-1" source="1VWSUXiwOZT1shFSJKdf-209" edge="1">
          <mxGeometry relative="1" as="geometry">
            <mxPoint x="267.5" y="1515" as="sourcePoint" />
            <mxPoint x="372.5" y="1545" as="targetPoint" />
          </mxGeometry>
        </mxCell>
        <mxCell id="1VWSUXiwOZT1shFSJKdf-200" value="" style="rounded=0;orthogonalLoop=1;jettySize=auto;html=1;endArrow=none;endFill=0;sketch=0;sourcePerimeterSpacing=0;targetPerimeterSpacing=0;" parent="WIyWlLk6GJQsqaUBKTNV-1" target="1VWSUXiwOZT1shFSJKdf-202" edge="1">
          <mxGeometry relative="1" as="geometry">
            <mxPoint x="282.5" y="1555" as="sourcePoint" />
            <Array as="points">
              <mxPoint x="242.5" y="1525" />
            </Array>
          </mxGeometry>
        </mxCell>
        <mxCell id="1VWSUXiwOZT1shFSJKdf-201" value="Give Object" style="edgeLabel;html=1;align=center;verticalAlign=middle;resizable=0;points=[];" parent="1VWSUXiwOZT1shFSJKdf-200" vertex="1" connectable="0">
          <mxGeometry x="0.3968" relative="1" as="geometry">
            <mxPoint x="1" as="offset" />
          </mxGeometry>
        </mxCell>
        <mxCell id="1VWSUXiwOZT1shFSJKdf-202" value="" style="ellipse;whiteSpace=wrap;html=1;align=center;aspect=fixed;resizable=0;points=[];outlineConnect=0;sketch=0;" parent="WIyWlLk6GJQsqaUBKTNV-1" vertex="1">
          <mxGeometry x="137.5" y="1520" width="10" height="10" as="geometry" />
        </mxCell>
        <mxCell id="1VWSUXiwOZT1shFSJKdf-203" value="" style="rounded=0;orthogonalLoop=1;jettySize=auto;html=1;endArrow=none;endFill=0;sketch=0;startArrow=none;" parent="WIyWlLk6GJQsqaUBKTNV-1" source="1VWSUXiwOZT1shFSJKdf-213" edge="1">
          <mxGeometry relative="1" as="geometry">
            <mxPoint x="282.5" y="1560" as="sourcePoint" />
            <mxPoint x="142.5" y="1600" as="targetPoint" />
            <Array as="points" />
          </mxGeometry>
        </mxCell>
        <mxCell id="1VWSUXiwOZT1shFSJKdf-204" value="Receive Object" style="edgeLabel;html=1;align=center;verticalAlign=middle;resizable=0;points=[];" parent="1VWSUXiwOZT1shFSJKdf-203" vertex="1" connectable="0">
          <mxGeometry x="0.0321" y="2" relative="1" as="geometry">
            <mxPoint x="60" as="offset" />
          </mxGeometry>
        </mxCell>
        <mxCell id="1VWSUXiwOZT1shFSJKdf-205" value="Special Room" style="swimlane;fontStyle=0;childLayout=stackLayout;horizontal=1;startSize=30;horizontalStack=0;resizeParent=1;resizeParentMax=0;resizeLast=0;collapsible=1;marginBottom=0;" parent="WIyWlLk6GJQsqaUBKTNV-1" vertex="1" collapsed="1">
          <mxGeometry x="378" y="1620" width="93" height="30" as="geometry">
            <mxRectangle x="710" y="930" width="140" height="90" as="alternateBounds" />
          </mxGeometry>
        </mxCell>
        <mxCell id="1VWSUXiwOZT1shFSJKdf-206" value="Item 2" style="text;strokeColor=none;fillColor=none;align=left;verticalAlign=middle;spacingLeft=4;spacingRight=4;overflow=hidden;points=[[0,0.5],[1,0.5]];portConstraint=eastwest;rotatable=0;" parent="1VWSUXiwOZT1shFSJKdf-205" vertex="1">
          <mxGeometry y="30" width="140" height="30" as="geometry" />
        </mxCell>
        <mxCell id="1VWSUXiwOZT1shFSJKdf-207" value="Item 3" style="text;strokeColor=none;fillColor=none;align=left;verticalAlign=middle;spacingLeft=4;spacingRight=4;overflow=hidden;points=[[0,0.5],[1,0.5]];portConstraint=eastwest;rotatable=0;" parent="1VWSUXiwOZT1shFSJKdf-205" vertex="1">
          <mxGeometry y="60" width="140" height="30" as="geometry" />
        </mxCell>
        <mxCell id="1VWSUXiwOZT1shFSJKdf-208" value="" style="rounded=0;orthogonalLoop=1;jettySize=auto;html=1;endArrow=none;endFill=0;sketch=0;sourcePerimeterSpacing=0;targetPerimeterSpacing=0;dashed=1;startArrow=open;startFill=0;" parent="WIyWlLk6GJQsqaUBKTNV-1" source="1VWSUXiwOZT1shFSJKdf-185" edge="1">
          <mxGeometry relative="1" as="geometry">
            <mxPoint x="316" y="1641.1963190184047" as="sourcePoint" />
            <mxPoint x="362.5" y="1620" as="targetPoint" />
          </mxGeometry>
        </mxCell>
        <mxCell id="1VWSUXiwOZT1shFSJKdf-209" value="" style="ellipse;whiteSpace=wrap;html=1;align=center;aspect=fixed;resizable=0;points=[];outlineConnect=0;sketch=0;" parent="WIyWlLk6GJQsqaUBKTNV-1" vertex="1">
          <mxGeometry x="368" y="1540" width="10" height="10" as="geometry" />
        </mxCell>
        <mxCell id="1VWSUXiwOZT1shFSJKdf-210" value="" style="rounded=0;orthogonalLoop=1;jettySize=auto;html=1;endArrow=none;endFill=0;entryX=0.5;entryY=0.5;endSize=6;strokeWidth=1;sketch=0;exitX=0;exitY=0.5;exitDx=0;exitDy=0;" parent="WIyWlLk6GJQsqaUBKTNV-1" source="1VWSUXiwOZT1shFSJKdf-188" target="1VWSUXiwOZT1shFSJKdf-209" edge="1">
          <mxGeometry relative="1" as="geometry">
            <mxPoint x="399.5" y="1545" as="sourcePoint" />
            <mxPoint x="372.5" y="1545" as="targetPoint" />
          </mxGeometry>
        </mxCell>
        <mxCell id="1VWSUXiwOZT1shFSJKdf-211" value="" style="ellipse;whiteSpace=wrap;html=1;align=center;aspect=fixed;resizable=0;points=[];outlineConnect=0;sketch=0;" parent="WIyWlLk6GJQsqaUBKTNV-1" vertex="1">
          <mxGeometry x="352.5" y="1610" width="10" height="10" as="geometry" />
        </mxCell>
        <mxCell id="1VWSUXiwOZT1shFSJKdf-212" value="" style="rounded=0;orthogonalLoop=1;jettySize=auto;html=1;endArrow=none;endFill=0;endSize=6;strokeWidth=1;sketch=0;exitX=0;exitY=0.5;exitDx=0;exitDy=0;" parent="WIyWlLk6GJQsqaUBKTNV-1" source="1VWSUXiwOZT1shFSJKdf-205" target="1VWSUXiwOZT1shFSJKdf-211" edge="1">
          <mxGeometry relative="1" as="geometry">
            <mxPoint x="378.0000000000002" y="1635" as="sourcePoint" />
            <mxPoint x="352.5" y="1610" as="targetPoint" />
          </mxGeometry>
        </mxCell>
        <mxCell id="1VWSUXiwOZT1shFSJKdf-213" value="" style="ellipse;whiteSpace=wrap;html=1;align=center;aspect=fixed;resizable=0;points=[];outlineConnect=0;sketch=0;" parent="WIyWlLk6GJQsqaUBKTNV-1" vertex="1">
          <mxGeometry x="137.5" y="1590" width="10" height="10" as="geometry" />
        </mxCell>
        <mxCell id="1VWSUXiwOZT1shFSJKdf-214" value="" style="rounded=0;orthogonalLoop=1;jettySize=auto;html=1;endArrow=none;endFill=0;sketch=0;sourcePerimeterSpacing=0;" parent="WIyWlLk6GJQsqaUBKTNV-1" target="1VWSUXiwOZT1shFSJKdf-213" edge="1">
          <mxGeometry relative="1" as="geometry">
            <mxPoint x="282.5" y="1560" as="sourcePoint" />
            <mxPoint x="142.5" y="1600" as="targetPoint" />
            <Array as="points">
              <mxPoint x="247.5" y="1595" />
            </Array>
          </mxGeometry>
        </mxCell>
        <mxCell id="1VWSUXiwOZT1shFSJKdf-215" value="" style="rounded=0;orthogonalLoop=1;jettySize=auto;html=1;endArrow=none;endFill=0;sketch=0;targetPerimeterSpacing=0;exitX=0;exitY=0.5;exitDx=0;exitDy=0;startArrow=none;" parent="WIyWlLk6GJQsqaUBKTNV-1" source="1VWSUXiwOZT1shFSJKdf-216" edge="1">
          <mxGeometry relative="1" as="geometry">
            <mxPoint x="292.5" y="1565" as="sourcePoint" />
            <mxPoint x="142.5" y="1555" as="targetPoint" />
            <Array as="points" />
          </mxGeometry>
        </mxCell>
        <mxCell id="1VWSUXiwOZT1shFSJKdf-216" value="" style="ellipse;whiteSpace=wrap;html=1;align=center;aspect=fixed;resizable=0;points=[];outlineConnect=0;sketch=0;" parent="WIyWlLk6GJQsqaUBKTNV-1" vertex="1">
          <mxGeometry x="137.5" y="1550" width="10" height="10" as="geometry" />
        </mxCell>
        <mxCell id="1VWSUXiwOZT1shFSJKdf-217" value="List Objects" style="rounded=0;orthogonalLoop=1;jettySize=auto;html=1;endArrow=none;endFill=0;sketch=0;sourcePerimeterSpacing=0;exitX=0;exitY=0.5;exitDx=0;exitDy=0;" parent="WIyWlLk6GJQsqaUBKTNV-1" source="1VWSUXiwOZT1shFSJKdf-185" target="1VWSUXiwOZT1shFSJKdf-216" edge="1">
          <mxGeometry x="-0.0949" relative="1" as="geometry">
            <mxPoint x="284.5" y="1555" as="sourcePoint" />
            <mxPoint x="142.5" y="1555" as="targetPoint" />
            <Array as="points">
              <mxPoint x="182.5" y="1555" />
            </Array>
            <mxPoint x="1" as="offset" />
          </mxGeometry>
        </mxCell>
        <mxCell id="1VWSUXiwOZT1shFSJKdf-221" value="" style="rounded=0;orthogonalLoop=1;jettySize=auto;html=1;endArrow=halfCircle;endFill=0;endSize=6;strokeWidth=1;sketch=0;exitX=0;exitY=0.75;exitDx=0;exitDy=0;" parent="WIyWlLk6GJQsqaUBKTNV-1" source="1VWSUXiwOZT1shFSJKdf-88" edge="1">
          <mxGeometry relative="1" as="geometry">
            <mxPoint x="292.5" y="1255" as="sourcePoint" />
            <mxPoint x="362.5" y="1080" as="targetPoint" />
          </mxGeometry>
        </mxCell>
        <mxCell id="1VWSUXiwOZT1shFSJKdf-223" value="" style="rounded=0;orthogonalLoop=1;jettySize=auto;html=1;endArrow=none;endFill=0;sketch=0;sourcePerimeterSpacing=0;targetPerimeterSpacing=0;exitX=1;exitY=0.75;exitDx=0;exitDy=0;dashed=1;startArrow=open;startFill=0;" parent="WIyWlLk6GJQsqaUBKTNV-1" source="1VWSUXiwOZT1shFSJKdf-87" edge="1">
          <mxGeometry relative="1" as="geometry">
            <mxPoint x="319.5" y="1095" as="sourcePoint" />
            <mxPoint x="362.5" y="1080" as="targetPoint" />
            <Array as="points">
              <mxPoint x="362.5" y="1080" />
            </Array>
          </mxGeometry>
        </mxCell>
        <mxCell id="1VWSUXiwOZT1shFSJKdf-224" value="" style="rounded=0;orthogonalLoop=1;jettySize=auto;html=1;endArrow=halfCircle;endFill=0;endSize=6;strokeWidth=1;sketch=0;exitX=0;exitY=0.25;exitDx=0;exitDy=0;" parent="WIyWlLk6GJQsqaUBKTNV-1" source="1VWSUXiwOZT1shFSJKdf-88" edge="1">
          <mxGeometry relative="1" as="geometry">
            <mxPoint x="404.5" y="1085" as="sourcePoint" />
            <mxPoint x="352.5" y="1023" as="targetPoint" />
          </mxGeometry>
        </mxCell>
        <mxCell id="1VWSUXiwOZT1shFSJKdf-225" value="" style="rounded=0;orthogonalLoop=1;jettySize=auto;html=1;endArrow=none;endFill=0;sketch=0;sourcePerimeterSpacing=0;targetPerimeterSpacing=0;exitX=1;exitY=0.25;exitDx=0;exitDy=0;dashed=1;startArrow=open;startFill=0;" parent="WIyWlLk6GJQsqaUBKTNV-1" source="1VWSUXiwOZT1shFSJKdf-87" edge="1">
          <mxGeometry relative="1" as="geometry">
            <mxPoint x="319.5" y="1095" as="sourcePoint" />
            <mxPoint x="352.5" y="1020" as="targetPoint" />
            <Array as="points">
              <mxPoint x="352.5" y="1020" />
            </Array>
          </mxGeometry>
        </mxCell>
        <mxCell id="1VWSUXiwOZT1shFSJKdf-122" value="Inventory" style="swimlane;fontStyle=0;childLayout=stackLayout;horizontal=1;startSize=30;horizontalStack=0;resizeParent=1;resizeParentMax=0;resizeLast=0;collapsible=1;marginBottom=0;" parent="WIyWlLk6GJQsqaUBKTNV-1" vertex="1" collapsed="1">
          <mxGeometry x="399.5" y="1280" width="80" height="30" as="geometry">
            <mxRectangle x="710" y="930" width="140" height="90" as="alternateBounds" />
          </mxGeometry>
        </mxCell>
        <mxCell id="1VWSUXiwOZT1shFSJKdf-123" value="Item 2" style="text;strokeColor=none;fillColor=none;align=left;verticalAlign=middle;spacingLeft=4;spacingRight=4;overflow=hidden;points=[[0,0.5],[1,0.5]];portConstraint=eastwest;rotatable=0;" parent="1VWSUXiwOZT1shFSJKdf-122" vertex="1">
          <mxGeometry y="30" width="140" height="30" as="geometry" />
        </mxCell>
        <mxCell id="1VWSUXiwOZT1shFSJKdf-124" value="Item 3" style="text;strokeColor=none;fillColor=none;align=left;verticalAlign=middle;spacingLeft=4;spacingRight=4;overflow=hidden;points=[[0,0.5],[1,0.5]];portConstraint=eastwest;rotatable=0;" parent="1VWSUXiwOZT1shFSJKdf-122" vertex="1">
          <mxGeometry y="60" width="140" height="30" as="geometry" />
        </mxCell>
        <mxCell id="1VWSUXiwOZT1shFSJKdf-226" value="" style="rounded=0;orthogonalLoop=1;jettySize=auto;html=1;endArrow=none;endFill=0;entryX=0.5;entryY=0.5;endSize=6;strokeWidth=1;sketch=0;exitX=0;exitY=0.5;exitDx=0;exitDy=0;" parent="WIyWlLk6GJQsqaUBKTNV-1" source="1VWSUXiwOZT1shFSJKdf-118" target="1VWSUXiwOZT1shFSJKdf-122" edge="1">
          <mxGeometry relative="1" as="geometry">
            <mxPoint x="532.5" y="1295" as="sourcePoint" />
            <mxPoint x="372.9999999999998" y="1315" as="targetPoint" />
          </mxGeometry>
        </mxCell>
        <mxCell id="1VWSUXiwOZT1shFSJKdf-125" value="Objects" style="swimlane;fontStyle=0;childLayout=stackLayout;horizontal=1;startSize=30;horizontalStack=0;resizeParent=1;resizeParentMax=0;resizeLast=0;collapsible=1;marginBottom=0;" parent="WIyWlLk6GJQsqaUBKTNV-1" vertex="1" collapsed="1">
          <mxGeometry x="399.5" y="1360" width="80" height="30" as="geometry">
            <mxRectangle x="710" y="930" width="140" height="90" as="alternateBounds" />
          </mxGeometry>
        </mxCell>
        <mxCell id="1VWSUXiwOZT1shFSJKdf-126" value="Item 2" style="text;strokeColor=none;fillColor=none;align=left;verticalAlign=middle;spacingLeft=4;spacingRight=4;overflow=hidden;points=[[0,0.5],[1,0.5]];portConstraint=eastwest;rotatable=0;" parent="1VWSUXiwOZT1shFSJKdf-125" vertex="1">
          <mxGeometry y="30" width="140" height="30" as="geometry" />
        </mxCell>
        <mxCell id="1VWSUXiwOZT1shFSJKdf-127" value="Item 3" style="text;strokeColor=none;fillColor=none;align=left;verticalAlign=middle;spacingLeft=4;spacingRight=4;overflow=hidden;points=[[0,0.5],[1,0.5]];portConstraint=eastwest;rotatable=0;" parent="1VWSUXiwOZT1shFSJKdf-125" vertex="1">
          <mxGeometry y="60" width="140" height="30" as="geometry" />
        </mxCell>
        <mxCell id="1VWSUXiwOZT1shFSJKdf-228" value="" style="ellipse;whiteSpace=wrap;html=1;align=center;aspect=fixed;resizable=0;points=[];outlineConnect=0;sketch=0;" parent="WIyWlLk6GJQsqaUBKTNV-1" vertex="1">
          <mxGeometry x="368" y="1280" width="10" height="10" as="geometry" />
        </mxCell>
        <mxCell id="1VWSUXiwOZT1shFSJKdf-229" value="" style="rounded=0;orthogonalLoop=1;jettySize=auto;html=1;endArrow=none;endFill=0;endSize=6;strokeWidth=1;sketch=0;exitX=0;exitY=0.25;exitDx=0;exitDy=0;startArrow=none;" parent="WIyWlLk6GJQsqaUBKTNV-1" source="1VWSUXiwOZT1shFSJKdf-122" target="1VWSUXiwOZT1shFSJKdf-228" edge="1">
          <mxGeometry relative="1" as="geometry">
            <mxPoint x="409.5" y="1305" as="sourcePoint" />
            <mxPoint x="388.0000000000225" y="1305" as="targetPoint" />
          </mxGeometry>
        </mxCell>
        <mxCell id="1VWSUXiwOZT1shFSJKdf-230" value="" style="rounded=0;orthogonalLoop=1;jettySize=auto;html=1;endArrow=none;endFill=0;sketch=0;sourcePerimeterSpacing=0;targetPerimeterSpacing=0;exitX=1;exitY=0.25;exitDx=0;exitDy=0;dashed=1;startArrow=open;startFill=0;" parent="WIyWlLk6GJQsqaUBKTNV-1" source="1VWSUXiwOZT1shFSJKdf-116" target="1VWSUXiwOZT1shFSJKdf-228" edge="1">
          <mxGeometry relative="1" as="geometry">
            <mxPoint x="324.5" y="1335" as="sourcePoint" />
            <mxPoint x="378.5467053380553" y="1307.2733602120416" as="targetPoint" />
          </mxGeometry>
        </mxCell>
        <mxCell id="REJeJX2luTwk9c8U6sS5-0" value="Player" style="swimlane;fontStyle=1;align=center;verticalAlign=top;childLayout=stackLayout;horizontal=1;startSize=26;horizontalStack=0;resizeParent=1;resizeParentMax=0;resizeLast=0;collapsible=1;marginBottom=0;" parent="WIyWlLk6GJQsqaUBKTNV-1" vertex="1">
          <mxGeometry x="2163" y="904.5" width="160" height="148" as="geometry" />
        </mxCell>
        <mxCell id="REJeJX2luTwk9c8U6sS5-1" value="+ Room ID&#xa;+ Inventory ID" style="text;strokeColor=none;fillColor=none;align=left;verticalAlign=top;spacingLeft=4;spacingRight=4;overflow=hidden;rotatable=0;points=[[0,0.5],[1,0.5]];portConstraint=eastwest;" parent="REJeJX2luTwk9c8U6sS5-0" vertex="1">
          <mxGeometry y="26" width="160" height="54" as="geometry" />
        </mxCell>
        <mxCell id="REJeJX2luTwk9c8U6sS5-2" value="" style="line;strokeWidth=1;fillColor=none;align=left;verticalAlign=middle;spacingTop=-1;spacingLeft=3;spacingRight=3;rotatable=0;labelPosition=right;points=[];portConstraint=eastwest;" parent="REJeJX2luTwk9c8U6sS5-0" vertex="1">
          <mxGeometry y="80" width="160" height="8" as="geometry" />
        </mxCell>
        <mxCell id="REJeJX2luTwk9c8U6sS5-3" value="+ Take Object()&#xa;+ Lay Down Object()&#xa;+ Request room Object List&#xa;" style="text;strokeColor=none;fillColor=none;align=left;verticalAlign=top;spacingLeft=4;spacingRight=4;overflow=hidden;rotatable=0;points=[[0,0.5],[1,0.5]];portConstraint=eastwest;" parent="REJeJX2luTwk9c8U6sS5-0" vertex="1">
          <mxGeometry y="88" width="160" height="60" as="geometry" />
        </mxCell>
        <mxCell id="REJeJX2luTwk9c8U6sS5-12" style="edgeStyle=orthogonalEdgeStyle;rounded=0;orthogonalLoop=1;jettySize=auto;html=1;entryX=0.5;entryY=0;entryDx=0;entryDy=0;" parent="WIyWlLk6GJQsqaUBKTNV-1" source="REJeJX2luTwk9c8U6sS5-8" target="REJeJX2luTwk9c8U6sS5-128" edge="1">
          <mxGeometry relative="1" as="geometry">
            <mxPoint x="2450" y="1089" as="targetPoint" />
          </mxGeometry>
        </mxCell>
        <mxCell id="REJeJX2luTwk9c8U6sS5-8" value="Inventory" style="swimlane;fontStyle=1;align=center;verticalAlign=top;childLayout=stackLayout;horizontal=1;startSize=26;horizontalStack=0;resizeParent=1;resizeParentMax=0;resizeLast=0;collapsible=1;marginBottom=0;" parent="WIyWlLk6GJQsqaUBKTNV-1" vertex="1">
          <mxGeometry x="2380" y="904.5" width="160" height="120" as="geometry" />
        </mxCell>
        <mxCell id="REJeJX2luTwk9c8U6sS5-9" value="+ Object_list: array&lt;object&gt;" style="text;strokeColor=none;fillColor=none;align=left;verticalAlign=top;spacingLeft=4;spacingRight=4;overflow=hidden;rotatable=0;points=[[0,0.5],[1,0.5]];portConstraint=eastwest;" parent="REJeJX2luTwk9c8U6sS5-8" vertex="1">
          <mxGeometry y="26" width="160" height="26" as="geometry" />
        </mxCell>
        <mxCell id="REJeJX2luTwk9c8U6sS5-10" value="" style="line;strokeWidth=1;fillColor=none;align=left;verticalAlign=middle;spacingTop=-1;spacingLeft=3;spacingRight=3;rotatable=0;labelPosition=right;points=[];portConstraint=eastwest;" parent="REJeJX2luTwk9c8U6sS5-8" vertex="1">
          <mxGeometry y="52" width="160" height="8" as="geometry" />
        </mxCell>
        <mxCell id="REJeJX2luTwk9c8U6sS5-11" value="List Object()&#xa;Give Object()&#xa;Receive Object()" style="text;strokeColor=none;fillColor=none;align=left;verticalAlign=top;spacingLeft=4;spacingRight=4;overflow=hidden;rotatable=0;points=[[0,0.5],[1,0.5]];portConstraint=eastwest;" parent="REJeJX2luTwk9c8U6sS5-8" vertex="1">
          <mxGeometry y="60" width="160" height="60" as="geometry" />
        </mxCell>
        <mxCell id="REJeJX2luTwk9c8U6sS5-13" style="edgeStyle=orthogonalEdgeStyle;rounded=0;orthogonalLoop=1;jettySize=auto;html=1;" parent="WIyWlLk6GJQsqaUBKTNV-1" source="REJeJX2luTwk9c8U6sS5-1" target="REJeJX2luTwk9c8U6sS5-9" edge="1">
          <mxGeometry relative="1" as="geometry" />
        </mxCell>
        <mxCell id="REJeJX2luTwk9c8U6sS5-16" value="" style="shape=module;align=left;spacingLeft=20;align=center;verticalAlign=top;" parent="WIyWlLk6GJQsqaUBKTNV-1" vertex="1">
          <mxGeometry x="2561.5" y="867.5" width="32" height="50" as="geometry" />
        </mxCell>
        <mxCell id="REJeJX2luTwk9c8U6sS5-17" value="" style="html=1;" parent="WIyWlLk6GJQsqaUBKTNV-1" vertex="1">
          <mxGeometry x="2087" y="963.5" width="30" height="30" as="geometry" />
        </mxCell>
        <mxCell id="REJeJX2luTwk9c8U6sS5-18" value="" style="rounded=0;orthogonalLoop=1;jettySize=auto;html=1;endArrow=halfCircle;endFill=0;endSize=6;strokeWidth=1;sketch=0;exitX=0;exitY=0.5;exitDx=0;exitDy=0;" parent="WIyWlLk6GJQsqaUBKTNV-1" source="REJeJX2luTwk9c8U6sS5-17" target="REJeJX2luTwk9c8U6sS5-52" edge="1">
          <mxGeometry relative="1" as="geometry">
            <mxPoint x="2212" y="978.5" as="sourcePoint" />
            <mxPoint x="1930" y="943.5" as="targetPoint" />
            <Array as="points">
              <mxPoint x="2060" y="946.5" />
            </Array>
          </mxGeometry>
        </mxCell>
        <mxCell id="REJeJX2luTwk9c8U6sS5-19" value="Take Object" style="edgeLabel;html=1;align=center;verticalAlign=middle;resizable=0;points=[];" parent="REJeJX2luTwk9c8U6sS5-18" vertex="1" connectable="0">
          <mxGeometry x="0.3936" y="2" relative="1" as="geometry">
            <mxPoint x="26" as="offset" />
          </mxGeometry>
        </mxCell>
        <mxCell id="REJeJX2luTwk9c8U6sS5-20" value="" style="rounded=0;orthogonalLoop=1;jettySize=auto;html=1;endArrow=halfCircle;endFill=0;endSize=6;strokeWidth=1;sketch=0;exitX=0;exitY=0.5;exitDx=0;exitDy=0;" parent="WIyWlLk6GJQsqaUBKTNV-1" source="REJeJX2luTwk9c8U6sS5-17" target="REJeJX2luTwk9c8U6sS5-55" edge="1">
          <mxGeometry relative="1" as="geometry">
            <mxPoint x="2097" y="973.5" as="sourcePoint" />
            <mxPoint x="1930" y="993.5" as="targetPoint" />
            <Array as="points">
              <mxPoint x="2060" y="988.5" />
            </Array>
          </mxGeometry>
        </mxCell>
        <mxCell id="REJeJX2luTwk9c8U6sS5-21" value="Lay Down Object" style="edgeLabel;html=1;align=center;verticalAlign=middle;resizable=0;points=[];" parent="REJeJX2luTwk9c8U6sS5-20" vertex="1" connectable="0">
          <mxGeometry x="0.3936" y="2" relative="1" as="geometry">
            <mxPoint x="26" as="offset" />
          </mxGeometry>
        </mxCell>
        <mxCell id="REJeJX2luTwk9c8U6sS5-22" value="" style="rounded=0;orthogonalLoop=1;jettySize=auto;html=1;endArrow=halfCircle;endFill=0;endSize=6;strokeWidth=1;sketch=0;exitX=0;exitY=0.5;exitDx=0;exitDy=0;" parent="WIyWlLk6GJQsqaUBKTNV-1" source="REJeJX2luTwk9c8U6sS5-17" target="REJeJX2luTwk9c8U6sS5-58" edge="1">
          <mxGeometry relative="1" as="geometry">
            <mxPoint x="2097" y="988.5" as="sourcePoint" />
            <mxPoint x="1930" y="1023.5" as="targetPoint" />
            <Array as="points">
              <mxPoint x="2070" y="1023.5" />
            </Array>
          </mxGeometry>
        </mxCell>
        <mxCell id="REJeJX2luTwk9c8U6sS5-23" value="Request room Object list" style="edgeLabel;html=1;align=center;verticalAlign=middle;resizable=0;points=[];" parent="REJeJX2luTwk9c8U6sS5-22" vertex="1" connectable="0">
          <mxGeometry x="0.3936" y="2" relative="1" as="geometry">
            <mxPoint x="26" as="offset" />
          </mxGeometry>
        </mxCell>
        <mxCell id="REJeJX2luTwk9c8U6sS5-27" value="ROOM" style="html=1;align=left;verticalAlign=top;" parent="WIyWlLk6GJQsqaUBKTNV-1" vertex="1">
          <mxGeometry x="1290" y="847.5" width="450" height="347.5" as="geometry" />
        </mxCell>
        <mxCell id="REJeJX2luTwk9c8U6sS5-28" value="" style="shape=module;align=left;spacingLeft=20;align=center;verticalAlign=top;" parent="WIyWlLk6GJQsqaUBKTNV-1" vertex="1">
          <mxGeometry x="1700" y="857.5" width="32" height="50" as="geometry" />
        </mxCell>
        <mxCell id="REJeJX2luTwk9c8U6sS5-29" value="Room" style="swimlane;fontStyle=1;align=center;verticalAlign=top;childLayout=stackLayout;horizontal=1;startSize=26;horizontalStack=0;resizeParent=1;resizeParentMax=0;resizeLast=0;collapsible=1;marginBottom=0;" parent="WIyWlLk6GJQsqaUBKTNV-1" vertex="1">
          <mxGeometry x="1310" y="899.5" width="160" height="34" as="geometry" />
        </mxCell>
        <mxCell id="REJeJX2luTwk9c8U6sS5-31" value="" style="line;strokeWidth=1;fillColor=none;align=left;verticalAlign=middle;spacingTop=-1;spacingLeft=3;spacingRight=3;rotatable=0;labelPosition=right;points=[];portConstraint=eastwest;" parent="REJeJX2luTwk9c8U6sS5-29" vertex="1">
          <mxGeometry y="26" width="160" height="8" as="geometry" />
        </mxCell>
        <mxCell id="REJeJX2luTwk9c8U6sS5-33" value="Object" style="swimlane;fontStyle=1;align=center;verticalAlign=top;childLayout=stackLayout;horizontal=1;startSize=26;horizontalStack=0;resizeParent=1;resizeParentMax=0;resizeLast=0;collapsible=1;marginBottom=0;" parent="WIyWlLk6GJQsqaUBKTNV-1" vertex="1">
          <mxGeometry x="1515" y="1020" width="160" height="160" as="geometry" />
        </mxCell>
        <mxCell id="REJeJX2luTwk9c8U6sS5-34" value="+ name: string&#xa;+ Value: float&#xa;+ Enchantments: array&lt;&gt;&#xa;+ Durability/stats: array&lt;&gt;" style="text;strokeColor=none;fillColor=none;align=left;verticalAlign=top;spacingLeft=4;spacingRight=4;overflow=hidden;rotatable=0;points=[[0,0.5],[1,0.5]];portConstraint=eastwest;" parent="REJeJX2luTwk9c8U6sS5-33" vertex="1">
          <mxGeometry y="26" width="160" height="74" as="geometry" />
        </mxCell>
        <mxCell id="REJeJX2luTwk9c8U6sS5-35" value="" style="line;strokeWidth=1;fillColor=none;align=left;verticalAlign=middle;spacingTop=-1;spacingLeft=3;spacingRight=3;rotatable=0;labelPosition=right;points=[];portConstraint=eastwest;" parent="REJeJX2luTwk9c8U6sS5-33" vertex="1">
          <mxGeometry y="100" width="160" height="8" as="geometry" />
        </mxCell>
        <mxCell id="REJeJX2luTwk9c8U6sS5-36" value="+ get info(): print&#xa;+ Take Damage()&#xa;+ Enchant()" style="text;strokeColor=none;fillColor=none;align=left;verticalAlign=top;spacingLeft=4;spacingRight=4;overflow=hidden;rotatable=0;points=[[0,0.5],[1,0.5]];portConstraint=eastwest;" parent="REJeJX2luTwk9c8U6sS5-33" vertex="1">
          <mxGeometry y="108" width="160" height="52" as="geometry" />
        </mxCell>
        <mxCell id="REJeJX2luTwk9c8U6sS5-46" style="edgeStyle=none;rounded=0;orthogonalLoop=1;jettySize=auto;html=1;" parent="WIyWlLk6GJQsqaUBKTNV-1" source="REJeJX2luTwk9c8U6sS5-37" target="REJeJX2luTwk9c8U6sS5-33" edge="1">
          <mxGeometry relative="1" as="geometry" />
        </mxCell>
        <mxCell id="REJeJX2luTwk9c8U6sS5-37" value="Inventory" style="swimlane;fontStyle=1;align=center;verticalAlign=top;childLayout=stackLayout;horizontal=1;startSize=26;horizontalStack=0;resizeParent=1;resizeParentMax=0;resizeLast=0;collapsible=1;marginBottom=0;" parent="WIyWlLk6GJQsqaUBKTNV-1" vertex="1">
          <mxGeometry x="1515" y="877.5" width="160" height="120" as="geometry" />
        </mxCell>
        <mxCell id="REJeJX2luTwk9c8U6sS5-38" value="+ Object_list: array&lt;object&gt;" style="text;strokeColor=none;fillColor=none;align=left;verticalAlign=top;spacingLeft=4;spacingRight=4;overflow=hidden;rotatable=0;points=[[0,0.5],[1,0.5]];portConstraint=eastwest;" parent="REJeJX2luTwk9c8U6sS5-37" vertex="1">
          <mxGeometry y="26" width="160" height="26" as="geometry" />
        </mxCell>
        <mxCell id="REJeJX2luTwk9c8U6sS5-39" value="" style="line;strokeWidth=1;fillColor=none;align=left;verticalAlign=middle;spacingTop=-1;spacingLeft=3;spacingRight=3;rotatable=0;labelPosition=right;points=[];portConstraint=eastwest;" parent="REJeJX2luTwk9c8U6sS5-37" vertex="1">
          <mxGeometry y="52" width="160" height="8" as="geometry" />
        </mxCell>
        <mxCell id="REJeJX2luTwk9c8U6sS5-40" value="List Object()&#xa;Give Object()&#xa;Receive Object()" style="text;strokeColor=none;fillColor=none;align=left;verticalAlign=top;spacingLeft=4;spacingRight=4;overflow=hidden;rotatable=0;points=[[0,0.5],[1,0.5]];portConstraint=eastwest;" parent="REJeJX2luTwk9c8U6sS5-37" vertex="1">
          <mxGeometry y="60" width="160" height="60" as="geometry" />
        </mxCell>
        <mxCell id="REJeJX2luTwk9c8U6sS5-93" style="edgeStyle=none;rounded=0;orthogonalLoop=1;jettySize=auto;html=1;entryX=0.5;entryY=1;entryDx=0;entryDy=0;" parent="WIyWlLk6GJQsqaUBKTNV-1" source="REJeJX2luTwk9c8U6sS5-41" target="REJeJX2luTwk9c8U6sS5-29" edge="1">
          <mxGeometry relative="1" as="geometry">
            <mxPoint x="1280" y="987.5" as="targetPoint" />
          </mxGeometry>
        </mxCell>
        <mxCell id="REJeJX2luTwk9c8U6sS5-41" value="Special Room" style="swimlane;fontStyle=1;align=center;verticalAlign=top;childLayout=stackLayout;horizontal=1;startSize=26;horizontalStack=0;resizeParent=1;resizeParentMax=0;resizeLast=0;collapsible=1;marginBottom=0;" parent="WIyWlLk6GJQsqaUBKTNV-1" vertex="1">
          <mxGeometry x="1310" y="1065" width="160" height="34" as="geometry" />
        </mxCell>
        <mxCell id="REJeJX2luTwk9c8U6sS5-43" value="" style="line;strokeWidth=1;fillColor=none;align=left;verticalAlign=middle;spacingTop=-1;spacingLeft=3;spacingRight=3;rotatable=0;labelPosition=right;points=[];portConstraint=eastwest;" parent="REJeJX2luTwk9c8U6sS5-41" vertex="1">
          <mxGeometry y="26" width="160" height="8" as="geometry" />
        </mxCell>
        <mxCell id="REJeJX2luTwk9c8U6sS5-45" style="edgeStyle=none;rounded=0;orthogonalLoop=1;jettySize=auto;html=1;entryX=0;entryY=0.5;entryDx=0;entryDy=0;" parent="WIyWlLk6GJQsqaUBKTNV-1" source="REJeJX2luTwk9c8U6sS5-29" target="REJeJX2luTwk9c8U6sS5-38" edge="1">
          <mxGeometry relative="1" as="geometry">
            <mxPoint x="1360" y="916.5" as="sourcePoint" />
          </mxGeometry>
        </mxCell>
        <mxCell id="REJeJX2luTwk9c8U6sS5-49" value="" style="html=1;" parent="WIyWlLk6GJQsqaUBKTNV-1" vertex="1">
          <mxGeometry x="1730" y="972.5" width="30" height="30" as="geometry" />
        </mxCell>
        <mxCell id="REJeJX2luTwk9c8U6sS5-50" value="" style="rounded=0;orthogonalLoop=1;jettySize=auto;html=1;endArrow=none;endFill=0;sketch=0;sourcePerimeterSpacing=0;targetPerimeterSpacing=0;exitX=1;exitY=0.25;exitDx=0;exitDy=0;" parent="WIyWlLk6GJQsqaUBKTNV-1" source="REJeJX2luTwk9c8U6sS5-49" target="REJeJX2luTwk9c8U6sS5-52" edge="1">
          <mxGeometry relative="1" as="geometry">
            <mxPoint x="1865" y="1327" as="sourcePoint" />
            <Array as="points">
              <mxPoint x="1800" y="947.5" />
            </Array>
          </mxGeometry>
        </mxCell>
        <mxCell id="REJeJX2luTwk9c8U6sS5-51" value="Give Object" style="edgeLabel;html=1;align=center;verticalAlign=middle;resizable=0;points=[];" parent="REJeJX2luTwk9c8U6sS5-50" vertex="1" connectable="0">
          <mxGeometry x="0.3968" relative="1" as="geometry">
            <mxPoint x="1" as="offset" />
          </mxGeometry>
        </mxCell>
        <mxCell id="REJeJX2luTwk9c8U6sS5-52" value="" style="ellipse;whiteSpace=wrap;html=1;align=center;aspect=fixed;resizable=0;points=[];outlineConnect=0;sketch=0;" parent="WIyWlLk6GJQsqaUBKTNV-1" vertex="1">
          <mxGeometry x="1900" y="941.5" width="10" height="10" as="geometry" />
        </mxCell>
        <mxCell id="REJeJX2luTwk9c8U6sS5-55" value="" style="ellipse;whiteSpace=wrap;html=1;align=center;aspect=fixed;resizable=0;points=[];outlineConnect=0;sketch=0;" parent="WIyWlLk6GJQsqaUBKTNV-1" vertex="1">
          <mxGeometry x="1900" y="983.5" width="10" height="10" as="geometry" />
        </mxCell>
        <mxCell id="REJeJX2luTwk9c8U6sS5-56" value="" style="rounded=0;orthogonalLoop=1;jettySize=auto;html=1;endArrow=none;endFill=0;sketch=0;sourcePerimeterSpacing=0;" parent="WIyWlLk6GJQsqaUBKTNV-1" target="REJeJX2luTwk9c8U6sS5-55" edge="1">
          <mxGeometry relative="1" as="geometry">
            <mxPoint x="1760" y="987.5" as="sourcePoint" />
            <mxPoint x="1725" y="1372" as="targetPoint" />
            <Array as="points">
              <mxPoint x="1820" y="987.5" />
            </Array>
          </mxGeometry>
        </mxCell>
        <mxCell id="REJeJX2luTwk9c8U6sS5-68" value="Receive Object" style="edgeLabel;html=1;align=center;verticalAlign=middle;resizable=0;points=[];" parent="REJeJX2luTwk9c8U6sS5-56" vertex="1" connectable="0">
          <mxGeometry x="0.3389" relative="1" as="geometry">
            <mxPoint as="offset" />
          </mxGeometry>
        </mxCell>
        <mxCell id="REJeJX2luTwk9c8U6sS5-58" value="" style="ellipse;whiteSpace=wrap;html=1;align=center;aspect=fixed;resizable=0;points=[];outlineConnect=0;sketch=0;" parent="WIyWlLk6GJQsqaUBKTNV-1" vertex="1">
          <mxGeometry x="1900" y="1022.5" width="10" height="10" as="geometry" />
        </mxCell>
        <mxCell id="REJeJX2luTwk9c8U6sS5-66" value="" style="rounded=0;orthogonalLoop=1;jettySize=auto;html=1;endArrow=none;endFill=0;sketch=0;sourcePerimeterSpacing=0;exitX=1;exitY=0.75;exitDx=0;exitDy=0;" parent="WIyWlLk6GJQsqaUBKTNV-1" source="REJeJX2luTwk9c8U6sS5-49" target="REJeJX2luTwk9c8U6sS5-58" edge="1">
          <mxGeometry x="-0.0949" relative="1" as="geometry">
            <mxPoint x="1702" y="1000" as="sourcePoint" />
            <mxPoint x="1930" y="1027.5" as="targetPoint" />
            <Array as="points">
              <mxPoint x="1790" y="1027.5" />
            </Array>
            <mxPoint x="1" as="offset" />
          </mxGeometry>
        </mxCell>
        <mxCell id="REJeJX2luTwk9c8U6sS5-67" value="List Object" style="edgeLabel;html=1;align=center;verticalAlign=middle;resizable=0;points=[];" parent="REJeJX2luTwk9c8U6sS5-66" vertex="1" connectable="0">
          <mxGeometry x="0.3791" y="-2" relative="1" as="geometry">
            <mxPoint x="-12" y="-2" as="offset" />
          </mxGeometry>
        </mxCell>
        <mxCell id="REJeJX2luTwk9c8U6sS5-73" value="Mobile Client" style="html=1;align=left;verticalAlign=top;" parent="WIyWlLk6GJQsqaUBKTNV-1" vertex="1">
          <mxGeometry x="1740" y="665" width="178" height="120" as="geometry" />
        </mxCell>
        <mxCell id="REJeJX2luTwk9c8U6sS5-74" value="" style="shape=module;align=left;spacingLeft=20;align=center;verticalAlign=top;" parent="WIyWlLk6GJQsqaUBKTNV-1" vertex="1">
          <mxGeometry x="1880" y="672.5" width="32" height="50" as="geometry" />
        </mxCell>
        <mxCell id="REJeJX2luTwk9c8U6sS5-92" style="edgeStyle=none;rounded=0;orthogonalLoop=1;jettySize=auto;html=1;entryX=0.5;entryY=0;entryDx=0;entryDy=0;" parent="WIyWlLk6GJQsqaUBKTNV-1" source="REJeJX2luTwk9c8U6sS5-75" target="REJeJX2luTwk9c8U6sS5-0" edge="1">
          <mxGeometry relative="1" as="geometry">
            <mxPoint x="2240" y="867.5" as="sourcePoint" />
          </mxGeometry>
        </mxCell>
        <mxCell id="REJeJX2luTwk9c8U6sS5-75" value="" style="html=1;" parent="WIyWlLk6GJQsqaUBKTNV-1" vertex="1">
          <mxGeometry x="2228" y="837.5" width="30" height="30" as="geometry" />
        </mxCell>
        <mxCell id="REJeJX2luTwk9c8U6sS5-80" value="" style="rounded=0;orthogonalLoop=1;jettySize=auto;html=1;endArrow=halfCircle;endFill=0;endSize=6;strokeWidth=1;sketch=0;exitX=0.5;exitY=0;exitDx=0;exitDy=0;" parent="WIyWlLk6GJQsqaUBKTNV-1" source="REJeJX2luTwk9c8U6sS5-75" target="REJeJX2luTwk9c8U6sS5-89" edge="1">
          <mxGeometry relative="1" as="geometry">
            <mxPoint x="1977" y="683.5" as="sourcePoint" />
            <mxPoint x="1810" y="718.5" as="targetPoint" />
            <Array as="points" />
          </mxGeometry>
        </mxCell>
        <mxCell id="REJeJX2luTwk9c8U6sS5-81" value="Request room item list" style="edgeLabel;html=1;align=center;verticalAlign=middle;resizable=0;points=[];" parent="REJeJX2luTwk9c8U6sS5-80" vertex="1" connectable="0">
          <mxGeometry x="0.3936" y="2" relative="1" as="geometry">
            <mxPoint x="24" y="9" as="offset" />
          </mxGeometry>
        </mxCell>
        <mxCell id="REJeJX2luTwk9c8U6sS5-82" value="" style="html=1;" parent="WIyWlLk6GJQsqaUBKTNV-1" vertex="1">
          <mxGeometry x="1898" y="735" width="30" height="30" as="geometry" />
        </mxCell>
        <mxCell id="REJeJX2luTwk9c8U6sS5-89" value="" style="ellipse;whiteSpace=wrap;html=1;align=center;aspect=fixed;resizable=0;points=[];outlineConnect=0;sketch=0;" parent="WIyWlLk6GJQsqaUBKTNV-1" vertex="1">
          <mxGeometry x="2170" y="712.5" width="10" height="10" as="geometry" />
        </mxCell>
        <mxCell id="REJeJX2luTwk9c8U6sS5-90" value="" style="rounded=0;orthogonalLoop=1;jettySize=auto;html=1;endArrow=none;endFill=0;sketch=0;sourcePerimeterSpacing=0;exitX=1;exitY=0;exitDx=0;exitDy=0;" parent="WIyWlLk6GJQsqaUBKTNV-1" source="REJeJX2luTwk9c8U6sS5-82" target="REJeJX2luTwk9c8U6sS5-89" edge="1">
          <mxGeometry x="-0.0949" relative="1" as="geometry">
            <mxPoint x="1582" y="695" as="sourcePoint" />
            <mxPoint x="1810" y="722.5" as="targetPoint" />
            <Array as="points" />
            <mxPoint x="1" as="offset" />
          </mxGeometry>
        </mxCell>
        <mxCell id="REJeJX2luTwk9c8U6sS5-91" value="Request room item list" style="edgeLabel;html=1;align=center;verticalAlign=middle;resizable=0;points=[];" parent="REJeJX2luTwk9c8U6sS5-90" vertex="1" connectable="0">
          <mxGeometry x="0.3791" y="-2" relative="1" as="geometry">
            <mxPoint x="-1" y="-18" as="offset" />
          </mxGeometry>
        </mxCell>
        <mxCell id="REJeJX2luTwk9c8U6sS5-128" value="Object" style="swimlane;fontStyle=1;align=center;verticalAlign=top;childLayout=stackLayout;horizontal=1;startSize=26;horizontalStack=0;resizeParent=1;resizeParentMax=0;resizeLast=0;collapsible=1;marginBottom=0;" parent="WIyWlLk6GJQsqaUBKTNV-1" vertex="1">
          <mxGeometry x="2380" y="1052.5" width="160" height="160" as="geometry" />
        </mxCell>
        <mxCell id="REJeJX2luTwk9c8U6sS5-129" value="+ name: string&#xa;+ Value: float&#xa;+ Enchantments: array&lt;&gt;&#xa;+ Durability/stats: array&lt;&gt;" style="text;strokeColor=none;fillColor=none;align=left;verticalAlign=top;spacingLeft=4;spacingRight=4;overflow=hidden;rotatable=0;points=[[0,0.5],[1,0.5]];portConstraint=eastwest;" parent="REJeJX2luTwk9c8U6sS5-128" vertex="1">
          <mxGeometry y="26" width="160" height="74" as="geometry" />
        </mxCell>
        <mxCell id="REJeJX2luTwk9c8U6sS5-130" value="" style="line;strokeWidth=1;fillColor=none;align=left;verticalAlign=middle;spacingTop=-1;spacingLeft=3;spacingRight=3;rotatable=0;labelPosition=right;points=[];portConstraint=eastwest;" parent="REJeJX2luTwk9c8U6sS5-128" vertex="1">
          <mxGeometry y="100" width="160" height="8" as="geometry" />
        </mxCell>
        <mxCell id="REJeJX2luTwk9c8U6sS5-131" value="+ get info(): print&#xa;+ Take Damage()&#xa;+ Enchant()" style="text;strokeColor=none;fillColor=none;align=left;verticalAlign=top;spacingLeft=4;spacingRight=4;overflow=hidden;rotatable=0;points=[[0,0.5],[1,0.5]];portConstraint=eastwest;" parent="REJeJX2luTwk9c8U6sS5-128" vertex="1">
          <mxGeometry y="108" width="160" height="52" as="geometry" />
        </mxCell>
        <mxCell id="REJeJX2luTwk9c8U6sS5-132" value="" style="rounded=0;orthogonalLoop=1;jettySize=auto;html=1;endArrow=halfCircle;endFill=0;endSize=6;strokeWidth=1;sketch=0;exitX=0;exitY=0;exitDx=0;exitDy=0;" parent="WIyWlLk6GJQsqaUBKTNV-1" source="REJeJX2luTwk9c8U6sS5-75" target="REJeJX2luTwk9c8U6sS5-134" edge="1">
          <mxGeometry relative="1" as="geometry">
            <mxPoint x="2250" y="835" as="sourcePoint" />
            <mxPoint x="2250" y="765" as="targetPoint" />
            <Array as="points" />
          </mxGeometry>
        </mxCell>
        <mxCell id="REJeJX2luTwk9c8U6sS5-133" value="Lay down Object" style="edgeLabel;html=1;align=center;verticalAlign=middle;resizable=0;points=[];" parent="REJeJX2luTwk9c8U6sS5-132" vertex="1" connectable="0">
          <mxGeometry x="0.3936" y="2" relative="1" as="geometry">
            <mxPoint x="7" y="17" as="offset" />
          </mxGeometry>
        </mxCell>
        <mxCell id="REJeJX2luTwk9c8U6sS5-139" value="Take Object" style="edgeLabel;html=1;align=center;verticalAlign=middle;resizable=0;points=[];" parent="WIyWlLk6GJQsqaUBKTNV-1" vertex="1" connectable="0">
          <mxGeometry x="2030.0019615403057" y="760.0006059446972" as="geometry">
            <mxPoint x="2" y="-1" as="offset" />
          </mxGeometry>
        </mxCell>
        <mxCell id="REJeJX2luTwk9c8U6sS5-140" value="" style="rounded=0;orthogonalLoop=1;jettySize=auto;html=1;endArrow=halfCircle;endFill=0;endSize=6;strokeWidth=1;sketch=0;exitX=0.25;exitY=0;exitDx=0;exitDy=0;" parent="WIyWlLk6GJQsqaUBKTNV-1" source="REJeJX2luTwk9c8U6sS5-75" target="REJeJX2luTwk9c8U6sS5-145" edge="1">
          <mxGeometry relative="1" as="geometry">
            <mxPoint x="2270.0000000000005" y="845.0000000000002" as="sourcePoint" />
            <mxPoint x="2380" y="774" as="targetPoint" />
            <Array as="points" />
          </mxGeometry>
        </mxCell>
        <mxCell id="REJeJX2luTwk9c8U6sS5-141" value="Take Object" style="edgeLabel;html=1;align=center;verticalAlign=middle;resizable=0;points=[];" parent="REJeJX2luTwk9c8U6sS5-140" vertex="1" connectable="0">
          <mxGeometry x="0.3936" y="2" relative="1" as="geometry">
            <mxPoint x="7" y="17" as="offset" />
          </mxGeometry>
        </mxCell>
        <mxCell id="REJeJX2luTwk9c8U6sS5-142" value="" style="rounded=0;orthogonalLoop=1;jettySize=auto;html=1;endArrow=none;endFill=0;sketch=0;exitX=1;exitY=1;exitDx=0;exitDy=0;startArrow=none;" parent="WIyWlLk6GJQsqaUBKTNV-1" source="REJeJX2luTwk9c8U6sS5-134" target="REJeJX2luTwk9c8U6sS5-134" edge="1">
          <mxGeometry x="-0.0949" relative="1" as="geometry">
            <mxPoint x="2260.4999999999995" y="705.0000000000002" as="sourcePoint" />
            <mxPoint x="2250" y="765" as="targetPoint" />
            <Array as="points" />
            <mxPoint x="1" as="offset" />
          </mxGeometry>
        </mxCell>
        <mxCell id="REJeJX2luTwk9c8U6sS5-143" value="" style="rounded=0;orthogonalLoop=1;jettySize=auto;html=1;endArrow=none;endFill=0;sketch=0;exitX=1;exitY=1;exitDx=0;exitDy=0;startArrow=none;" parent="WIyWlLk6GJQsqaUBKTNV-1" source="REJeJX2luTwk9c8U6sS5-145" target="REJeJX2luTwk9c8U6sS5-145" edge="1">
          <mxGeometry x="-0.0949" relative="1" as="geometry">
            <mxPoint x="2257.9999999999995" y="695.0000000000002" as="sourcePoint" />
            <mxPoint x="2380" y="775" as="targetPoint" />
            <Array as="points" />
            <mxPoint x="1" as="offset" />
          </mxGeometry>
        </mxCell>
        <mxCell id="REJeJX2luTwk9c8U6sS5-134" value="" style="ellipse;whiteSpace=wrap;html=1;align=center;aspect=fixed;resizable=0;points=[];outlineConnect=0;sketch=0;" parent="WIyWlLk6GJQsqaUBKTNV-1" vertex="1">
          <mxGeometry x="2000" y="810" width="10" height="10" as="geometry" />
        </mxCell>
        <mxCell id="REJeJX2luTwk9c8U6sS5-144" value="Lay down Object" style="rounded=0;orthogonalLoop=1;jettySize=auto;html=1;endArrow=none;endFill=0;sketch=0;sourcePerimeterSpacing=0;exitX=0.75;exitY=1;exitDx=0;exitDy=0;" parent="WIyWlLk6GJQsqaUBKTNV-1" source="REJeJX2luTwk9c8U6sS5-82" target="REJeJX2luTwk9c8U6sS5-134" edge="1">
          <mxGeometry x="0.2964" y="-3" relative="1" as="geometry">
            <mxPoint x="2250.4999999999995" y="695.0000000000002" as="sourcePoint" />
            <mxPoint x="2250.0000000000005" y="765.0000000000002" as="targetPoint" />
            <Array as="points" />
            <mxPoint as="offset" />
          </mxGeometry>
        </mxCell>
        <mxCell id="REJeJX2luTwk9c8U6sS5-145" value="" style="ellipse;whiteSpace=wrap;html=1;align=center;aspect=fixed;resizable=0;points=[];outlineConnect=0;sketch=0;" parent="WIyWlLk6GJQsqaUBKTNV-1" vertex="1">
          <mxGeometry x="2103.5" y="755" width="10" height="10" as="geometry" />
        </mxCell>
        <mxCell id="REJeJX2luTwk9c8U6sS5-148" value="" style="rounded=0;orthogonalLoop=1;jettySize=auto;html=1;endArrow=none;endFill=0;sketch=0;sourcePerimeterSpacing=0;exitX=1;exitY=0.5;exitDx=0;exitDy=0;" parent="WIyWlLk6GJQsqaUBKTNV-1" source="REJeJX2luTwk9c8U6sS5-82" target="REJeJX2luTwk9c8U6sS5-145" edge="1">
          <mxGeometry x="-0.0949" relative="1" as="geometry">
            <mxPoint x="1910" y="745" as="sourcePoint" />
            <mxPoint x="2150.0000000000005" y="705.0000000000002" as="targetPoint" />
            <Array as="points" />
            <mxPoint x="1" as="offset" />
          </mxGeometry>
        </mxCell>
        <mxCell id="cA6XABB9ZMt0WS9synM3-0" value="PLAYER" style="html=1;align=left;verticalAlign=top;" parent="WIyWlLk6GJQsqaUBKTNV-1" vertex="1">
          <mxGeometry x="1963.5" y="1487.5" width="506.5" height="367.5" as="geometry" />
        </mxCell>
        <mxCell id="cA6XABB9ZMt0WS9synM3-1" value="Player" style="swimlane;fontStyle=1;align=center;verticalAlign=top;childLayout=stackLayout;horizontal=1;startSize=26;horizontalStack=0;resizeParent=1;resizeParentMax=0;resizeLast=0;collapsible=1;marginBottom=0;" parent="WIyWlLk6GJQsqaUBKTNV-1" vertex="1">
          <mxGeometry x="2022" y="1530.5" width="160" height="148" as="geometry" />
        </mxCell>
        <mxCell id="cA6XABB9ZMt0WS9synM3-2" value="+ Room ID&#xa;+ Inventory ID" style="text;strokeColor=none;fillColor=none;align=left;verticalAlign=top;spacingLeft=4;spacingRight=4;overflow=hidden;rotatable=0;points=[[0,0.5],[1,0.5]];portConstraint=eastwest;" parent="cA6XABB9ZMt0WS9synM3-1" vertex="1">
          <mxGeometry y="26" width="160" height="54" as="geometry" />
        </mxCell>
        <mxCell id="cA6XABB9ZMt0WS9synM3-3" value="" style="line;strokeWidth=1;fillColor=none;align=left;verticalAlign=middle;spacingTop=-1;spacingLeft=3;spacingRight=3;rotatable=0;labelPosition=right;points=[];portConstraint=eastwest;" parent="cA6XABB9ZMt0WS9synM3-1" vertex="1">
          <mxGeometry y="80" width="160" height="8" as="geometry" />
        </mxCell>
        <mxCell id="cA6XABB9ZMt0WS9synM3-4" value="+ Take Object()&#xa;+ Lay Down Object()&#xa;+ Request room Object List&#xa;" style="text;strokeColor=none;fillColor=none;align=left;verticalAlign=top;spacingLeft=4;spacingRight=4;overflow=hidden;rotatable=0;points=[[0,0.5],[1,0.5]];portConstraint=eastwest;" parent="cA6XABB9ZMt0WS9synM3-1" vertex="1">
          <mxGeometry y="88" width="160" height="60" as="geometry" />
        </mxCell>
        <mxCell id="cA6XABB9ZMt0WS9synM3-5" style="edgeStyle=orthogonalEdgeStyle;rounded=0;orthogonalLoop=1;jettySize=auto;html=1;entryX=0.5;entryY=0;entryDx=0;entryDy=0;" parent="WIyWlLk6GJQsqaUBKTNV-1" source="cA6XABB9ZMt0WS9synM3-6" target="cA6XABB9ZMt0WS9synM3-56" edge="1">
          <mxGeometry relative="1" as="geometry">
            <mxPoint x="2310" y="1729" as="targetPoint" />
          </mxGeometry>
        </mxCell>
        <mxCell id="cA6XABB9ZMt0WS9synM3-6" value="Inventory" style="swimlane;fontStyle=1;align=center;verticalAlign=top;childLayout=stackLayout;horizontal=1;startSize=26;horizontalStack=0;resizeParent=1;resizeParentMax=0;resizeLast=0;collapsible=1;marginBottom=0;" parent="WIyWlLk6GJQsqaUBKTNV-1" vertex="1">
          <mxGeometry x="2240" y="1544.5" width="160" height="120" as="geometry" />
        </mxCell>
        <mxCell id="cA6XABB9ZMt0WS9synM3-7" value="+ Object_list: array&lt;object&gt;" style="text;strokeColor=none;fillColor=none;align=left;verticalAlign=top;spacingLeft=4;spacingRight=4;overflow=hidden;rotatable=0;points=[[0,0.5],[1,0.5]];portConstraint=eastwest;" parent="cA6XABB9ZMt0WS9synM3-6" vertex="1">
          <mxGeometry y="26" width="160" height="26" as="geometry" />
        </mxCell>
        <mxCell id="cA6XABB9ZMt0WS9synM3-8" value="" style="line;strokeWidth=1;fillColor=none;align=left;verticalAlign=middle;spacingTop=-1;spacingLeft=3;spacingRight=3;rotatable=0;labelPosition=right;points=[];portConstraint=eastwest;" parent="cA6XABB9ZMt0WS9synM3-6" vertex="1">
          <mxGeometry y="52" width="160" height="8" as="geometry" />
        </mxCell>
        <mxCell id="cA6XABB9ZMt0WS9synM3-9" value="List Object()&#xa;Give Object()&#xa;Receive Object()" style="text;strokeColor=none;fillColor=none;align=left;verticalAlign=top;spacingLeft=4;spacingRight=4;overflow=hidden;rotatable=0;points=[[0,0.5],[1,0.5]];portConstraint=eastwest;" parent="cA6XABB9ZMt0WS9synM3-6" vertex="1">
          <mxGeometry y="60" width="160" height="60" as="geometry" />
        </mxCell>
        <mxCell id="cA6XABB9ZMt0WS9synM3-10" style="edgeStyle=orthogonalEdgeStyle;rounded=0;orthogonalLoop=1;jettySize=auto;html=1;" parent="WIyWlLk6GJQsqaUBKTNV-1" source="cA6XABB9ZMt0WS9synM3-2" target="cA6XABB9ZMt0WS9synM3-7" edge="1">
          <mxGeometry relative="1" as="geometry" />
        </mxCell>
        <mxCell id="cA6XABB9ZMt0WS9synM3-11" value="" style="shape=module;align=left;spacingLeft=20;align=center;verticalAlign=top;" parent="WIyWlLk6GJQsqaUBKTNV-1" vertex="1">
          <mxGeometry x="2421.5" y="1507.5" width="32" height="50" as="geometry" />
        </mxCell>
        <mxCell id="cA6XABB9ZMt0WS9synM3-19" value="ROOM" style="html=1;align=left;verticalAlign=top;" parent="WIyWlLk6GJQsqaUBKTNV-1" vertex="1">
          <mxGeometry x="1150" y="1487.5" width="450" height="347.5" as="geometry" />
        </mxCell>
        <mxCell id="cA6XABB9ZMt0WS9synM3-20" value="" style="shape=module;align=left;spacingLeft=20;align=center;verticalAlign=top;" parent="WIyWlLk6GJQsqaUBKTNV-1" vertex="1">
          <mxGeometry x="1560" y="1497.5" width="32" height="50" as="geometry" />
        </mxCell>
        <mxCell id="cA6XABB9ZMt0WS9synM3-21" value="Room" style="swimlane;fontStyle=1;align=center;verticalAlign=top;childLayout=stackLayout;horizontal=1;startSize=26;horizontalStack=0;resizeParent=1;resizeParentMax=0;resizeLast=0;collapsible=1;marginBottom=0;" parent="WIyWlLk6GJQsqaUBKTNV-1" vertex="1">
          <mxGeometry x="1170" y="1539.5" width="160" height="34" as="geometry" />
        </mxCell>
        <mxCell id="cA6XABB9ZMt0WS9synM3-22" value="" style="line;strokeWidth=1;fillColor=none;align=left;verticalAlign=middle;spacingTop=-1;spacingLeft=3;spacingRight=3;rotatable=0;labelPosition=right;points=[];portConstraint=eastwest;" parent="cA6XABB9ZMt0WS9synM3-21" vertex="1">
          <mxGeometry y="26" width="160" height="8" as="geometry" />
        </mxCell>
        <mxCell id="cA6XABB9ZMt0WS9synM3-23" value="Object" style="swimlane;fontStyle=1;align=center;verticalAlign=top;childLayout=stackLayout;horizontal=1;startSize=26;horizontalStack=0;resizeParent=1;resizeParentMax=0;resizeLast=0;collapsible=1;marginBottom=0;" parent="WIyWlLk6GJQsqaUBKTNV-1" vertex="1">
          <mxGeometry x="1375" y="1660" width="160" height="160" as="geometry" />
        </mxCell>
        <mxCell id="cA6XABB9ZMt0WS9synM3-24" value="+ name: string&#xa;+ Value: float&#xa;+ Enchantments: array&lt;&gt;&#xa;+ Durability/stats: array&lt;&gt;" style="text;strokeColor=none;fillColor=none;align=left;verticalAlign=top;spacingLeft=4;spacingRight=4;overflow=hidden;rotatable=0;points=[[0,0.5],[1,0.5]];portConstraint=eastwest;" parent="cA6XABB9ZMt0WS9synM3-23" vertex="1">
          <mxGeometry y="26" width="160" height="74" as="geometry" />
        </mxCell>
        <mxCell id="cA6XABB9ZMt0WS9synM3-25" value="" style="line;strokeWidth=1;fillColor=none;align=left;verticalAlign=middle;spacingTop=-1;spacingLeft=3;spacingRight=3;rotatable=0;labelPosition=right;points=[];portConstraint=eastwest;" parent="cA6XABB9ZMt0WS9synM3-23" vertex="1">
          <mxGeometry y="100" width="160" height="8" as="geometry" />
        </mxCell>
        <mxCell id="cA6XABB9ZMt0WS9synM3-26" value="+ get info(): print&#xa;+ Take Damage()&#xa;+ Enchant()" style="text;strokeColor=none;fillColor=none;align=left;verticalAlign=top;spacingLeft=4;spacingRight=4;overflow=hidden;rotatable=0;points=[[0,0.5],[1,0.5]];portConstraint=eastwest;" parent="cA6XABB9ZMt0WS9synM3-23" vertex="1">
          <mxGeometry y="108" width="160" height="52" as="geometry" />
        </mxCell>
        <mxCell id="cA6XABB9ZMt0WS9synM3-27" style="edgeStyle=none;rounded=0;orthogonalLoop=1;jettySize=auto;html=1;" parent="WIyWlLk6GJQsqaUBKTNV-1" source="cA6XABB9ZMt0WS9synM3-28" target="cA6XABB9ZMt0WS9synM3-23" edge="1">
          <mxGeometry relative="1" as="geometry" />
        </mxCell>
        <mxCell id="cA6XABB9ZMt0WS9synM3-28" value="Inventory" style="swimlane;fontStyle=1;align=center;verticalAlign=top;childLayout=stackLayout;horizontal=1;startSize=26;horizontalStack=0;resizeParent=1;resizeParentMax=0;resizeLast=0;collapsible=1;marginBottom=0;" parent="WIyWlLk6GJQsqaUBKTNV-1" vertex="1">
          <mxGeometry x="1375" y="1517.5" width="160" height="120" as="geometry" />
        </mxCell>
        <mxCell id="cA6XABB9ZMt0WS9synM3-29" value="+ Object_list: array&lt;object&gt;" style="text;strokeColor=none;fillColor=none;align=left;verticalAlign=top;spacingLeft=4;spacingRight=4;overflow=hidden;rotatable=0;points=[[0,0.5],[1,0.5]];portConstraint=eastwest;" parent="cA6XABB9ZMt0WS9synM3-28" vertex="1">
          <mxGeometry y="26" width="160" height="26" as="geometry" />
        </mxCell>
        <mxCell id="cA6XABB9ZMt0WS9synM3-30" value="" style="line;strokeWidth=1;fillColor=none;align=left;verticalAlign=middle;spacingTop=-1;spacingLeft=3;spacingRight=3;rotatable=0;labelPosition=right;points=[];portConstraint=eastwest;" parent="cA6XABB9ZMt0WS9synM3-28" vertex="1">
          <mxGeometry y="52" width="160" height="8" as="geometry" />
        </mxCell>
        <mxCell id="cA6XABB9ZMt0WS9synM3-31" value="List Object()&#xa;Give Object()&#xa;Receive Object()" style="text;strokeColor=none;fillColor=none;align=left;verticalAlign=top;spacingLeft=4;spacingRight=4;overflow=hidden;rotatable=0;points=[[0,0.5],[1,0.5]];portConstraint=eastwest;" parent="cA6XABB9ZMt0WS9synM3-28" vertex="1">
          <mxGeometry y="60" width="160" height="60" as="geometry" />
        </mxCell>
        <mxCell id="cA6XABB9ZMt0WS9synM3-32" style="edgeStyle=none;rounded=0;orthogonalLoop=1;jettySize=auto;html=1;entryX=0.5;entryY=1;entryDx=0;entryDy=0;" parent="WIyWlLk6GJQsqaUBKTNV-1" source="cA6XABB9ZMt0WS9synM3-33" target="cA6XABB9ZMt0WS9synM3-21" edge="1">
          <mxGeometry relative="1" as="geometry">
            <mxPoint x="1140" y="1627.5" as="targetPoint" />
          </mxGeometry>
        </mxCell>
        <mxCell id="cA6XABB9ZMt0WS9synM3-33" value="Special Room" style="swimlane;fontStyle=1;align=center;verticalAlign=top;childLayout=stackLayout;horizontal=1;startSize=26;horizontalStack=0;resizeParent=1;resizeParentMax=0;resizeLast=0;collapsible=1;marginBottom=0;" parent="WIyWlLk6GJQsqaUBKTNV-1" vertex="1">
          <mxGeometry x="1170" y="1705" width="160" height="34" as="geometry" />
        </mxCell>
        <mxCell id="cA6XABB9ZMt0WS9synM3-34" value="" style="line;strokeWidth=1;fillColor=none;align=left;verticalAlign=middle;spacingTop=-1;spacingLeft=3;spacingRight=3;rotatable=0;labelPosition=right;points=[];portConstraint=eastwest;" parent="cA6XABB9ZMt0WS9synM3-33" vertex="1">
          <mxGeometry y="26" width="160" height="8" as="geometry" />
        </mxCell>
        <mxCell id="cA6XABB9ZMt0WS9synM3-35" style="edgeStyle=none;rounded=0;orthogonalLoop=1;jettySize=auto;html=1;entryX=0;entryY=0.5;entryDx=0;entryDy=0;" parent="WIyWlLk6GJQsqaUBKTNV-1" source="cA6XABB9ZMt0WS9synM3-21" target="cA6XABB9ZMt0WS9synM3-29" edge="1">
          <mxGeometry relative="1" as="geometry">
            <mxPoint x="1220" y="1556.5" as="sourcePoint" />
          </mxGeometry>
        </mxCell>
        <mxCell id="cA6XABB9ZMt0WS9synM3-46" value="Mobile Client" style="html=1;align=left;verticalAlign=top;" parent="WIyWlLk6GJQsqaUBKTNV-1" vertex="1">
          <mxGeometry x="1710" y="1300" width="143" height="120" as="geometry" />
        </mxCell>
        <mxCell id="cA6XABB9ZMt0WS9synM3-47" value="" style="shape=module;align=left;spacingLeft=20;align=center;verticalAlign=top;" parent="WIyWlLk6GJQsqaUBKTNV-1" vertex="1">
          <mxGeometry x="1810" y="1310" width="32" height="50" as="geometry" />
        </mxCell>
        <mxCell id="cA6XABB9ZMt0WS9synM3-56" value="Object" style="swimlane;fontStyle=1;align=center;verticalAlign=top;childLayout=stackLayout;horizontal=1;startSize=26;horizontalStack=0;resizeParent=1;resizeParentMax=0;resizeLast=0;collapsible=1;marginBottom=0;" parent="WIyWlLk6GJQsqaUBKTNV-1" vertex="1">
          <mxGeometry x="2240" y="1692.5" width="160" height="160" as="geometry" />
        </mxCell>
        <mxCell id="cA6XABB9ZMt0WS9synM3-57" value="+ name: string&#xa;+ Value: float&#xa;+ Enchantments: array&lt;&gt;&#xa;+ Durability/stats: array&lt;&gt;" style="text;strokeColor=none;fillColor=none;align=left;verticalAlign=top;spacingLeft=4;spacingRight=4;overflow=hidden;rotatable=0;points=[[0,0.5],[1,0.5]];portConstraint=eastwest;" parent="cA6XABB9ZMt0WS9synM3-56" vertex="1">
          <mxGeometry y="26" width="160" height="74" as="geometry" />
        </mxCell>
        <mxCell id="cA6XABB9ZMt0WS9synM3-58" value="" style="line;strokeWidth=1;fillColor=none;align=left;verticalAlign=middle;spacingTop=-1;spacingLeft=3;spacingRight=3;rotatable=0;labelPosition=right;points=[];portConstraint=eastwest;" parent="cA6XABB9ZMt0WS9synM3-56" vertex="1">
          <mxGeometry y="100" width="160" height="8" as="geometry" />
        </mxCell>
        <mxCell id="cA6XABB9ZMt0WS9synM3-59" value="+ get info(): print&#xa;+ Take Damage()&#xa;+ Enchant()" style="text;strokeColor=none;fillColor=none;align=left;verticalAlign=top;spacingLeft=4;spacingRight=4;overflow=hidden;rotatable=0;points=[[0,0.5],[1,0.5]];portConstraint=eastwest;" parent="cA6XABB9ZMt0WS9synM3-56" vertex="1">
          <mxGeometry y="108" width="160" height="52" as="geometry" />
        </mxCell>
        <mxCell id="cA6XABB9ZMt0WS9synM3-65" value="" style="rounded=0;orthogonalLoop=1;jettySize=auto;html=1;endArrow=none;endFill=0;sketch=0;exitX=1;exitY=1;exitDx=0;exitDy=0;startArrow=none;" parent="WIyWlLk6GJQsqaUBKTNV-1" edge="1">
          <mxGeometry x="-0.0949" relative="1" as="geometry">
            <mxPoint x="1868.5355339059329" y="1458.5355339059329" as="sourcePoint" />
            <mxPoint x="1868.5355339059329" y="1458.5355339059329" as="targetPoint" />
            <Array as="points" />
            <mxPoint x="1" as="offset" />
          </mxGeometry>
        </mxCell>
        <mxCell id="cA6XABB9ZMt0WS9synM3-66" value="" style="rounded=0;orthogonalLoop=1;jettySize=auto;html=1;endArrow=none;endFill=0;sketch=0;exitX=1;exitY=1;exitDx=0;exitDy=0;startArrow=none;" parent="WIyWlLk6GJQsqaUBKTNV-1" edge="1">
          <mxGeometry x="-0.0949" relative="1" as="geometry">
            <mxPoint x="1972.0355339059329" y="1403.5355339059329" as="sourcePoint" />
            <mxPoint x="1972.0355339059329" y="1403.5355339059329" as="targetPoint" />
            <Array as="points" />
            <mxPoint x="1" as="offset" />
          </mxGeometry>
        </mxCell>
        <mxCell id="cA6XABB9ZMt0WS9synM3-71" value="&lt;interface&gt;" style="swimlane;fontStyle=1;align=center;verticalAlign=top;childLayout=stackLayout;horizontal=1;startSize=26;horizontalStack=0;resizeParent=1;resizeParentMax=0;resizeLast=0;collapsible=1;marginBottom=0;" parent="WIyWlLk6GJQsqaUBKTNV-1" vertex="1">
          <mxGeometry x="1710" y="1541" width="160" height="148" as="geometry" />
        </mxCell>
        <mxCell id="cA6XABB9ZMt0WS9synM3-72" value="+ field: type" style="text;strokeColor=none;fillColor=none;align=left;verticalAlign=top;spacingLeft=4;spacingRight=4;overflow=hidden;rotatable=0;points=[[0,0.5],[1,0.5]];portConstraint=eastwest;" parent="cA6XABB9ZMt0WS9synM3-71" vertex="1">
          <mxGeometry y="26" width="160" height="44" as="geometry" />
        </mxCell>
        <mxCell id="cA6XABB9ZMt0WS9synM3-73" value="" style="line;strokeWidth=1;fillColor=none;align=left;verticalAlign=middle;spacingTop=-1;spacingLeft=3;spacingRight=3;rotatable=0;labelPosition=right;points=[];portConstraint=eastwest;" parent="cA6XABB9ZMt0WS9synM3-71" vertex="1">
          <mxGeometry y="70" width="160" height="8" as="geometry" />
        </mxCell>
        <mxCell id="cA6XABB9ZMt0WS9synM3-74" value="+Give Object ()&#xa;+Receive Object ()&#xa;+List Object ()" style="text;strokeColor=none;fillColor=none;align=left;verticalAlign=top;spacingLeft=4;spacingRight=4;overflow=hidden;rotatable=0;points=[[0,0.5],[1,0.5]];portConstraint=eastwest;" parent="cA6XABB9ZMt0WS9synM3-71" vertex="1">
          <mxGeometry y="78" width="160" height="70" as="geometry" />
        </mxCell>
        <mxCell id="cA6XABB9ZMt0WS9synM3-75" value="&lt;interface&gt;" style="swimlane;fontStyle=1;align=center;verticalAlign=top;childLayout=stackLayout;horizontal=1;startSize=26;horizontalStack=0;resizeParent=1;resizeParentMax=0;resizeLast=0;collapsible=1;marginBottom=0;" parent="WIyWlLk6GJQsqaUBKTNV-1" vertex="1">
          <mxGeometry x="1980" y="1292" width="160" height="148" as="geometry" />
        </mxCell>
        <mxCell id="cA6XABB9ZMt0WS9synM3-76" value="+ field: type" style="text;strokeColor=none;fillColor=none;align=left;verticalAlign=top;spacingLeft=4;spacingRight=4;overflow=hidden;rotatable=0;points=[[0,0.5],[1,0.5]];portConstraint=eastwest;" parent="cA6XABB9ZMt0WS9synM3-75" vertex="1">
          <mxGeometry y="26" width="160" height="44" as="geometry" />
        </mxCell>
        <mxCell id="cA6XABB9ZMt0WS9synM3-77" value="" style="line;strokeWidth=1;fillColor=none;align=left;verticalAlign=middle;spacingTop=-1;spacingLeft=3;spacingRight=3;rotatable=0;labelPosition=right;points=[];portConstraint=eastwest;" parent="cA6XABB9ZMt0WS9synM3-75" vertex="1">
          <mxGeometry y="70" width="160" height="8" as="geometry" />
        </mxCell>
        <mxCell id="cA6XABB9ZMt0WS9synM3-78" value="+Give Object ()&#xa;+Receive Object ()&#xa;+List Object ()" style="text;strokeColor=none;fillColor=none;align=left;verticalAlign=top;spacingLeft=4;spacingRight=4;overflow=hidden;rotatable=0;points=[[0,0.5],[1,0.5]];portConstraint=eastwest;" parent="cA6XABB9ZMt0WS9synM3-75" vertex="1">
          <mxGeometry y="78" width="160" height="70" as="geometry" />
        </mxCell>
        <mxCell id="cA6XABB9ZMt0WS9synM3-79" value="" style="endArrow=block;dashed=1;html=1;dashPattern=1 3;strokeWidth=2;rounded=0;exitX=1;exitY=0.5;exitDx=0;exitDy=0;entryX=0.006;entryY=0.932;entryDx=0;entryDy=0;entryPerimeter=0;endFill=0;" parent="WIyWlLk6GJQsqaUBKTNV-1" source="cA6XABB9ZMt0WS9synM3-46" target="cA6XABB9ZMt0WS9synM3-76" edge="1">
          <mxGeometry width="50" height="50" relative="1" as="geometry">
            <mxPoint x="1880" y="1350" as="sourcePoint" />
            <mxPoint x="1930" y="1300" as="targetPoint" />
          </mxGeometry>
        </mxCell>
        <mxCell id="cA6XABB9ZMt0WS9synM3-80" value="" style="endArrow=block;dashed=1;html=1;dashPattern=1 3;strokeWidth=2;rounded=0;exitX=0.481;exitY=1.043;exitDx=0;exitDy=0;entryX=0.5;entryY=0;entryDx=0;entryDy=0;endFill=0;exitPerimeter=0;" parent="WIyWlLk6GJQsqaUBKTNV-1" source="cA6XABB9ZMt0WS9synM3-78" target="cA6XABB9ZMt0WS9synM3-1" edge="1">
          <mxGeometry width="50" height="50" relative="1" as="geometry">
            <mxPoint x="1863" y="1370" as="sourcePoint" />
            <mxPoint x="1990.96" y="1369.0079999999998" as="targetPoint" />
          </mxGeometry>
        </mxCell>
        <mxCell id="cA6XABB9ZMt0WS9synM3-81" value="" style="endArrow=open;dashed=1;html=1;dashPattern=1 3;strokeWidth=2;rounded=0;exitX=0;exitY=0.5;exitDx=0;exitDy=0;entryX=1;entryY=0.5;entryDx=0;entryDy=0;endFill=0;" parent="WIyWlLk6GJQsqaUBKTNV-1" source="cA6XABB9ZMt0WS9synM3-2" target="cA6XABB9ZMt0WS9synM3-72" edge="1">
          <mxGeometry width="50" height="50" relative="1" as="geometry">
            <mxPoint x="2066.96" y="1453.0100000000002" as="sourcePoint" />
            <mxPoint x="2112" y="1540.5" as="targetPoint" />
          </mxGeometry>
        </mxCell>
        <mxCell id="cA6XABB9ZMt0WS9synM3-83" value="" style="endArrow=block;dashed=1;html=1;dashPattern=1 3;strokeWidth=2;rounded=0;endFill=0;" parent="WIyWlLk6GJQsqaUBKTNV-1" source="cA6XABB9ZMt0WS9synM3-29" target="cA6XABB9ZMt0WS9synM3-72" edge="1">
          <mxGeometry width="50" height="50" relative="1" as="geometry">
            <mxPoint x="2086.96" y="1473.0100000000002" as="sourcePoint" />
            <mxPoint x="1540" y="1570" as="targetPoint" />
          </mxGeometry>
        </mxCell>
        <mxCell id="cA6XABB9ZMt0WS9synM3-88" value="" style="endArrow=block;dashed=1;html=1;dashPattern=1 3;strokeWidth=2;rounded=0;exitX=1;exitY=0.5;exitDx=0;exitDy=0;entryX=0.006;entryY=0.932;entryDx=0;entryDy=0;entryPerimeter=0;endFill=0;" parent="WIyWlLk6GJQsqaUBKTNV-1" edge="1">
          <mxGeometry width="50" height="50" relative="1" as="geometry">
            <mxPoint x="1853" y="1358.5" as="sourcePoint" />
            <mxPoint x="1980.9599999999996" y="1357.5080000000003" as="targetPoint" />
          </mxGeometry>
        </mxCell>
        <mxCell id="cA6XABB9ZMt0WS9synM3-89" value="" style="endArrow=block;dashed=1;html=1;dashPattern=1 3;strokeWidth=2;rounded=0;exitX=0.481;exitY=1.043;exitDx=0;exitDy=0;entryX=0.5;entryY=0;entryDx=0;entryDy=0;endFill=0;exitPerimeter=0;" parent="WIyWlLk6GJQsqaUBKTNV-1" edge="1">
          <mxGeometry width="50" height="50" relative="1" as="geometry">
            <mxPoint x="2056.9599999999996" y="1441.5100000000002" as="sourcePoint" />
            <mxPoint x="2102" y="1529" as="targetPoint" />
          </mxGeometry>
        </mxCell>
        <mxCell id="cA6XABB9ZMt0WS9synM3-90" value="" style="endArrow=open;dashed=1;html=1;dashPattern=1 3;strokeWidth=2;rounded=0;exitX=0;exitY=0.5;exitDx=0;exitDy=0;entryX=1;entryY=0.5;entryDx=0;entryDy=0;endFill=0;" parent="WIyWlLk6GJQsqaUBKTNV-1" target="cA6XABB9ZMt0WS9synM3-72" edge="1">
          <mxGeometry width="50" height="50" relative="1" as="geometry">
            <mxPoint x="2022" y="1582" as="sourcePoint" />
            <mxPoint x="2112" y="1539" as="targetPoint" />
          </mxGeometry>
        </mxCell>
        <mxCell id="cA6XABB9ZMt0WS9synM3-91" value="ROOM" style="html=1;align=left;verticalAlign=top;" parent="WIyWlLk6GJQsqaUBKTNV-1" vertex="1">
          <mxGeometry x="1218" y="1953.96" width="692" height="371.04" as="geometry" />
        </mxCell>
        <mxCell id="cA6XABB9ZMt0WS9synM3-92" value="" style="shape=module;align=left;spacingLeft=20;align=center;verticalAlign=top;" parent="WIyWlLk6GJQsqaUBKTNV-1" vertex="1">
          <mxGeometry x="1866" y="1960.96" width="32" height="50" as="geometry" />
        </mxCell>
        <mxCell id="cA6XABB9ZMt0WS9synM3-93" value="Room" style="swimlane;fontStyle=1;align=center;verticalAlign=top;childLayout=stackLayout;horizontal=1;startSize=26;horizontalStack=0;resizeParent=1;resizeParentMax=0;resizeLast=0;collapsible=1;marginBottom=0;" parent="WIyWlLk6GJQsqaUBKTNV-1" vertex="1">
          <mxGeometry x="1236" y="2010.96" width="160" height="34" as="geometry" />
        </mxCell>
        <mxCell id="cA6XABB9ZMt0WS9synM3-94" value="" style="line;strokeWidth=1;fillColor=none;align=left;verticalAlign=middle;spacingTop=-1;spacingLeft=3;spacingRight=3;rotatable=0;labelPosition=right;points=[];portConstraint=eastwest;" parent="cA6XABB9ZMt0WS9synM3-93" vertex="1">
          <mxGeometry y="26" width="160" height="8" as="geometry" />
        </mxCell>
        <mxCell id="cA6XABB9ZMt0WS9synM3-95" value="Object" style="swimlane;fontStyle=1;align=center;verticalAlign=top;childLayout=stackLayout;horizontal=1;startSize=26;horizontalStack=0;resizeParent=1;resizeParentMax=0;resizeLast=0;collapsible=1;marginBottom=0;" parent="WIyWlLk6GJQsqaUBKTNV-1" vertex="1">
          <mxGeometry x="1441" y="2153.96" width="160" height="160" as="geometry" />
        </mxCell>
        <mxCell id="cA6XABB9ZMt0WS9synM3-96" value="+ name: string&#xa;+ Description: string&#xa;+ Durability: int" style="text;strokeColor=none;fillColor=none;align=left;verticalAlign=top;spacingLeft=4;spacingRight=4;overflow=hidden;rotatable=0;points=[[0,0.5],[1,0.5]];portConstraint=eastwest;" parent="cA6XABB9ZMt0WS9synM3-95" vertex="1">
          <mxGeometry y="26" width="160" height="74" as="geometry" />
        </mxCell>
        <mxCell id="cA6XABB9ZMt0WS9synM3-97" value="" style="line;strokeWidth=1;fillColor=none;align=left;verticalAlign=middle;spacingTop=-1;spacingLeft=3;spacingRight=3;rotatable=0;labelPosition=right;points=[];portConstraint=eastwest;" parent="cA6XABB9ZMt0WS9synM3-95" vertex="1">
          <mxGeometry y="100" width="160" height="8" as="geometry" />
        </mxCell>
        <mxCell id="cA6XABB9ZMt0WS9synM3-98" value="+ get info(): print&#xa;+ Take Damage()" style="text;strokeColor=none;fillColor=none;align=left;verticalAlign=top;spacingLeft=4;spacingRight=4;overflow=hidden;rotatable=0;points=[[0,0.5],[1,0.5]];portConstraint=eastwest;" parent="cA6XABB9ZMt0WS9synM3-95" vertex="1">
          <mxGeometry y="108" width="160" height="52" as="geometry" />
        </mxCell>
        <mxCell id="cA6XABB9ZMt0WS9synM3-99" style="edgeStyle=none;rounded=0;orthogonalLoop=1;jettySize=auto;html=1;" parent="WIyWlLk6GJQsqaUBKTNV-1" source="cA6XABB9ZMt0WS9synM3-100" target="cA6XABB9ZMt0WS9synM3-95" edge="1">
          <mxGeometry relative="1" as="geometry" />
        </mxCell>
        <mxCell id="cA6XABB9ZMt0WS9synM3-100" value="Inventory" style="swimlane;fontStyle=1;align=center;verticalAlign=top;childLayout=stackLayout;horizontal=1;startSize=26;horizontalStack=0;resizeParent=1;resizeParentMax=0;resizeLast=0;collapsible=1;marginBottom=0;" parent="WIyWlLk6GJQsqaUBKTNV-1" vertex="1">
          <mxGeometry x="1441" y="1988.96" width="160" height="94" as="geometry" />
        </mxCell>
        <mxCell id="cA6XABB9ZMt0WS9synM3-102" value="" style="line;strokeWidth=1;fillColor=none;align=left;verticalAlign=middle;spacingTop=-1;spacingLeft=3;spacingRight=3;rotatable=0;labelPosition=right;points=[];portConstraint=eastwest;" parent="cA6XABB9ZMt0WS9synM3-100" vertex="1">
          <mxGeometry y="26" width="160" height="8" as="geometry" />
        </mxCell>
        <mxCell id="cA6XABB9ZMt0WS9synM3-103" value="List Object()&#xa;Give Object()&#xa;Receive Object()" style="text;strokeColor=none;fillColor=none;align=left;verticalAlign=top;spacingLeft=4;spacingRight=4;overflow=hidden;rotatable=0;points=[[0,0.5],[1,0.5]];portConstraint=eastwest;" parent="cA6XABB9ZMt0WS9synM3-100" vertex="1">
          <mxGeometry y="34" width="160" height="60" as="geometry" />
        </mxCell>
        <mxCell id="cA6XABB9ZMt0WS9synM3-104" style="edgeStyle=none;rounded=0;orthogonalLoop=1;jettySize=auto;html=1;entryX=0.5;entryY=1;entryDx=0;entryDy=0;" parent="WIyWlLk6GJQsqaUBKTNV-1" source="cA6XABB9ZMt0WS9synM3-105" target="cA6XABB9ZMt0WS9synM3-93" edge="1">
          <mxGeometry relative="1" as="geometry">
            <mxPoint x="1206" y="2098.96" as="targetPoint" />
          </mxGeometry>
        </mxCell>
        <mxCell id="cA6XABB9ZMt0WS9synM3-105" value="Special Room" style="swimlane;fontStyle=1;align=center;verticalAlign=top;childLayout=stackLayout;horizontal=1;startSize=26;horizontalStack=0;resizeParent=1;resizeParentMax=0;resizeLast=0;collapsible=1;marginBottom=0;" parent="WIyWlLk6GJQsqaUBKTNV-1" vertex="1">
          <mxGeometry x="1236" y="2176.46" width="160" height="34" as="geometry" />
        </mxCell>
        <mxCell id="cA6XABB9ZMt0WS9synM3-106" value="" style="line;strokeWidth=1;fillColor=none;align=left;verticalAlign=middle;spacingTop=-1;spacingLeft=3;spacingRight=3;rotatable=0;labelPosition=right;points=[];portConstraint=eastwest;" parent="cA6XABB9ZMt0WS9synM3-105" vertex="1">
          <mxGeometry y="26" width="160" height="8" as="geometry" />
        </mxCell>
        <mxCell id="cA6XABB9ZMt0WS9synM3-107" style="edgeStyle=none;rounded=0;orthogonalLoop=1;jettySize=auto;html=1;entryX=0;entryY=0.5;entryDx=0;entryDy=0;" parent="WIyWlLk6GJQsqaUBKTNV-1" source="cA6XABB9ZMt0WS9synM3-93" edge="1">
          <mxGeometry relative="1" as="geometry">
            <mxPoint x="1286" y="2027.96" as="sourcePoint" />
            <mxPoint x="1441" y="2027.96" as="targetPoint" />
          </mxGeometry>
        </mxCell>
        <mxCell id="cA6XABB9ZMt0WS9synM3-108" value="" style="rounded=0;orthogonalLoop=1;jettySize=auto;html=1;endArrow=none;endFill=0;sketch=0;exitX=1;exitY=1;exitDx=0;exitDy=0;startArrow=none;" parent="WIyWlLk6GJQsqaUBKTNV-1" edge="1">
          <mxGeometry x="-0.0949" relative="1" as="geometry">
            <mxPoint x="1934.5355339059329" y="1929.995533905933" as="sourcePoint" />
            <mxPoint x="1934.5355339059329" y="1929.995533905933" as="targetPoint" />
            <Array as="points" />
            <mxPoint x="1" as="offset" />
          </mxGeometry>
        </mxCell>
        <mxCell id="cA6XABB9ZMt0WS9synM3-109" value="&lt;interface&gt;" style="swimlane;fontStyle=1;align=center;verticalAlign=top;childLayout=stackLayout;horizontal=1;startSize=26;horizontalStack=0;resizeParent=1;resizeParentMax=0;resizeLast=0;collapsible=1;marginBottom=0;" parent="WIyWlLk6GJQsqaUBKTNV-1" vertex="1">
          <mxGeometry x="1682" y="1983.46" width="160" height="148" as="geometry" />
        </mxCell>
        <mxCell id="cA6XABB9ZMt0WS9synM3-110" value="+ field: type" style="text;strokeColor=none;fillColor=none;align=left;verticalAlign=top;spacingLeft=4;spacingRight=4;overflow=hidden;rotatable=0;points=[[0,0.5],[1,0.5]];portConstraint=eastwest;" parent="cA6XABB9ZMt0WS9synM3-109" vertex="1">
          <mxGeometry y="26" width="160" height="44" as="geometry" />
        </mxCell>
        <mxCell id="cA6XABB9ZMt0WS9synM3-111" value="" style="line;strokeWidth=1;fillColor=none;align=left;verticalAlign=middle;spacingTop=-1;spacingLeft=3;spacingRight=3;rotatable=0;labelPosition=right;points=[];portConstraint=eastwest;" parent="cA6XABB9ZMt0WS9synM3-109" vertex="1">
          <mxGeometry y="70" width="160" height="8" as="geometry" />
        </mxCell>
        <mxCell id="cA6XABB9ZMt0WS9synM3-112" value="+Give Object ()&#xa;+Receive Object ()&#xa;+List Object ()" style="text;strokeColor=none;fillColor=none;align=left;verticalAlign=top;spacingLeft=4;spacingRight=4;overflow=hidden;rotatable=0;points=[[0,0.5],[1,0.5]];portConstraint=eastwest;" parent="cA6XABB9ZMt0WS9synM3-109" vertex="1">
          <mxGeometry y="78" width="160" height="70" as="geometry" />
        </mxCell>
        <mxCell id="cA6XABB9ZMt0WS9synM3-113" value="" style="endArrow=block;dashed=1;html=1;dashPattern=1 3;strokeWidth=2;rounded=0;endFill=0;" parent="WIyWlLk6GJQsqaUBKTNV-1" target="cA6XABB9ZMt0WS9synM3-110" edge="1">
          <mxGeometry width="50" height="50" relative="1" as="geometry">
            <mxPoint x="1601" y="2029.1218257261412" as="sourcePoint" />
            <mxPoint x="1606" y="2041.46" as="targetPoint" />
          </mxGeometry>
        </mxCell>
        <mxCell id="cA6XABB9ZMt0WS9synM3-118" value="PLAYER" style="html=1;align=left;verticalAlign=top;" parent="WIyWlLk6GJQsqaUBKTNV-1" vertex="1">
          <mxGeometry x="2120" y="1890" width="770" height="630" as="geometry" />
        </mxCell>
        <mxCell id="cA6XABB9ZMt0WS9synM3-119" value="Player" style="swimlane;fontStyle=1;align=center;verticalAlign=top;childLayout=stackLayout;horizontal=1;startSize=26;horizontalStack=0;resizeParent=1;resizeParentMax=0;resizeLast=0;collapsible=1;marginBottom=0;" parent="WIyWlLk6GJQsqaUBKTNV-1" vertex="1">
          <mxGeometry x="2433.5" y="1991.96" width="160" height="148" as="geometry" />
        </mxCell>
        <mxCell id="cA6XABB9ZMt0WS9synM3-120" value="+ Room ID&#xa;+ Inventory ID&#xa;+ ID: int" style="text;strokeColor=none;fillColor=none;align=left;verticalAlign=top;spacingLeft=4;spacingRight=4;overflow=hidden;rotatable=0;points=[[0,0.5],[1,0.5]];portConstraint=eastwest;" parent="cA6XABB9ZMt0WS9synM3-119" vertex="1">
          <mxGeometry y="26" width="160" height="54" as="geometry" />
        </mxCell>
        <mxCell id="cA6XABB9ZMt0WS9synM3-121" value="" style="line;strokeWidth=1;fillColor=none;align=left;verticalAlign=middle;spacingTop=-1;spacingLeft=3;spacingRight=3;rotatable=0;labelPosition=right;points=[];portConstraint=eastwest;" parent="cA6XABB9ZMt0WS9synM3-119" vertex="1">
          <mxGeometry y="80" width="160" height="8" as="geometry" />
        </mxCell>
        <mxCell id="cA6XABB9ZMt0WS9synM3-122" value="+ Take Object(o: Object)&#xa;+ Lay Down Object(o: Object)&#xa;+ Request room Object List&#xa;" style="text;strokeColor=none;fillColor=none;align=left;verticalAlign=top;spacingLeft=4;spacingRight=4;overflow=hidden;rotatable=0;points=[[0,0.5],[1,0.5]];portConstraint=eastwest;" parent="cA6XABB9ZMt0WS9synM3-119" vertex="1">
          <mxGeometry y="88" width="160" height="60" as="geometry" />
        </mxCell>
        <mxCell id="cA6XABB9ZMt0WS9synM3-123" style="edgeStyle=orthogonalEdgeStyle;rounded=0;orthogonalLoop=1;jettySize=auto;html=1;entryX=0.5;entryY=0;entryDx=0;entryDy=0;" parent="WIyWlLk6GJQsqaUBKTNV-1" source="cA6XABB9ZMt0WS9synM3-124" target="cA6XABB9ZMt0WS9synM3-130" edge="1">
          <mxGeometry relative="1" as="geometry">
            <mxPoint x="2730" y="2190.46" as="targetPoint" />
          </mxGeometry>
        </mxCell>
        <mxCell id="cA6XABB9ZMt0WS9synM3-124" value="Inventory" style="swimlane;fontStyle=1;align=center;verticalAlign=top;childLayout=stackLayout;horizontal=1;startSize=26;horizontalStack=0;resizeParent=1;resizeParentMax=0;resizeLast=0;collapsible=1;marginBottom=0;" parent="WIyWlLk6GJQsqaUBKTNV-1" vertex="1">
          <mxGeometry x="2660" y="2005.96" width="160" height="100" as="geometry" />
        </mxCell>
        <mxCell id="cA6XABB9ZMt0WS9synM3-126" value="" style="line;strokeWidth=1;fillColor=none;align=left;verticalAlign=middle;spacingTop=-1;spacingLeft=3;spacingRight=3;rotatable=0;labelPosition=right;points=[];portConstraint=eastwest;" parent="cA6XABB9ZMt0WS9synM3-124" vertex="1">
          <mxGeometry y="26" width="160" height="8" as="geometry" />
        </mxCell>
        <mxCell id="cA6XABB9ZMt0WS9synM3-127" value="List Object()&#xa;Give Object()&#xa;Receive Object()&#xa;size()" style="text;strokeColor=none;fillColor=none;align=left;verticalAlign=top;spacingLeft=4;spacingRight=4;overflow=hidden;rotatable=0;points=[[0,0.5],[1,0.5]];portConstraint=eastwest;" parent="cA6XABB9ZMt0WS9synM3-124" vertex="1">
          <mxGeometry y="34" width="160" height="66" as="geometry" />
        </mxCell>
        <mxCell id="cA6XABB9ZMt0WS9synM3-128" style="edgeStyle=orthogonalEdgeStyle;rounded=0;orthogonalLoop=1;jettySize=auto;html=1;" parent="WIyWlLk6GJQsqaUBKTNV-1" source="cA6XABB9ZMt0WS9synM3-120" edge="1">
          <mxGeometry relative="1" as="geometry">
            <mxPoint x="2660" y="2044.9600000000005" as="targetPoint" />
          </mxGeometry>
        </mxCell>
        <mxCell id="cA6XABB9ZMt0WS9synM3-129" value="" style="shape=module;align=left;spacingLeft=20;align=center;verticalAlign=top;" parent="WIyWlLk6GJQsqaUBKTNV-1" vertex="1">
          <mxGeometry x="2850" y="1900" width="32" height="50" as="geometry" />
        </mxCell>
        <mxCell id="cA6XABB9ZMt0WS9synM3-130" value="Object" style="swimlane;fontStyle=1;align=center;verticalAlign=top;childLayout=stackLayout;horizontal=1;startSize=26;horizontalStack=0;resizeParent=1;resizeParentMax=0;resizeLast=0;collapsible=1;marginBottom=0;" parent="WIyWlLk6GJQsqaUBKTNV-1" vertex="1">
          <mxGeometry x="2660" y="2153.96" width="160" height="150" as="geometry" />
        </mxCell>
        <mxCell id="cA6XABB9ZMt0WS9synM3-131" value="+ name: string&#xa;+ Description: string&#xa;+ Durability: int&#xa;+ ID: int" style="text;strokeColor=none;fillColor=none;align=left;verticalAlign=top;spacingLeft=4;spacingRight=4;overflow=hidden;rotatable=0;points=[[0,0.5],[1,0.5]];portConstraint=eastwest;" parent="cA6XABB9ZMt0WS9synM3-130" vertex="1">
          <mxGeometry y="26" width="160" height="64" as="geometry" />
        </mxCell>
        <mxCell id="cA6XABB9ZMt0WS9synM3-132" value="" style="line;strokeWidth=1;fillColor=none;align=left;verticalAlign=middle;spacingTop=-1;spacingLeft=3;spacingRight=3;rotatable=0;labelPosition=right;points=[];portConstraint=eastwest;" parent="cA6XABB9ZMt0WS9synM3-130" vertex="1">
          <mxGeometry y="90" width="160" height="8" as="geometry" />
        </mxCell>
        <mxCell id="cA6XABB9ZMt0WS9synM3-133" value="+ get info(): print&#xa;+ Take Damage()" style="text;strokeColor=none;fillColor=none;align=left;verticalAlign=top;spacingLeft=4;spacingRight=4;overflow=hidden;rotatable=0;points=[[0,0.5],[1,0.5]];portConstraint=eastwest;" parent="cA6XABB9ZMt0WS9synM3-130" vertex="1">
          <mxGeometry y="98" width="160" height="52" as="geometry" />
        </mxCell>
        <mxCell id="cA6XABB9ZMt0WS9synM3-134" value="" style="rounded=0;orthogonalLoop=1;jettySize=auto;html=1;endArrow=none;endFill=0;sketch=0;exitX=1;exitY=1;exitDx=0;exitDy=0;startArrow=none;" parent="WIyWlLk6GJQsqaUBKTNV-1" edge="1">
          <mxGeometry x="-0.0949" relative="1" as="geometry">
            <mxPoint x="2288.535533905933" y="1919.995533905933" as="sourcePoint" />
            <mxPoint x="2288.535533905933" y="1919.995533905933" as="targetPoint" />
            <Array as="points" />
            <mxPoint x="1" as="offset" />
          </mxGeometry>
        </mxCell>
        <mxCell id="cA6XABB9ZMt0WS9synM3-135" value="&lt;interface&gt;" style="swimlane;fontStyle=1;align=center;verticalAlign=top;childLayout=stackLayout;horizontal=1;startSize=26;horizontalStack=0;resizeParent=1;resizeParentMax=0;resizeLast=0;collapsible=1;marginBottom=0;" parent="WIyWlLk6GJQsqaUBKTNV-1" vertex="1">
          <mxGeometry x="2190" y="1991.96" width="180" height="148" as="geometry" />
        </mxCell>
        <mxCell id="cA6XABB9ZMt0WS9synM3-136" value="+ field: type" style="text;strokeColor=none;fillColor=none;align=left;verticalAlign=top;spacingLeft=4;spacingRight=4;overflow=hidden;rotatable=0;points=[[0,0.5],[1,0.5]];portConstraint=eastwest;" parent="cA6XABB9ZMt0WS9synM3-135" vertex="1">
          <mxGeometry y="26" width="180" height="44" as="geometry" />
        </mxCell>
        <mxCell id="cA6XABB9ZMt0WS9synM3-137" value="" style="line;strokeWidth=1;fillColor=none;align=left;verticalAlign=middle;spacingTop=-1;spacingLeft=3;spacingRight=3;rotatable=0;labelPosition=right;points=[];portConstraint=eastwest;" parent="cA6XABB9ZMt0WS9synM3-135" vertex="1">
          <mxGeometry y="70" width="180" height="8" as="geometry" />
        </mxCell>
        <mxCell id="cA6XABB9ZMt0WS9synM3-138" value="+Take Object ()&#xa;+Lay Down Object ()&#xa;+Request room Object List ()" style="text;strokeColor=none;fillColor=none;align=left;verticalAlign=top;spacingLeft=4;spacingRight=4;overflow=hidden;rotatable=0;points=[[0,0.5],[1,0.5]];portConstraint=eastwest;" parent="cA6XABB9ZMt0WS9synM3-135" vertex="1">
          <mxGeometry y="78" width="180" height="70" as="geometry" />
        </mxCell>
        <mxCell id="cA6XABB9ZMt0WS9synM3-140" value="" style="endArrow=open;dashed=1;html=1;dashPattern=1 3;strokeWidth=2;rounded=0;entryX=1;entryY=0.5;entryDx=0;entryDy=0;endFill=0;exitX=-0.005;exitY=0.393;exitDx=0;exitDy=0;exitPerimeter=0;" parent="WIyWlLk6GJQsqaUBKTNV-1" source="cA6XABB9ZMt0WS9synM3-120" target="cA6XABB9ZMt0WS9synM3-136" edge="1">
          <mxGeometry width="50" height="50" relative="1" as="geometry">
            <mxPoint x="2420" y="2040" as="sourcePoint" />
            <mxPoint x="2532" y="2000.46" as="targetPoint" />
          </mxGeometry>
        </mxCell>
        <mxCell id="cA6XABB9ZMt0WS9synM3-141" value="{context Inventory&lt;br&gt;inv: size(Object_list) &amp;lt;= 5&lt;br&gt;inv: size(Object_list) &amp;gt;= 0" style="shape=note;whiteSpace=wrap;html=1;backgroundOutline=1;darkOpacity=0.05;align=left;" parent="WIyWlLk6GJQsqaUBKTNV-1" vertex="1">
          <mxGeometry x="2650" y="1920" width="180" height="60" as="geometry" />
        </mxCell>
        <mxCell id="cA6XABB9ZMt0WS9synM3-142" value="" style="endArrow=none;dashed=1;html=1;rounded=0;entryX=0.5;entryY=1;entryDx=0;entryDy=0;entryPerimeter=0;exitX=0.5;exitY=0;exitDx=0;exitDy=0;" parent="WIyWlLk6GJQsqaUBKTNV-1" source="cA6XABB9ZMt0WS9synM3-124" target="cA6XABB9ZMt0WS9synM3-141" edge="1">
          <mxGeometry width="50" height="50" relative="1" as="geometry">
            <mxPoint x="2020" y="1990" as="sourcePoint" />
            <mxPoint x="2070" y="1940" as="targetPoint" />
          </mxGeometry>
        </mxCell>
        <mxCell id="8iVH5raa5UheTRkbEqdS-55" value="" style="edgeStyle=orthogonalEdgeStyle;rounded=0;orthogonalLoop=1;jettySize=auto;html=1;exitX=0;exitY=0;exitDx=151.5;exitDy=36.980000000000004;exitPerimeter=0;" edge="1" parent="WIyWlLk6GJQsqaUBKTNV-1" source="cA6XABB9ZMt0WS9synM3-144" target="cA6XABB9ZMt0WS9synM3-133">
          <mxGeometry relative="1" as="geometry">
            <Array as="points">
              <mxPoint x="2630" y="2245" />
              <mxPoint x="2630" y="2278" />
            </Array>
          </mxGeometry>
        </mxCell>
        <mxCell id="cA6XABB9ZMt0WS9synM3-144" value="{context Object&lt;br&gt;inv: Durability &amp;gt;= 0&lt;br&gt;}" style="shape=note;whiteSpace=wrap;html=1;backgroundOutline=1;darkOpacity=0.05;align=left;" parent="WIyWlLk6GJQsqaUBKTNV-1" vertex="1">
          <mxGeometry x="2470" y="2210.46" width="151.5" height="43.96" as="geometry" />
        </mxCell>
        <mxCell id="cA6XABB9ZMt0WS9synM3-145" value="" style="endArrow=none;dashed=1;html=1;rounded=0;exitX=-0.024;exitY=0.946;exitDx=0;exitDy=0;exitPerimeter=0;entryX=0;entryY=0;entryDx=151.5;entryDy=30;entryPerimeter=0;" parent="WIyWlLk6GJQsqaUBKTNV-1" source="cA6XABB9ZMt0WS9synM3-131" edge="1" target="cA6XABB9ZMt0WS9synM3-144">
          <mxGeometry width="50" height="50" relative="1" as="geometry">
            <mxPoint x="2750" y="2015.96" as="sourcePoint" />
            <mxPoint x="2590" y="2250" as="targetPoint" />
          </mxGeometry>
        </mxCell>
        <mxCell id="KiW8qQh713Jewk8uLfWk-0" value="{context Take Object (o: Object)&amp;nbsp;&lt;br&gt;&lt;div&gt;pre: Inventory.size()&amp;lt;=4&lt;/div&gt;&lt;div&gt;post: Inventory.size() = Inventory.size()@pre +1&amp;nbsp;AND&lt;/div&gt;&lt;div&gt;Inventory -&amp;gt; includes  Inventory@pre.allInstances() AND&lt;/div&gt;Inventory -&amp;gt; includes o&lt;div&gt;}&lt;/div&gt;" style="shape=note;whiteSpace=wrap;html=1;backgroundOutline=1;darkOpacity=0.05;align=left;" parent="WIyWlLk6GJQsqaUBKTNV-1" vertex="1">
          <mxGeometry x="2140" y="2170" width="310" height="160" as="geometry" />
        </mxCell>
        <mxCell id="KiW8qQh713Jewk8uLfWk-1" value="" style="endArrow=none;dashed=1;html=1;rounded=0;exitX=0.011;exitY=0.208;exitDx=0;exitDy=0;exitPerimeter=0;entryX=0.733;entryY=0.028;entryDx=0;entryDy=0;entryPerimeter=0;" parent="WIyWlLk6GJQsqaUBKTNV-1" source="cA6XABB9ZMt0WS9synM3-122" target="KiW8qQh713Jewk8uLfWk-0" edge="1">
          <mxGeometry width="50" height="50" relative="1" as="geometry">
            <mxPoint x="2446.1600000000003" y="2188.024" as="sourcePoint" />
            <mxPoint x="2380.0000000000005" y="2188.06" as="targetPoint" />
          </mxGeometry>
        </mxCell>
        <mxCell id="8iVH5raa5UheTRkbEqdS-0" value="" style="ellipse;html=1;shape=startState;fillColor=#000000;strokeColor=#ff0000;" vertex="1" parent="WIyWlLk6GJQsqaUBKTNV-1">
          <mxGeometry x="2720" y="875" width="30" height="30" as="geometry" />
        </mxCell>
        <mxCell id="8iVH5raa5UheTRkbEqdS-1" value="" style="edgeStyle=orthogonalEdgeStyle;html=1;verticalAlign=bottom;endArrow=open;endSize=8;strokeColor=#ff0000;rounded=0;exitX=1;exitY=0.5;exitDx=0;exitDy=0;entryX=0;entryY=0.5;entryDx=0;entryDy=0;" edge="1" parent="WIyWlLk6GJQsqaUBKTNV-1" source="8iVH5raa5UheTRkbEqdS-0" target="8iVH5raa5UheTRkbEqdS-9">
          <mxGeometry relative="1" as="geometry">
            <mxPoint x="2860" y="955" as="targetPoint" />
            <mxPoint x="3040" y="925" as="sourcePoint" />
          </mxGeometry>
        </mxCell>
        <mxCell id="8iVH5raa5UheTRkbEqdS-2" value="Non-Full&amp;nbsp; Player Inventory" style="rounded=1;whiteSpace=wrap;html=1;" vertex="1" parent="WIyWlLk6GJQsqaUBKTNV-1">
          <mxGeometry x="3090" y="865" width="80" height="50" as="geometry" />
        </mxCell>
        <mxCell id="8iVH5raa5UheTRkbEqdS-3" value="Take Object(o)[player.inventory.length &amp;lt; 4]&lt;br&gt;/player.Take Object(o)" style="text;html=1;align=center;verticalAlign=middle;resizable=0;points=[];autosize=1;strokeColor=none;fillColor=none;" vertex="1" parent="WIyWlLk6GJQsqaUBKTNV-1">
          <mxGeometry x="3000" y="795" width="240" height="30" as="geometry" />
        </mxCell>
        <mxCell id="8iVH5raa5UheTRkbEqdS-4" value="" style="endArrow=open;endFill=1;endSize=12;html=1;rounded=0;exitX=0.75;exitY=0;exitDx=0;exitDy=0;entryX=0.25;entryY=0;entryDx=0;entryDy=0;" edge="1" parent="WIyWlLk6GJQsqaUBKTNV-1" source="8iVH5raa5UheTRkbEqdS-2" target="8iVH5raa5UheTRkbEqdS-2">
          <mxGeometry width="160" relative="1" as="geometry">
            <mxPoint x="3060" y="925" as="sourcePoint" />
            <mxPoint x="3220" y="925" as="targetPoint" />
            <Array as="points">
              <mxPoint x="3150" y="835" />
              <mxPoint x="3110" y="835" />
            </Array>
          </mxGeometry>
        </mxCell>
        <mxCell id="8iVH5raa5UheTRkbEqdS-5" value="" style="endArrow=open;endFill=1;endSize=12;html=1;rounded=0;entryX=0;entryY=0.25;entryDx=0;entryDy=0;exitX=1;exitY=0.25;exitDx=0;exitDy=0;" edge="1" parent="WIyWlLk6GJQsqaUBKTNV-1" source="8iVH5raa5UheTRkbEqdS-2" target="8iVH5raa5UheTRkbEqdS-6">
          <mxGeometry width="160" relative="1" as="geometry">
            <mxPoint x="3200" y="905" as="sourcePoint" />
            <mxPoint x="3380" y="945" as="targetPoint" />
          </mxGeometry>
        </mxCell>
        <mxCell id="8iVH5raa5UheTRkbEqdS-6" value="Full Player Inventory" style="rounded=1;whiteSpace=wrap;html=1;" vertex="1" parent="WIyWlLk6GJQsqaUBKTNV-1">
          <mxGeometry x="3400" y="875" width="80" height="30" as="geometry" />
        </mxCell>
        <mxCell id="8iVH5raa5UheTRkbEqdS-7" value="Take Object(o)[player.inventory.length == 4]&lt;br&gt;/player.Take Object(o)" style="text;html=1;align=center;verticalAlign=middle;resizable=0;points=[];autosize=1;strokeColor=none;fillColor=none;" vertex="1" parent="WIyWlLk6GJQsqaUBKTNV-1">
          <mxGeometry x="3164" y="846" width="250" height="30" as="geometry" />
        </mxCell>
        <mxCell id="8iVH5raa5UheTRkbEqdS-8" value="Take Object(o)" style="text;html=1;align=center;verticalAlign=middle;resizable=0;points=[];autosize=1;strokeColor=none;fillColor=none;" vertex="1" parent="WIyWlLk6GJQsqaUBKTNV-1">
          <mxGeometry x="3397" y="805" width="90" height="20" as="geometry" />
        </mxCell>
        <mxCell id="8iVH5raa5UheTRkbEqdS-9" value="Empty Player&lt;br&gt;Inventory" style="rounded=1;whiteSpace=wrap;html=1;" vertex="1" parent="WIyWlLk6GJQsqaUBKTNV-1">
          <mxGeometry x="2770" y="875" width="80" height="30" as="geometry" />
        </mxCell>
        <mxCell id="8iVH5raa5UheTRkbEqdS-10" value="Take Object(o)&lt;br&gt;/player.Take Object(o)" style="text;html=1;align=center;verticalAlign=middle;resizable=0;points=[];autosize=1;strokeColor=none;fillColor=none;" vertex="1" parent="WIyWlLk6GJQsqaUBKTNV-1">
          <mxGeometry x="2902" y="842" width="130" height="30" as="geometry" />
        </mxCell>
        <mxCell id="8iVH5raa5UheTRkbEqdS-11" value="" style="endArrow=open;endFill=1;endSize=12;html=1;rounded=0;entryX=0;entryY=0.25;entryDx=0;entryDy=0;exitX=1;exitY=0.25;exitDx=0;exitDy=0;" edge="1" parent="WIyWlLk6GJQsqaUBKTNV-1" source="8iVH5raa5UheTRkbEqdS-9" target="8iVH5raa5UheTRkbEqdS-2">
          <mxGeometry width="160" relative="1" as="geometry">
            <mxPoint x="2920" y="945" as="sourcePoint" />
            <mxPoint x="2930" y="925" as="targetPoint" />
          </mxGeometry>
        </mxCell>
        <mxCell id="8iVH5raa5UheTRkbEqdS-12" value="" style="endArrow=open;endFill=1;endSize=12;html=1;rounded=0;exitX=0.75;exitY=0;exitDx=0;exitDy=0;entryX=0.25;entryY=0;entryDx=0;entryDy=0;" edge="1" parent="WIyWlLk6GJQsqaUBKTNV-1" source="8iVH5raa5UheTRkbEqdS-6" target="8iVH5raa5UheTRkbEqdS-6">
          <mxGeometry width="160" relative="1" as="geometry">
            <mxPoint x="3060" y="1055" as="sourcePoint" />
            <mxPoint x="3440" y="825" as="targetPoint" />
            <Array as="points">
              <mxPoint x="3460" y="825" />
              <mxPoint x="3420" y="825" />
            </Array>
          </mxGeometry>
        </mxCell>
        <mxCell id="8iVH5raa5UheTRkbEqdS-13" value="" style="endArrow=open;endFill=1;endSize=12;html=1;rounded=0;exitX=0;exitY=0.75;exitDx=0;exitDy=0;entryX=1;entryY=0.75;entryDx=0;entryDy=0;" edge="1" parent="WIyWlLk6GJQsqaUBKTNV-1" source="8iVH5raa5UheTRkbEqdS-6" target="8iVH5raa5UheTRkbEqdS-2">
          <mxGeometry width="160" relative="1" as="geometry">
            <mxPoint x="3060" y="895" as="sourcePoint" />
            <mxPoint x="3220" y="895" as="targetPoint" />
          </mxGeometry>
        </mxCell>
        <mxCell id="8iVH5raa5UheTRkbEqdS-14" value="" style="endArrow=open;endFill=1;endSize=12;html=1;rounded=0;entryX=0.25;entryY=1;entryDx=0;entryDy=0;exitX=0.75;exitY=1;exitDx=0;exitDy=0;" edge="1" parent="WIyWlLk6GJQsqaUBKTNV-1" source="8iVH5raa5UheTRkbEqdS-2" target="8iVH5raa5UheTRkbEqdS-2">
          <mxGeometry width="160" relative="1" as="geometry">
            <mxPoint x="3120" y="1015" as="sourcePoint" />
            <mxPoint x="3220" y="895" as="targetPoint" />
            <Array as="points">
              <mxPoint x="3150" y="965" />
              <mxPoint x="3110" y="965" />
            </Array>
          </mxGeometry>
        </mxCell>
        <mxCell id="8iVH5raa5UheTRkbEqdS-15" value="" style="endArrow=open;endFill=1;endSize=12;html=1;rounded=0;exitX=0;exitY=0.75;exitDx=0;exitDy=0;entryX=1;entryY=0.75;entryDx=0;entryDy=0;" edge="1" parent="WIyWlLk6GJQsqaUBKTNV-1" source="8iVH5raa5UheTRkbEqdS-2" target="8iVH5raa5UheTRkbEqdS-9">
          <mxGeometry width="160" relative="1" as="geometry">
            <mxPoint x="2980" y="1025" as="sourcePoint" />
            <mxPoint x="2920" y="955" as="targetPoint" />
          </mxGeometry>
        </mxCell>
        <mxCell id="8iVH5raa5UheTRkbEqdS-16" value="Lay Down Object(o)&lt;br&gt;/player.Lay Down Object(o)" style="text;html=1;align=center;verticalAlign=middle;resizable=0;points=[];autosize=1;strokeColor=none;fillColor=none;" vertex="1" parent="WIyWlLk6GJQsqaUBKTNV-1">
          <mxGeometry x="3225" y="905" width="160" height="30" as="geometry" />
        </mxCell>
        <mxCell id="8iVH5raa5UheTRkbEqdS-17" value="Lay Down Object(o)[player.inventory.length &amp;gt; 1]&lt;br&gt;/player.Lay Down Object(o)" style="text;html=1;align=center;verticalAlign=middle;resizable=0;points=[];autosize=1;strokeColor=none;fillColor=none;" vertex="1" parent="WIyWlLk6GJQsqaUBKTNV-1">
          <mxGeometry x="2995" y="975" width="270" height="30" as="geometry" />
        </mxCell>
        <mxCell id="8iVH5raa5UheTRkbEqdS-18" value="Lay Down Object(o)[player.inventory.length == 1]&lt;br&gt;/player.Lay Down Object(o)" style="text;html=1;align=center;verticalAlign=middle;resizable=0;points=[];autosize=1;strokeColor=none;fillColor=none;" vertex="1" parent="WIyWlLk6GJQsqaUBKTNV-1">
          <mxGeometry x="2827" y="912" width="280" height="30" as="geometry" />
        </mxCell>
        <mxCell id="8iVH5raa5UheTRkbEqdS-19" value="" style="endArrow=open;endFill=1;endSize=12;html=1;rounded=0;exitX=0.25;exitY=1;exitDx=0;exitDy=0;entryX=0.75;entryY=1;entryDx=0;entryDy=0;" edge="1" parent="WIyWlLk6GJQsqaUBKTNV-1" source="8iVH5raa5UheTRkbEqdS-9" target="8iVH5raa5UheTRkbEqdS-9">
          <mxGeometry width="160" relative="1" as="geometry">
            <mxPoint x="3060" y="895" as="sourcePoint" />
            <mxPoint x="2810" y="1005" as="targetPoint" />
            <Array as="points">
              <mxPoint x="2790" y="965" />
              <mxPoint x="2830" y="965" />
            </Array>
          </mxGeometry>
        </mxCell>
        <mxCell id="8iVH5raa5UheTRkbEqdS-20" value="Lay Down Object(o)" style="text;html=1;align=center;verticalAlign=middle;resizable=0;points=[];autosize=1;strokeColor=none;fillColor=none;" vertex="1" parent="WIyWlLk6GJQsqaUBKTNV-1">
          <mxGeometry x="2752" y="966" width="120" height="20" as="geometry" />
        </mxCell>
        <mxCell id="8iVH5raa5UheTRkbEqdS-21" value="" style="ellipse;html=1;shape=startState;fillColor=#000000;strokeColor=#ff0000;" vertex="1" parent="WIyWlLk6GJQsqaUBKTNV-1">
          <mxGeometry x="3610" y="885" width="30" height="30" as="geometry" />
        </mxCell>
        <mxCell id="8iVH5raa5UheTRkbEqdS-22" value="" style="edgeStyle=orthogonalEdgeStyle;html=1;verticalAlign=bottom;endArrow=open;endSize=8;strokeColor=#ff0000;rounded=0;exitX=1;exitY=0.5;exitDx=0;exitDy=0;entryX=0;entryY=0.5;entryDx=0;entryDy=0;" edge="1" parent="WIyWlLk6GJQsqaUBKTNV-1" source="8iVH5raa5UheTRkbEqdS-21" target="8iVH5raa5UheTRkbEqdS-26">
          <mxGeometry relative="1" as="geometry">
            <mxPoint x="3750" y="965" as="targetPoint" />
            <mxPoint x="3930" y="935" as="sourcePoint" />
          </mxGeometry>
        </mxCell>
        <mxCell id="8iVH5raa5UheTRkbEqdS-23" value="Non-Empty &amp;nbsp;Room Inventory" style="rounded=1;whiteSpace=wrap;html=1;" vertex="1" parent="WIyWlLk6GJQsqaUBKTNV-1">
          <mxGeometry x="3980" y="875" width="80" height="50" as="geometry" />
        </mxCell>
        <mxCell id="8iVH5raa5UheTRkbEqdS-24" value="Give Object(o)[room.inventory.length &amp;gt; 1]&lt;br&gt;/room.Give Object(o)" style="text;html=1;align=center;verticalAlign=middle;resizable=0;points=[];autosize=1;strokeColor=none;fillColor=none;" vertex="1" parent="WIyWlLk6GJQsqaUBKTNV-1">
          <mxGeometry x="3895" y="805" width="230" height="30" as="geometry" />
        </mxCell>
        <mxCell id="8iVH5raa5UheTRkbEqdS-25" value="" style="endArrow=open;endFill=1;endSize=12;html=1;rounded=0;exitX=0.75;exitY=0;exitDx=0;exitDy=0;entryX=0.25;entryY=0;entryDx=0;entryDy=0;" edge="1" parent="WIyWlLk6GJQsqaUBKTNV-1" source="8iVH5raa5UheTRkbEqdS-23" target="8iVH5raa5UheTRkbEqdS-23">
          <mxGeometry width="160" relative="1" as="geometry">
            <mxPoint x="3950" y="935" as="sourcePoint" />
            <mxPoint x="4110" y="935" as="targetPoint" />
            <Array as="points">
              <mxPoint x="4040" y="845" />
              <mxPoint x="4000" y="845" />
            </Array>
          </mxGeometry>
        </mxCell>
        <mxCell id="8iVH5raa5UheTRkbEqdS-26" value="Empty Room&lt;br&gt;Inventory" style="rounded=1;whiteSpace=wrap;html=1;" vertex="1" parent="WIyWlLk6GJQsqaUBKTNV-1">
          <mxGeometry x="3660" y="885" width="80" height="30" as="geometry" />
        </mxCell>
        <mxCell id="8iVH5raa5UheTRkbEqdS-27" value="Receive Object(o)&lt;br&gt;/room.Receive Object(o)" style="text;html=1;align=center;verticalAlign=middle;resizable=0;points=[];autosize=1;strokeColor=none;fillColor=none;" vertex="1" parent="WIyWlLk6GJQsqaUBKTNV-1">
          <mxGeometry x="3782" y="852" width="150" height="30" as="geometry" />
        </mxCell>
        <mxCell id="8iVH5raa5UheTRkbEqdS-28" value="" style="endArrow=open;endFill=1;endSize=12;html=1;rounded=0;entryX=0;entryY=0.25;entryDx=0;entryDy=0;exitX=1;exitY=0.25;exitDx=0;exitDy=0;" edge="1" parent="WIyWlLk6GJQsqaUBKTNV-1" source="8iVH5raa5UheTRkbEqdS-26" target="8iVH5raa5UheTRkbEqdS-23">
          <mxGeometry width="160" relative="1" as="geometry">
            <mxPoint x="3810" y="955" as="sourcePoint" />
            <mxPoint x="3820" y="935" as="targetPoint" />
          </mxGeometry>
        </mxCell>
        <mxCell id="8iVH5raa5UheTRkbEqdS-29" value="" style="endArrow=open;endFill=1;endSize=12;html=1;rounded=0;entryX=0.25;entryY=1;entryDx=0;entryDy=0;exitX=0.75;exitY=1;exitDx=0;exitDy=0;" edge="1" parent="WIyWlLk6GJQsqaUBKTNV-1" source="8iVH5raa5UheTRkbEqdS-23" target="8iVH5raa5UheTRkbEqdS-23">
          <mxGeometry width="160" relative="1" as="geometry">
            <mxPoint x="4010" y="1025" as="sourcePoint" />
            <mxPoint x="4110" y="905" as="targetPoint" />
            <Array as="points">
              <mxPoint x="4040" y="975" />
              <mxPoint x="4000" y="975" />
            </Array>
          </mxGeometry>
        </mxCell>
        <mxCell id="8iVH5raa5UheTRkbEqdS-30" value="" style="endArrow=open;endFill=1;endSize=12;html=1;rounded=0;exitX=0;exitY=0.75;exitDx=0;exitDy=0;entryX=1;entryY=0.75;entryDx=0;entryDy=0;" edge="1" parent="WIyWlLk6GJQsqaUBKTNV-1" source="8iVH5raa5UheTRkbEqdS-23" target="8iVH5raa5UheTRkbEqdS-26">
          <mxGeometry width="160" relative="1" as="geometry">
            <mxPoint x="3870" y="1035" as="sourcePoint" />
            <mxPoint x="3810" y="965" as="targetPoint" />
          </mxGeometry>
        </mxCell>
        <mxCell id="8iVH5raa5UheTRkbEqdS-31" value="Receive Object(o)&lt;br&gt;/room.Receive Object(o)" style="text;html=1;align=center;verticalAlign=middle;resizable=0;points=[];autosize=1;strokeColor=none;fillColor=none;" vertex="1" parent="WIyWlLk6GJQsqaUBKTNV-1">
          <mxGeometry x="3945" y="985" width="150" height="30" as="geometry" />
        </mxCell>
        <mxCell id="8iVH5raa5UheTRkbEqdS-32" value="Give Object(o)[room.inventory.length == 1]&lt;br&gt;/room.Give Object(o)" style="text;html=1;align=center;verticalAlign=middle;resizable=0;points=[];autosize=1;strokeColor=none;fillColor=none;" vertex="1" parent="WIyWlLk6GJQsqaUBKTNV-1">
          <mxGeometry x="3737" y="922" width="240" height="30" as="geometry" />
        </mxCell>
        <mxCell id="8iVH5raa5UheTRkbEqdS-33" value="" style="endArrow=open;endFill=1;endSize=12;html=1;rounded=0;exitX=0.25;exitY=1;exitDx=0;exitDy=0;entryX=0.75;entryY=1;entryDx=0;entryDy=0;" edge="1" parent="WIyWlLk6GJQsqaUBKTNV-1" source="8iVH5raa5UheTRkbEqdS-26" target="8iVH5raa5UheTRkbEqdS-26">
          <mxGeometry width="160" relative="1" as="geometry">
            <mxPoint x="3950" y="905" as="sourcePoint" />
            <mxPoint x="3700" y="1015" as="targetPoint" />
            <Array as="points">
              <mxPoint x="3680" y="975" />
              <mxPoint x="3720" y="975" />
            </Array>
          </mxGeometry>
        </mxCell>
        <mxCell id="8iVH5raa5UheTRkbEqdS-34" value="Give Object (o)" style="text;html=1;align=center;verticalAlign=middle;resizable=0;points=[];autosize=1;strokeColor=none;fillColor=none;" vertex="1" parent="WIyWlLk6GJQsqaUBKTNV-1">
          <mxGeometry x="3652" y="976" width="100" height="20" as="geometry" />
        </mxCell>
        <mxCell id="8iVH5raa5UheTRkbEqdS-35" style="edgeStyle=orthogonalEdgeStyle;rounded=0;orthogonalLoop=1;jettySize=auto;html=1;endArrow=open;endFill=0;entryX=1;entryY=0;entryDx=0;entryDy=0;" edge="1" parent="WIyWlLk6GJQsqaUBKTNV-1" source="8iVH5raa5UheTRkbEqdS-37" target="8iVH5raa5UheTRkbEqdS-37">
          <mxGeometry relative="1" as="geometry">
            <mxPoint x="4400" y="900" as="targetPoint" />
            <Array as="points">
              <mxPoint x="4300" y="800" />
              <mxPoint x="4410" y="800" />
              <mxPoint x="4410" y="872" />
            </Array>
          </mxGeometry>
        </mxCell>
        <mxCell id="8iVH5raa5UheTRkbEqdS-36" style="edgeStyle=orthogonalEdgeStyle;rounded=0;orthogonalLoop=1;jettySize=auto;html=1;endArrow=open;endFill=0;" edge="1" parent="WIyWlLk6GJQsqaUBKTNV-1" source="8iVH5raa5UheTRkbEqdS-37">
          <mxGeometry relative="1" as="geometry">
            <mxPoint x="4570" y="887" as="targetPoint" />
          </mxGeometry>
        </mxCell>
        <mxCell id="8iVH5raa5UheTRkbEqdS-37" value="Idle" style="rounded=1;whiteSpace=wrap;html=1;" vertex="1" parent="WIyWlLk6GJQsqaUBKTNV-1">
          <mxGeometry x="4260" y="872" width="80" height="30" as="geometry" />
        </mxCell>
        <mxCell id="8iVH5raa5UheTRkbEqdS-38" value="" style="ellipse;html=1;shape=startState;fillColor=#000000;strokeColor=#ff0000;" vertex="1" parent="WIyWlLk6GJQsqaUBKTNV-1">
          <mxGeometry x="4210" y="872" width="30" height="30" as="geometry" />
        </mxCell>
        <mxCell id="8iVH5raa5UheTRkbEqdS-39" value="" style="edgeStyle=orthogonalEdgeStyle;html=1;verticalAlign=bottom;endArrow=open;endSize=8;strokeColor=#ff0000;rounded=0;exitX=1;exitY=0.5;exitDx=0;exitDy=0;entryX=0;entryY=0.5;entryDx=0;entryDy=0;" edge="1" parent="WIyWlLk6GJQsqaUBKTNV-1">
          <mxGeometry relative="1" as="geometry">
            <mxPoint x="4260" y="886.29" as="targetPoint" />
            <mxPoint x="4240" y="886.29" as="sourcePoint" />
          </mxGeometry>
        </mxCell>
        <mxCell id="8iVH5raa5UheTRkbEqdS-40" value="Take Damage(o)[o.Durability &amp;lt; maxDamage]&lt;br&gt;/Object.Take Damage(o)" style="text;html=1;align=center;verticalAlign=middle;resizable=0;points=[];autosize=1;strokeColor=none;fillColor=none;" vertex="1" parent="WIyWlLk6GJQsqaUBKTNV-1">
          <mxGeometry x="4240" y="760" width="250" height="30" as="geometry" />
        </mxCell>
        <mxCell id="8iVH5raa5UheTRkbEqdS-41" style="edgeStyle=orthogonalEdgeStyle;rounded=0;orthogonalLoop=1;jettySize=auto;html=1;endArrow=open;endFill=0;" edge="1" parent="WIyWlLk6GJQsqaUBKTNV-1" source="8iVH5raa5UheTRkbEqdS-42" target="8iVH5raa5UheTRkbEqdS-43">
          <mxGeometry relative="1" as="geometry" />
        </mxCell>
        <mxCell id="8iVH5raa5UheTRkbEqdS-42" value="Item Destroyed" style="rounded=1;whiteSpace=wrap;html=1;" vertex="1" parent="WIyWlLk6GJQsqaUBKTNV-1">
          <mxGeometry x="4570" y="872" width="80" height="30" as="geometry" />
        </mxCell>
        <mxCell id="8iVH5raa5UheTRkbEqdS-43" value="" style="ellipse;html=1;shape=endState;fillColor=#000000;strokeColor=#ff0000;" vertex="1" parent="WIyWlLk6GJQsqaUBKTNV-1">
          <mxGeometry x="4690" y="872" width="30" height="30" as="geometry" />
        </mxCell>
        <mxCell id="8iVH5raa5UheTRkbEqdS-44" style="edgeStyle=orthogonalEdgeStyle;rounded=0;orthogonalLoop=1;jettySize=auto;html=1;endArrow=open;endFill=0;entryX=1;entryY=0;entryDx=0;entryDy=0;" edge="1" parent="WIyWlLk6GJQsqaUBKTNV-1" source="8iVH5raa5UheTRkbEqdS-46" target="8iVH5raa5UheTRkbEqdS-46">
          <mxGeometry relative="1" as="geometry">
            <mxPoint x="4405" y="1115" as="targetPoint" />
            <Array as="points">
              <mxPoint x="4305" y="1015" />
              <mxPoint x="4415" y="1015" />
              <mxPoint x="4415" y="1087" />
            </Array>
          </mxGeometry>
        </mxCell>
        <mxCell id="8iVH5raa5UheTRkbEqdS-45" style="edgeStyle=orthogonalEdgeStyle;rounded=0;orthogonalLoop=1;jettySize=auto;html=1;endArrow=open;endFill=0;" edge="1" parent="WIyWlLk6GJQsqaUBKTNV-1" source="8iVH5raa5UheTRkbEqdS-46">
          <mxGeometry relative="1" as="geometry">
            <mxPoint x="4575" y="1102" as="targetPoint" />
          </mxGeometry>
        </mxCell>
        <mxCell id="8iVH5raa5UheTRkbEqdS-46" value="Idle" style="rounded=1;whiteSpace=wrap;html=1;" vertex="1" parent="WIyWlLk6GJQsqaUBKTNV-1">
          <mxGeometry x="4265" y="1087" width="80" height="30" as="geometry" />
        </mxCell>
        <mxCell id="8iVH5raa5UheTRkbEqdS-47" value="" style="ellipse;html=1;shape=startState;fillColor=#000000;strokeColor=#ff0000;" vertex="1" parent="WIyWlLk6GJQsqaUBKTNV-1">
          <mxGeometry x="4215" y="1087" width="30" height="30" as="geometry" />
        </mxCell>
        <mxCell id="8iVH5raa5UheTRkbEqdS-48" value="" style="edgeStyle=orthogonalEdgeStyle;html=1;verticalAlign=bottom;endArrow=open;endSize=8;strokeColor=#ff0000;rounded=0;exitX=1;exitY=0.5;exitDx=0;exitDy=0;entryX=0;entryY=0.5;entryDx=0;entryDy=0;" edge="1" parent="WIyWlLk6GJQsqaUBKTNV-1">
          <mxGeometry relative="1" as="geometry">
            <mxPoint x="4265" y="1101.29" as="targetPoint" />
            <mxPoint x="4245" y="1101.29" as="sourcePoint" />
          </mxGeometry>
        </mxCell>
        <mxCell id="8iVH5raa5UheTRkbEqdS-49" value="Enchant(o)[o.Enchantments &amp;lt; maxEnchantments]&lt;br&gt;/Object.Enchant(o)" style="text;html=1;align=center;verticalAlign=middle;resizable=0;points=[];autosize=1;strokeColor=none;fillColor=none;" vertex="1" parent="WIyWlLk6GJQsqaUBKTNV-1">
          <mxGeometry x="4230" y="975" width="280" height="30" as="geometry" />
        </mxCell>
        <mxCell id="8iVH5raa5UheTRkbEqdS-50" value="Max Enchantment" style="rounded=1;whiteSpace=wrap;html=1;" vertex="1" parent="WIyWlLk6GJQsqaUBKTNV-1">
          <mxGeometry x="4575" y="1087" width="80" height="30" as="geometry" />
        </mxCell>
        <mxCell id="8iVH5raa5UheTRkbEqdS-51" value="Take Damage(o)[o.Durability == maxDamage -1 ]&lt;br&gt;/Object.Take Damage(o)" style="text;html=1;align=center;verticalAlign=middle;resizable=0;points=[];autosize=1;strokeColor=none;fillColor=none;" vertex="1" parent="WIyWlLk6GJQsqaUBKTNV-1">
          <mxGeometry x="4305" y="902" width="280" height="30" as="geometry" />
        </mxCell>
        <mxCell id="8iVH5raa5UheTRkbEqdS-52" value="Enchant(o)[o.Enchantments == maxEnchantments - 1]&lt;br&gt;/Object.Enchant(o)" style="text;html=1;align=center;verticalAlign=middle;resizable=0;points=[];autosize=1;strokeColor=none;fillColor=none;" vertex="1" parent="WIyWlLk6GJQsqaUBKTNV-1">
          <mxGeometry x="4290" y="1130" width="310" height="30" as="geometry" />
        </mxCell>
        <mxCell id="8iVH5raa5UheTRkbEqdS-53" value="{context Lay Down Object(o: Object)&lt;br&gt;&lt;div&gt;pre: Inventory.size() &amp;gt; 0&lt;/div&gt;&lt;div&gt;AND Inventory -&amp;gt; includes(o)&lt;/div&gt;&lt;div&gt;post:&amp;nbsp;&lt;/div&gt;&lt;div&gt;Inventory.size() = Inventory.size()@pre - 1 AND&lt;/div&gt;&lt;div&gt;Inventory@pre -&amp;gt; includes Inventory.allInstances() AND&lt;/div&gt;Inventory -&amp;gt; NOT includes o&lt;div&gt;}&lt;/div&gt;" style="shape=note;whiteSpace=wrap;html=1;backgroundOutline=1;darkOpacity=0.05;align=left;" vertex="1" parent="WIyWlLk6GJQsqaUBKTNV-1">
          <mxGeometry x="2190" y="2350" width="310" height="160" as="geometry" />
        </mxCell>
        <mxCell id="8iVH5raa5UheTRkbEqdS-54" value="" style="endArrow=none;dashed=1;html=1;rounded=0;exitX=0;exitY=0.5;exitDx=0;exitDy=0;entryX=0;entryY=0;entryDx=295;entryDy=15;entryPerimeter=0;" edge="1" parent="WIyWlLk6GJQsqaUBKTNV-1" source="cA6XABB9ZMt0WS9synM3-122" target="8iVH5raa5UheTRkbEqdS-53">
          <mxGeometry width="50" height="50" relative="1" as="geometry">
            <mxPoint x="2445.2599999999998" y="2102.4399999999996" as="sourcePoint" />
            <mxPoint x="2377.2300000000005" y="2184.48" as="targetPoint" />
          </mxGeometry>
        </mxCell>
      </root>
    </mxGraphModel>
  </diagram>
</mxfile>
